  0
SECTION
  2
HEADER
  9
$ACADVER
  1
AC1009
  0
ENDSEC
  0
SECTION
  2
TABLES
  0
TABLE
  2
LTYPE
 70
2
  0
LTYPE
  2
CONTINUOUS
 70
0
  3
Solid line
 72
65
 73
0
 40
0.0
  0
LTYPE
  2
DASHDOT
 70
0
  3
Dash dot
 72
65
 73
4
 40
19.05
 49
12.7
 49
-3.175
 49
0.0
 49
-3.175
  0
ENDTAB
  0
TABLE
  2
LAYER
 70
26
  0
LAYER
  2
0
 70
0
 62
7
  6
CONTINUOUS
  0
LAYER
  2
\U+0410\U+041A\U+0421\U+041E_\U+041E\U+0422\U+041C\U+0415\U+0422\U+041A\U+0418
 70
0
 62
2
  6
CONTINUOUS
  0
LAYER
  2
\U+0410\U+041A\U+0421\U+041E_\U+041E\U+0422\U+041C\U+0415\U+0422\U+041A\U+0418_\U+0422\U+0415\U+041A\U+0421\U+0422
 70
0
 62
7
  6
CONTINUOUS
  0
LAYER
  2
\U+0410\U+041A\U+0421\U+041E_\U+0421\U+0412\U+0410\U+0420\U+041A\U+0410
 70
0
 62
1
  6
CONTINUOUS
  0
LAYER
  2
\U+0410\U+041A\U+0421\U+041E_\U+0421\U+0412\U+0410\U+0420\U+041A\U+0410_\U+0412\U+042B\U+041D\U+041E\U+0421\U+041A\U+0418
 70
0
 62
1
  6
CONTINUOUS
  0
LAYER
  2
\U+0410\U+041A\U+0421\U+041E_\U+0421\U+0412\U+0410\U+0420\U+041A\U+0410_\U+0422\U+0415\U+041A\U+0421\U+0422
 70
0
 62
7
  6
CONTINUOUS
  0
LAYER
  2
\U+0410\U+041A\U+0421\U+041E_\U+0410\U+0420\U+041C\U+0410\U+0422\U+0423\U+0420\U+0410
 70
0
 62
3
  6
CONTINUOUS
  0
LAYER
  2
\U+0410\U+041A\U+0421\U+041E_\U+0414\U+0418\U+0410\U+041C\U+0415\U+0422\U+0420\U+042B
 70
0
 62
4
  6
CONTINUOUS
  0
LAYER
  2
\U+0410\U+041A\U+0421\U+041E_\U+0423\U+041A\U+041B\U+041E\U+041D\U+042B
 70
0
 62
30
  6
CONTINUOUS
  0
LAYER
  2
\U+0410\U+041A\U+0421\U+041E_\U+041F\U+0415\U+0420\U+0415\U+0425\U+041E\U+0414\U+042B
 70
0
 62
5
  6
CONTINUOUS
  0
LAYER
  2
\U+0410\U+041A\U+0421\U+041E_\U+041F\U+0415\U+0420\U+0415\U+0425\U+041E\U+0414\U+042B_\U+0422\U+0415\U+041A\U+0421\U+0422
 70
0
 62
7
  6
CONTINUOUS
  0
LAYER
  2
\U+0410\U+041A\U+0421\U+041E_\U+0424\U+041B\U+0410\U+041D\U+0426\U+042B
 70
0
 62
6
  6
CONTINUOUS
  0
LAYER
  2
\U+0410\U+041A\U+0421\U+041E_\U+0424\U+041B\U+0410\U+041D\U+0426\U+042B_\U+0422\U+0415\U+041A\U+0421\U+0422
 70
0
 62
7
  6
CONTINUOUS
  0
LAYER
  2
\U+0410\U+041A\U+0421\U+041E_\U+0412\U+0420\U+0415\U+0417\U+041A\U+0418
 70
0
 62
1
  6
CONTINUOUS
  0
LAYER
  2
\U+0410\U+041A\U+0421\U+041E_\U+041E\U+0421\U+0418
 70
0
 62
8
  6
DASHDOT
  0
LAYER
  2
\U+0410\U+041A\U+0421\U+041E_\U+041E\U+0421\U+0418_\U+0422\U+0415\U+041A\U+0421\U+0422
 70
0
 62
7
  6
CONTINUOUS
  0
LAYER
  2
\U+0410\U+041A\U+0421\U+041E_\U+0412\U+042B\U+041D\U+041E\U+0421\U+041A\U+0418
 70
0
 62
7
  6
CONTINUOUS
  0
LAYER
  2
\U+0410\U+041A\U+0421\U+041E_\U+0412\U+042B\U+041D\U+041E\U+0421\U+041A\U+0418_\U+0422\U+0415\U+041A\U+0421\U+0422
 70
0
 62
4
  6
CONTINUOUS
  0
LAYER
  2
\U+0410\U+041A\U+0421\U+041E_\U+04121
 70
0
 62
5
  6
CONTINUOUS
  0
LAYER
  2
\U+0410\U+041A\U+0421\U+041E_\U+04223
 70
0
 62
1
  6
CONTINUOUS
  0
LAYER
  2
\U+0410\U+041A\U+0421\U+041E_\U+04224
 70
0
 62
30
  6
CONTINUOUS
  0
LAYER
  2
\U+0410\U+041A\U+0421\U+041E_\U+041A1
 70
0
 62
130
  6
CONTINUOUS
  0
LAYER
  2
\U+0410\U+041A\U+0421\U+041E_\U+041E1
 70
0
 62
6
  6
CONTINUOUS
  0
LAYER
  2
\U+0410\U+041A\U+0421\U+041E_\U+041E2
 70
0
 62
4
  6
CONTINUOUS
  0
LAYER
  2
\U+0410\U+041A\U+0421\U+041E_\U+0422\U+0425
 70
0
 62
3
  6
CONTINUOUS
  0
LAYER
  2
\U+0410\U+041A\U+0421\U+041E_\U+0422\U+0421
 70
0
 62
1
  6
CONTINUOUS
  0
ENDTAB
  0
ENDSEC
  0
SECTION
  2
BLOCKS
  0
ENDSEC
  0
SECTION
  2
ENTITIES
  0
LINE
  8
\U+0410\U+041A\U+0421\U+041E_\U+04121
 10
0.0
 20
0.0
 30
0.0
 11
0.0
 21
2800.0
 31
0.0
  0
TEXT
  8
\U+0410\U+041A\U+0421\U+041E_\U+0414\U+0418\U+0410\U+041C\U+0415\U+0422\U+0420\U+042B
 10
-30.0
 20
1430.0
 30
0.0
 40
50.0
  1
\U+230057\U+00D73.5
 72
0
 11
-30.0
 21
1430.0
 31
0.0
  0
LINE
  8
\U+0410\U+041A\U+0421\U+041E_\U+04121
 10
0.0
 20
2800.0
 30
0.0
 11
3500.0
 21
2800.0
 31
0.0
  0
TEXT
  8
\U+0410\U+041A\U+0421\U+041E_\U+0414\U+0418\U+0410\U+041C\U+0415\U+0422\U+0420\U+042B
 10
1720.0
 20
2830.0
 30
0.0
 40
50.0
  1
\U+230057\U+00D73.5
 72
0
 11
1720.0
 21
2830.0
 31
0.0
  0
LINE
  8
\U+0410\U+041A\U+0421\U+041E_\U+04121
 10
3500.0
 20
2800.0
 30
0.0
 11
2792.89321882
 21
2092.89321882
 31
0.0
  0
TEXT
  8
\U+0410\U+041A\U+0421\U+041E_\U+0414\U+0418\U+0410\U+041C\U+0415\U+0422\U+0420\U+042B
 10
3116.44660941
 20
2476.44660941
 30
0.0
 40
50.0
  1
\U+230089\U+00D73.5
 72
0
 11
3116.44660941
 21
2476.44660941
 31
0.0
  0
LINE
  8
\U+0410\U+041A\U+0421\U+041E_\U+04121
 10
2792.89321882
 20
2092.89321882
 30
0.0
 11
2792.89321882
 21
-107.10678117999998
 31
0.0
  0
TEXT
  8
\U+0410\U+041A\U+0421\U+041E_\U+0414\U+0418\U+0410\U+041C\U+0415\U+0422\U+0420\U+042B
 10
2762.89321882
 20
1022.8932188200001
 30
0.0
 40
50.0
  1
\U+230089\U+00D73.5
 72
0
 11
2762.89321882
 21
1022.8932188200001
 31
0.0
  0
LINE
  8
\U+0410\U+041A\U+0421\U+041E_\U+0410\U+0420\U+041C\U+0410\U+0422\U+0423\U+0420\U+0410
 10
1696.0
 20
2773.0
 30
0.0
 11
1750.0
 21
2800.0
 31
0.0
  0
LINE
  8
\U+0410\U+041A\U+0421\U+041E_\U+0410\U+0420\U+041C\U+0410\U+0422\U+0423\U+0420\U+0410
 10
1750.0
 20
2800.0
 30
0.0
 11
1696.0
 21
2827.0
 31
0.0
  0
LINE
  8
\U+0410\U+041A\U+0421\U+041E_\U+0410\U+0420\U+041C\U+0410\U+0422\U+0423\U+0420\U+0410
 10
1696.0
 20
2827.0
 30
0.0
 11
1696.0
 21
2773.0
 31
0.0
  0
LINE
  8
\U+0410\U+041A\U+0421\U+041E_\U+0410\U+0420\U+041C\U+0410\U+0422\U+0423\U+0420\U+0410
 10
1750.0
 20
2800.0
 30
0.0
 11
1804.0
 21
2773.0
 31
0.0
  0
LINE
  8
\U+0410\U+041A\U+0421\U+041E_\U+0410\U+0420\U+041C\U+0410\U+0422\U+0423\U+0420\U+0410
 10
1804.0
 20
2773.0
 30
0.0
 11
1804.0
 21
2827.0
 31
0.0
  0
LINE
  8
\U+0410\U+041A\U+0421\U+041E_\U+0410\U+0420\U+041C\U+0410\U+0422\U+0423\U+0420\U+0410
 10
1804.0
 20
2827.0
 30
0.0
 11
1750.0
 21
2800.0
 31
0.0
  0
LINE
  8
\U+0410\U+041A\U+0421\U+041E_\U+0410\U+0420\U+041C\U+0410\U+0422\U+0423\U+0420\U+0410
 10
1750.0
 20
2800.0
 30
0.0
 11
1750.0
 21
2756.8
 31
0.0
  0
CIRCLE
  8
\U+0410\U+041A\U+0421\U+041E_\U+0410\U+0420\U+041C\U+0410\U+0422\U+0423\U+0420\U+0410
 10
1750.0
 20
2756.8
 30
0.0
 40
18.9
  0
CIRCLE
  8
\U+0410\U+041A\U+0421\U+041E_\U+0421\U+0412\U+0410\U+0420\U+041A\U+0410
 10
1675.0
 20
2800.0
 30
0.0
 40
10.0
  0
LINE
  8
\U+0410\U+041A\U+0421\U+041E_\U+0421\U+0412\U+0410\U+0420\U+041A\U+0410_\U+0412\U+042B\U+041D\U+041E\U+0421\U+041A\U+0418
 10
1675.0
 20
2800.0
 30
0.0
 11
1795.0
 21
2920.0
 31
0.0
  0
LINE
  8
\U+0410\U+041A\U+0421\U+041E_\U+0421\U+0412\U+0410\U+0420\U+041A\U+0410_\U+0412\U+042B\U+041D\U+041E\U+0421\U+041A\U+0418
 10
1795.0
 20
2920.0
 30
0.0
 11
1975.0
 21
2920.0
 31
0.0
  0
TEXT
  8
\U+0410\U+041A\U+0421\U+041E_\U+0421\U+0412\U+0410\U+0420\U+041A\U+0410_\U+0422\U+0415\U+041A\U+0421\U+0422
 10
1805.0
 20
2935.0
 30
0.0
 40
40.0
  1
\U+21161 \U+042117
 72
0
 11
1805.0
 21
2935.0
 31
0.0
  0
TEXT
  8
\U+0410\U+041A\U+0421\U+041E_\U+0421\U+0412\U+0410\U+0420\U+041A\U+0410_\U+0422\U+0415\U+041A\U+0421\U+0422
 10
1805.0
 20
2875.0
 30
0.0
 40
35.0
  1
\U+041A\U+043B. \U+0418\U+0412-01
 72
0
 11
1805.0
 21
2875.0
 31
0.0
  0
CIRCLE
  8
\U+0410\U+041A\U+0421\U+041E_\U+0421\U+0412\U+0410\U+0420\U+041A\U+0410
 10
1825.0000000000002
 20
2800.0
 30
0.0
 40
10.0
  0
LINE
  8
\U+0410\U+041A\U+0421\U+041E_\U+0421\U+0412\U+0410\U+0420\U+041A\U+0410_\U+0412\U+042B\U+041D\U+041E\U+0421\U+041A\U+0418
 10
1825.0000000000002
 20
2800.0
 30
0.0
 11
1945.0000000000002
 21
2920.0
 31
0.0
  0
LINE
  8
\U+0410\U+041A\U+0421\U+041E_\U+0421\U+0412\U+0410\U+0420\U+041A\U+0410_\U+0412\U+042B\U+041D\U+041E\U+0421\U+041A\U+0418
 10
1945.0000000000002
 20
2920.0
 30
0.0
 11
2125.0
 21
2920.0
 31
0.0
  0
TEXT
  8
\U+0410\U+041A\U+0421\U+041E_\U+0421\U+0412\U+0410\U+0420\U+041A\U+0410_\U+0422\U+0415\U+041A\U+0421\U+0422
 10
1955.0000000000002
 20
2935.0
 30
0.0
 40
40.0
  1
\U+21162 \U+042117
 72
0
 11
1955.0000000000002
 21
2935.0
 31
0.0
  0
TEXT
  8
\U+0410\U+041A\U+0421\U+041E_\U+0421\U+0412\U+0410\U+0420\U+041A\U+0410_\U+0422\U+0415\U+041A\U+0421\U+0422
 10
1955.0000000000002
 20
2875.0
 30
0.0
 40
35.0
  1
\U+041A\U+043B. \U+0418\U+0412-01
 72
0
 11
1955.0000000000002
 21
2875.0
 31
0.0
  0
LINE
  8
\U+0410\U+041A\U+0421\U+041E_\U+041E\U+0422\U+041C\U+0415\U+0422\U+041A\U+0418
 10
0.0
 20
0.0
 30
0.0
 11
-24.5
 21
35.0
 31
0.0
  0
LINE
  8
\U+0410\U+041A\U+0421\U+041E_\U+041E\U+0422\U+041C\U+0415\U+0422\U+041A\U+0418
 10
-24.5
 20
35.0
 30
0.0
 11
24.5
 21
35.0
 31
0.0
  0
LINE
  8
\U+0410\U+041A\U+0421\U+041E_\U+041E\U+0422\U+041C\U+0415\U+0422\U+041A\U+0418
 10
24.5
 20
35.0
 30
0.0
 11
0.0
 21
0.0
 31
0.0
  0
LINE
  8
\U+0410\U+041A\U+0421\U+041E_\U+041E\U+0422\U+041C\U+0415\U+0422\U+041A\U+0418
 10
0.0
 20
35.0
 30
0.0
 11
0.0
 21
50.0
 31
0.0
  0
LINE
  8
\U+0410\U+041A\U+0421\U+041E_\U+041E\U+0422\U+041C\U+0415\U+0422\U+041A\U+0418
 10
0.0
 20
50.0
 30
0.0
 11
160.0
 21
50.0
 31
0.0
  0
TEXT
  8
\U+0410\U+041A\U+0421\U+041E_\U+041E\U+0422\U+041C\U+0415\U+0422\U+041A\U+0418_\U+0422\U+0415\U+041A\U+0421\U+0422
 10
15.0
 20
60.0
 30
0.0
 40
45.0
  1
0.000
 72
0
 11
15.0
 21
60.0
 31
0.0
  0
LINE
  8
\U+0410\U+041A\U+0421\U+041E_\U+041E\U+0422\U+041C\U+0415\U+0422\U+041A\U+0418
 10
0.0
 20
2800.0
 30
0.0
 11
-24.5
 21
2835.0
 31
0.0
  0
LINE
  8
\U+0410\U+041A\U+0421\U+041E_\U+041E\U+0422\U+041C\U+0415\U+0422\U+041A\U+0418
 10
-24.5
 20
2835.0
 30
0.0
 11
24.5
 21
2835.0
 31
0.0
  0
LINE
  8
\U+0410\U+041A\U+0421\U+041E_\U+041E\U+0422\U+041C\U+0415\U+0422\U+041A\U+0418
 10
24.5
 20
2835.0
 30
0.0
 11
0.0
 21
2800.0
 31
0.0
  0
LINE
  8
\U+0410\U+041A\U+0421\U+041E_\U+041E\U+0422\U+041C\U+0415\U+0422\U+041A\U+0418
 10
0.0
 20
2835.0
 30
0.0
 11
0.0
 21
2850.0
 31
0.0
  0
LINE
  8
\U+0410\U+041A\U+0421\U+041E_\U+041E\U+0422\U+041C\U+0415\U+0422\U+041A\U+0418
 10
0.0
 20
2850.0
 30
0.0
 11
160.0
 21
2850.0
 31
0.0
  0
TEXT
  8
\U+0410\U+041A\U+0421\U+041E_\U+041E\U+0422\U+041C\U+0415\U+0422\U+041A\U+0418_\U+0422\U+0415\U+041A\U+0421\U+0422
 10
15.0
 20
2860.0
 30
0.0
 40
45.0
  1
+2.800
 72
0
 11
15.0
 21
2860.0
 31
0.0
  0
LINE
  8
\U+0410\U+041A\U+0421\U+041E_\U+041E\U+0422\U+041C\U+0415\U+0422\U+041A\U+0418
 10
3500.0
 20
2800.0
 30
0.0
 11
3475.5
 21
2835.0
 31
0.0
  0
LINE
  8
\U+0410\U+041A\U+0421\U+041E_\U+041E\U+0422\U+041C\U+0415\U+0422\U+041A\U+0418
 10
3475.5
 20
2835.0
 30
0.0
 11
3524.5
 21
2835.0
 31
0.0
  0
LINE
  8
\U+0410\U+041A\U+0421\U+041E_\U+041E\U+0422\U+041C\U+0415\U+0422\U+041A\U+0418
 10
3524.5
 20
2835.0
 30
0.0
 11
3500.0
 21
2800.0
 31
0.0
  0
LINE
  8
\U+0410\U+041A\U+0421\U+041E_\U+041E\U+0422\U+041C\U+0415\U+0422\U+041A\U+0418
 10
3500.0
 20
2835.0
 30
0.0
 11
3500.0
 21
2850.0
 31
0.0
  0
LINE
  8
\U+0410\U+041A\U+0421\U+041E_\U+041E\U+0422\U+041C\U+0415\U+0422\U+041A\U+0418
 10
3500.0
 20
2850.0
 30
0.0
 11
3660.0
 21
2850.0
 31
0.0
  0
TEXT
  8
\U+0410\U+041A\U+0421\U+041E_\U+041E\U+0422\U+041C\U+0415\U+0422\U+041A\U+0418_\U+0422\U+0415\U+041A\U+0421\U+0422
 10
3515.0
 20
2860.0
 30
0.0
 40
45.0
  1
+2.800
 72
0
 11
3515.0
 21
2860.0
 31
0.0
  0
LINE
  8
\U+0410\U+041A\U+0421\U+041E_\U+041E\U+0422\U+041C\U+0415\U+0422\U+041A\U+0418
 10
2792.89321882
 20
2092.89321882
 30
0.0
 11
2768.39321882
 21
2127.89321882
 31
0.0
  0
LINE
  8
\U+0410\U+041A\U+0421\U+041E_\U+041E\U+0422\U+041C\U+0415\U+0422\U+041A\U+0418
 10
2768.39321882
 20
2127.89321882
 30
0.0
 11
2817.39321882
 21
2127.89321882
 31
0.0
  0
LINE
  8
\U+0410\U+041A\U+0421\U+041E_\U+041E\U+0422\U+041C\U+0415\U+0422\U+041A\U+0418
 10
2817.39321882
 20
2127.89321882
 30
0.0
 11
2792.89321882
 21
2092.89321882
 31
0.0
  0
LINE
  8
\U+0410\U+041A\U+0421\U+041E_\U+041E\U+0422\U+041C\U+0415\U+0422\U+041A\U+0418
 10
2792.89321882
 20
2127.89321882
 30
0.0
 11
2792.89321882
 21
2142.89321882
 31
0.0
  0
LINE
  8
\U+0410\U+041A\U+0421\U+041E_\U+041E\U+0422\U+041C\U+0415\U+0422\U+041A\U+0418
 10
2792.89321882
 20
2142.89321882
 30
0.0
 11
2952.89321882
 21
2142.89321882
 31
0.0
  0
TEXT
  8
\U+0410\U+041A\U+0421\U+041E_\U+041E\U+0422\U+041C\U+0415\U+0422\U+041A\U+0418_\U+0422\U+0415\U+041A\U+0421\U+0422
 10
2807.89321882
 20
2152.89321882
 30
0.0
 40
45.0
  1
+2.800
 72
0
 11
2807.89321882
 21
2152.89321882
 31
0.0
  0
LINE
  8
\U+0410\U+041A\U+0421\U+041E_\U+041E\U+0422\U+041C\U+0415\U+0422\U+041A\U+0418
 10
2792.89321882
 20
-107.10678117999998
 30
0.0
 11
2768.39321882
 21
-72.10678117999998
 31
0.0
  0
LINE
  8
\U+0410\U+041A\U+0421\U+041E_\U+041E\U+0422\U+041C\U+0415\U+0422\U+041A\U+0418
 10
2768.39321882
 20
-72.10678117999998
 30
0.0
 11
2817.39321882
 21
-72.10678117999998
 31
0.0
  0
LINE
  8
\U+0410\U+041A\U+0421\U+041E_\U+041E\U+0422\U+041C\U+0415\U+0422\U+041A\U+0418
 10
2817.39321882
 20
-72.10678117999998
 30
0.0
 11
2792.89321882
 21
-107.10678117999998
 31
0.0
  0
LINE
  8
\U+0410\U+041A\U+0421\U+041E_\U+041E\U+0422\U+041C\U+0415\U+0422\U+041A\U+0418
 10
2792.89321882
 20
-72.10678117999998
 30
0.0
 11
2792.89321882
 21
-57.106781179999984
 31
0.0
  0
LINE
  8
\U+0410\U+041A\U+0421\U+041E_\U+041E\U+0422\U+041C\U+0415\U+0422\U+041A\U+0418
 10
2792.89321882
 20
-57.106781179999984
 30
0.0
 11
2952.89321882
 21
-57.106781179999984
 31
0.0
  0
TEXT
  8
\U+0410\U+041A\U+0421\U+041E_\U+041E\U+0422\U+041C\U+0415\U+0422\U+041A\U+0418_\U+0422\U+0415\U+041A\U+0421\U+0422
 10
2807.89321882
 20
-47.106781179999984
 30
0.0
 40
45.0
  1
+0.600
 72
0
 11
2807.89321882
 21
-47.106781179999984
 31
0.0
  0
ENDSEC
  0
EOF
