  0
SECTION
  2
HEADER
  9
$ACADVER
  1
AC1009
  0
ENDSEC
  0
SECTION
  2
TABLES
  0
TABLE
  2
LTYPE
 70
2
  0
LTYPE
  2
CONTINUOUS
 70
0
  3
Solid line
 72
65
 73
0
 40
0.0
  0
LTYPE
  2
DASHDOT
 70
0
  3
Dash dot
 72
65
 73
4
 40
19.05
 49
12.7
 49
-3.175
 49
0.0
 49
-3.175
  0
ENDTAB
  0
TABLE
  2
STYLE
 70
1
  0
STYLE
  2
STANDARD
 70
0
 40
0.0
 41
1.0
 50
0.0
 71
0
 42
2.5
  3
arial.ttf
  4

  0
ENDTAB
  0
TABLE
  2
LAYER
 70
44
  0
LAYER
  2
0
 70
0
 62
7
  6
CONTINUOUS
  0
LAYER
  2
\U+0410\U+041A\U+0421\U+041E_\U+0422\U+0420\U+0423\U+0411\U+042B
 70
0
 62
7
  6
CONTINUOUS
  0
LAYER
  2
\U+0410\U+041A\U+0421\U+041E_\U+041E\U+0422\U+041C\U+0415\U+0422\U+041A\U+0418
 70
0
 62
2
  6
CONTINUOUS
  0
LAYER
  2
\U+0410\U+041A\U+0421\U+041E_\U+041E\U+0422\U+041C\U+0415\U+0422\U+041A\U+0418_\U+0422\U+0415\U+041A\U+0421\U+0422
 70
0
 62
7
  6
CONTINUOUS
  0
LAYER
  2
\U+0410\U+041A\U+0421\U+041E_\U+0421\U+0412\U+0410\U+0420\U+041A\U+0410
 70
0
 62
1
  6
CONTINUOUS
  0
LAYER
  2
\U+0410\U+041A\U+0421\U+041E_\U+0421\U+0412\U+0410\U+0420\U+041A\U+0410_\U+0412\U+042B\U+041D\U+041E\U+0421\U+041A\U+0418
 70
0
 62
1
  6
CONTINUOUS
  0
LAYER
  2
\U+0410\U+041A\U+0421\U+041E_\U+0421\U+0412\U+0410\U+0420\U+041A\U+0410_\U+0422\U+0415\U+041A\U+0421\U+0422
 70
0
 62
7
  6
CONTINUOUS
  0
LAYER
  2
\U+0410\U+041A\U+0421\U+041E_\U+0410\U+0420\U+041C\U+0410\U+0422\U+0423\U+0420\U+0410
 70
0
 62
3
  6
CONTINUOUS
  0
LAYER
  2
\U+0410\U+041A\U+0421\U+041E_\U+0414\U+0418\U+0410\U+041C\U+0415\U+0422\U+0420\U+042B
 70
0
 62
4
  6
CONTINUOUS
  0
LAYER
  2
\U+0410\U+041A\U+0421\U+041E_\U+0423\U+041A\U+041B\U+041E\U+041D\U+042B
 70
0
 62
30
  6
CONTINUOUS
  0
LAYER
  2
\U+0410\U+041A\U+0421\U+041E_\U+041F\U+0415\U+0420\U+0415\U+0425\U+041E\U+0414\U+042B
 70
0
 62
5
  6
CONTINUOUS
  0
LAYER
  2
\U+0410\U+041A\U+0421\U+041E_\U+041F\U+0415\U+0420\U+0415\U+0425\U+041E\U+0414\U+042B_\U+0422\U+0415\U+041A\U+0421\U+0422
 70
0
 62
7
  6
CONTINUOUS
  0
LAYER
  2
\U+0410\U+041A\U+0421\U+041E_\U+0424\U+041B\U+0410\U+041D\U+0426\U+042B
 70
0
 62
6
  6
CONTINUOUS
  0
LAYER
  2
\U+0410\U+041A\U+0421\U+041E_\U+0424\U+041B\U+0410\U+041D\U+0426\U+042B_\U+0422\U+0415\U+041A\U+0421\U+0422
 70
0
 62
7
  6
CONTINUOUS
  0
LAYER
  2
\U+0410\U+041A\U+0421\U+041E_\U+0422\U+0420\U+041E\U+0419\U+041D\U+0418\U+041A\U+0418
 70
0
 62
5
  6
CONTINUOUS
  0
LAYER
  2
\U+0410\U+041A\U+0421\U+041E_\U+0422\U+0420\U+041E\U+0419\U+041D\U+0418\U+041A\U+0418_\U+0422\U+0415\U+041A\U+0421\U+0422
 70
0
 62
7
  6
CONTINUOUS
  0
LAYER
  2
\U+0410\U+041A\U+0421\U+041E_\U+0412\U+0420\U+0415\U+0417\U+041A\U+0418
 70
0
 62
1
  6
CONTINUOUS
  0
LAYER
  2
\U+0410\U+041A\U+0421\U+041E_\U+041E\U+0421\U+0418
 70
0
 62
8
  6
DASHDOT
  0
LAYER
  2
\U+0410\U+041A\U+0421\U+041E_\U+041E\U+0421\U+0418_\U+0422\U+0420\U+0410\U+0421\U+0421\U+042B
 70
0
 62
4
  6
DASHDOT
  0
LAYER
  2
\U+0410\U+041A\U+0421\U+041E_\U+041E\U+0421\U+0418_\U+0422\U+0415\U+041A\U+0421\U+0422
 70
0
 62
7
  6
CONTINUOUS
  0
LAYER
  2
\U+0410\U+041A\U+0421\U+041E_\U+0412\U+0421\U+041F\U+041E\U+041C\U+041E\U+0413\U+0410\U+0422\U+0415\U+041B\U+042C\U+041D\U+042B\U+0415
 70
0
 62
4
  6
DASHDOT
  0
LAYER
  2
\U+0410\U+041A\U+0421\U+041E_\U+0420\U+0410\U+0417\U+041C\U+0415\U+0420\U+042B
 70
0
 62
3
  6
CONTINUOUS
  0
LAYER
  2
\U+0410\U+041A\U+0421\U+041E_\U+0420\U+0410\U+0417\U+041C\U+0415\U+0420\U+042B_\U+0422\U+0415\U+041A\U+0421\U+0422
 70
0
 62
7
  6
CONTINUOUS
  0
LAYER
  2
\U+0410\U+041A\U+0421\U+041E_\U+0412\U+042B\U+041D\U+041E\U+0421\U+041A\U+0418
 70
0
 62
7
  6
CONTINUOUS
  0
LAYER
  2
\U+0410\U+041A\U+0421\U+041E_\U+0412\U+042B\U+041D\U+041E\U+0421\U+041A\U+0418_\U+0422\U+0415\U+041A\U+0421\U+0422
 70
0
 62
4
  6
CONTINUOUS
  0
LAYER
  2
\U+0410\U+041A\U+0421\U+041E_3D_\U+0410\U+0420\U+041C\U+0410\U+0422\U+0423\U+0420\U+0410
 70
0
 62
1
  6
CONTINUOUS
  0
LAYER
  2
\U+0410\U+041A\U+0421\U+041E_3D_\U+0421\U+0412\U+0410\U+0420\U+041D\U+042B\U+0415_\U+0421\U+0422\U+042B\U+041A\U+0418
 70
0
 62
3
  6
CONTINUOUS
  0
LAYER
  2
\U+0410\U+041A\U+0421\U+041E_3D_\U+041E\U+041F\U+041E\U+0420\U+042B
 70
0
 62
6
  6
CONTINUOUS
  0
LAYER
  2
\U+0410\U+041A\U+0421\U+041E_\U+041E\U+041F\U+041E\U+0420\U+042B_\U+0422\U+0415\U+041A\U+0421\U+0422
 70
0
 62
7
  6
CONTINUOUS
  0
LAYER
  2
\U+0410\U+041A\U+0421\U+041E_3D_\U+0424\U+041B\U+0410\U+041D\U+0426\U+042B
 70
0
 62
2
  6
CONTINUOUS
  0
LAYER
  2
\U+0410\U+041A\U+0421\U+041E_3D_\U+041F\U+0415\U+0420\U+0415\U+0425\U+041E\U+0414\U+042B
 70
0
 62
5
  6
CONTINUOUS
  0
LAYER
  2
\U+0410\U+041A\U+0421\U+041E_3D_\U+0417\U+0410\U+0413\U+041B\U+0423\U+0428\U+041A\U+0418
 70
0
 62
7
  6
CONTINUOUS
  0
LAYER
  2
\U+0410\U+041A\U+0421\U+041E_\U+0417\U+0410\U+0413\U+041B\U+0423\U+0428\U+041A\U+0418
 70
0
 62
7
  6
CONTINUOUS
  0
LAYER
  2
\U+0410\U+041A\U+0421\U+041E_\U+0417\U+0410\U+0413\U+041B\U+0423\U+0428\U+041A\U+0418_\U+0422\U+0415\U+041A\U+0421\U+0422
 70
0
 62
7
  6
CONTINUOUS
  0
LAYER
  2
\U+0410\U+041A\U+0421\U+041E_\U+041E\U+0411\U+041E\U+0420\U+0423\U+0414\U+041E\U+0412\U+0410\U+041D\U+0418\U+0415
 70
0
 62
4
  6
CONTINUOUS
  0
LAYER
  2
\U+0410\U+041A\U+0421\U+041E_\U+041E\U+0411\U+041E\U+0420\U+0423\U+0414\U+041E\U+0412\U+0410\U+041D\U+0418\U+0415_\U+0422\U+0415\U+041A\U+0421\U+0422
 70
0
 62
7
  6
CONTINUOUS
  0
LAYER
  2
\U+0410\U+041A\U+0421\U+041E_\U+04121
 70
0
 62
5
  6
CONTINUOUS
  0
LAYER
  2
\U+0410\U+041A\U+0421\U+041E_\U+04223
 70
0
 62
1
  6
CONTINUOUS
  0
LAYER
  2
\U+0410\U+041A\U+0421\U+041E_\U+04224
 70
0
 62
30
  6
CONTINUOUS
  0
LAYER
  2
\U+0410\U+041A\U+0421\U+041E_\U+041A1
 70
0
 62
130
  6
CONTINUOUS
  0
LAYER
  2
\U+0410\U+041A\U+0421\U+041E_\U+041E1
 70
0
 62
6
  6
CONTINUOUS
  0
LAYER
  2
\U+0410\U+041A\U+0421\U+041E_\U+041E2
 70
0
 62
4
  6
CONTINUOUS
  0
LAYER
  2
\U+0410\U+041A\U+0421\U+041E_\U+0422\U+0425
 70
0
 62
3
  6
CONTINUOUS
  0
LAYER
  2
\U+0410\U+041A\U+0421\U+041E_\U+0422\U+0421
 70
0
 62
1
  6
CONTINUOUS
  0
ENDTAB
  0
ENDSEC
  0
SECTION
  2
BLOCKS
  0
BLOCK
  8
0
  2
CALLOUT_SHELF_1
 70
0
 10
0.0
 20
0.0
 30
0.0
  3
CALLOUT_SHELF_1
  0
CIRCLE
  8
\U+0410\U+041A\U+0421\U+041E_\U+0412\U+042B\U+041D\U+041E\U+0421\U+041A\U+0418
 10
0.0
 20
0.0
 30
0.0
 40
12.0
  0
LINE
  8
\U+0410\U+041A\U+0421\U+041E_\U+0412\U+042B\U+041D\U+041E\U+0421\U+041A\U+0418
 10
0.0
 20
0.0
 30
0.0
 11
173.2
 21
180.0
 31
0.0
  0
LINE
  8
\U+0410\U+041A\U+0421\U+041E_\U+0412\U+042B\U+041D\U+041E\U+0421\U+041A\U+0418
 10
173.2
 20
180.0
 30
0.0
 11
733.2
 21
180.0
 31
0.0
  0
TEXT
  8
\U+0410\U+041A\U+0421\U+041E_\U+0412\U+042B\U+041D\U+041E\U+0421\U+041A\U+0418_\U+0422\U+0415\U+041A\U+0421\U+0422
 10
183.2
 20
195.0
 30
0.0
 40
45.0
  1
\U+00D850x3.5 \U+0421\U+0442\U+0430\U+043B\U+044C 20
  0
TEXT
  8
\U+0410\U+041A\U+0421\U+041E_\U+0412\U+042B\U+041D\U+041E\U+0421\U+041A\U+0418_\U+0422\U+0415\U+041A\U+0421\U+0422
 10
183.2
 20
125.0
 30
0.0
 40
45.0
  1
\U+04121
  0
ENDBLK
  8
0
  0
ENDSEC
  0
SECTION
  2
ENTITIES
  0
LINE
  8
\U+0410\U+041A\U+0421\U+041E_\U+041E\U+0421\U+0418_\U+0422\U+0420\U+0410\U+0421\U+0421\U+042B
 10
0.0
 20
0.0
 30
0.0
 11
0.0
 21
0.0
 31
2800.0
  0
LINE
  8
\U+0410\U+041A\U+0421\U+041E_\U+041E\U+0421\U+0418_\U+0422\U+0420\U+0410\U+0421\U+0421\U+042B
 10
0.0
 20
0.0
 30
2800.0
 11
0.0
 21
3500.0
 31
2800.0
  0
LINE
  8
\U+0410\U+041A\U+0421\U+041E_\U+041E\U+0421\U+0418_\U+0422\U+0420\U+0410\U+0421\U+0421\U+042B
 10
0.0
 20
3500.0
 30
2800.0
 11
2000.0
 21
3500.0
 31
2800.0
  0
LINE
  8
\U+0410\U+041A\U+0421\U+041E_\U+041E\U+0421\U+0418_\U+0422\U+0420\U+0410\U+0421\U+0421\U+042B
 10
2000.0
 20
3500.0
 30
2800.0
 11
2000.0
 21
3500.0
 31
600.0
  0
LINE
  8
\U+0410\U+041A\U+0421\U+041E_\U+04121
 10
0.0
 20
0.0
 30
0.0
 11
0.0
 21
0.0
 31
2725.0
  0
LINE
  8
\U+0410\U+041A\U+0421\U+041E_\U+04121
 10
0.0
 20
74.99999999999999
 30
2800.0
 11
0.0
 21
1675.0
 31
2800.0
  0
LINE
  8
\U+0410\U+041A\U+0421\U+041E_\U+04121
 10
0.0
 20
1825.0000000000002
 30
2800.0
 11
0.0
 21
3425.0
 31
2800.0
  0
LINE
  8
\U+0410\U+041A\U+0421\U+041E_\U+04121
 10
74.99999999999999
 20
3500.0
 30
2800.0
 11
1880.0
 21
3500.0
 31
2800.0
  0
LINE
  8
\U+0410\U+041A\U+0421\U+041E_\U+04121
 10
2000.0
 20
3500.0
 30
2680.0
 11
2000.0
 21
3500.0
 31
600.0
  0
LINE
  8
\U+0410\U+041A\U+0421\U+041E_3D_\U+0410\U+0420\U+041C\U+0410\U+0422\U+0423\U+0420\U+0410
 10
28.5
 20
1675.0
 30
2800.0
 11
24.681724007856502
 21
1675.0
 31
2785.75
  0
LINE
  8
\U+0410\U+041A\U+0421\U+041E_3D_\U+0410\U+0420\U+041C\U+0410\U+0422\U+0423\U+0420\U+0410
 10
28.5
 20
1825.0
 30
2800.0
 11
24.681724007856502
 21
1825.0
 31
2785.75
  0
LINE
  8
\U+0410\U+041A\U+0421\U+041E_3D_\U+0410\U+0420\U+041C\U+0410\U+0422\U+0423\U+0420\U+0410
 10
24.681724007856502
 20
1675.0
 30
2785.75
 11
14.250000000000005
 21
1675.0
 31
2775.3182759921433
  0
LINE
  8
\U+0410\U+041A\U+0421\U+041E_3D_\U+0410\U+0420\U+041C\U+0410\U+0422\U+0423\U+0420\U+0410
 10
24.681724007856502
 20
1825.0
 30
2785.75
 11
14.250000000000005
 21
1825.0
 31
2775.3182759921433
  0
LINE
  8
\U+0410\U+041A\U+0421\U+041E_3D_\U+0410\U+0420\U+041C\U+0410\U+0422\U+0423\U+0420\U+0410
 10
14.250000000000005
 20
1675.0
 30
2775.3182759921433
 11
3.4902433775699565e-15
 21
1675.0
 31
2771.5
  0
LINE
  8
\U+0410\U+041A\U+0421\U+041E_3D_\U+0410\U+0420\U+041C\U+0410\U+0422\U+0423\U+0420\U+0410
 10
14.250000000000005
 20
1825.0
 30
2775.3182759921433
 11
3.4902433775699565e-15
 21
1825.0
 31
2771.5
  0
LINE
  8
\U+0410\U+041A\U+0421\U+041E_3D_\U+0410\U+0420\U+041C\U+0410\U+0422\U+0423\U+0420\U+0410
 10
3.4902433775699565e-15
 20
1675.0
 30
2771.5
 11
-14.249999999999991
 21
1675.0
 31
2775.3182759921433
  0
LINE
  8
\U+0410\U+041A\U+0421\U+041E_3D_\U+0410\U+0420\U+041C\U+0410\U+0422\U+0423\U+0420\U+0410
 10
3.4902433775699565e-15
 20
1825.0
 30
2771.5
 11
-14.249999999999991
 21
1825.0
 31
2775.3182759921433
  0
LINE
  8
\U+0410\U+041A\U+0421\U+041E_3D_\U+0410\U+0420\U+041C\U+0410\U+0422\U+0423\U+0420\U+0410
 10
-14.249999999999991
 20
1675.0
 30
2775.3182759921433
 11
-24.681724007856502
 21
1675.0
 31
2785.75
  0
LINE
  8
\U+0410\U+041A\U+0421\U+041E_3D_\U+0410\U+0420\U+041C\U+0410\U+0422\U+0423\U+0420\U+0410
 10
-14.249999999999991
 20
1825.0
 30
2775.3182759921433
 11
-24.681724007856502
 21
1825.0
 31
2785.75
  0
LINE
  8
\U+0410\U+041A\U+0421\U+041E_3D_\U+0410\U+0420\U+041C\U+0410\U+0422\U+0423\U+0420\U+0410
 10
-24.681724007856502
 20
1675.0
 30
2785.75
 11
-28.5
 21
1675.0
 31
2800.0
  0
LINE
  8
\U+0410\U+041A\U+0421\U+041E_3D_\U+0410\U+0420\U+041C\U+0410\U+0422\U+0423\U+0420\U+0410
 10
-24.681724007856502
 20
1825.0
 30
2785.75
 11
-28.5
 21
1825.0
 31
2800.0
  0
LINE
  8
\U+0410\U+041A\U+0421\U+041E_3D_\U+0410\U+0420\U+041C\U+0410\U+0422\U+0423\U+0420\U+0410
 10
-28.5
 20
1675.0
 30
2800.0
 11
-24.681724007856506
 21
1675.0
 31
2814.25
  0
LINE
  8
\U+0410\U+041A\U+0421\U+041E_3D_\U+0410\U+0420\U+041C\U+0410\U+0422\U+0423\U+0420\U+0410
 10
-28.5
 20
1825.0
 30
2800.0
 11
-24.681724007856506
 21
1825.0
 31
2814.25
  0
LINE
  8
\U+0410\U+041A\U+0421\U+041E_3D_\U+0410\U+0420\U+041C\U+0410\U+0422\U+0423\U+0420\U+0410
 10
-24.681724007856506
 20
1675.0
 30
2814.25
 11
-14.250000000000014
 21
1675.0
 31
2824.6817240078567
  0
LINE
  8
\U+0410\U+041A\U+0421\U+041E_3D_\U+0410\U+0420\U+041C\U+0410\U+0422\U+0423\U+0420\U+0410
 10
-24.681724007856506
 20
1825.0
 30
2814.25
 11
-14.250000000000014
 21
1825.0
 31
2824.6817240078567
  0
LINE
  8
\U+0410\U+041A\U+0421\U+041E_3D_\U+0410\U+0420\U+041C\U+0410\U+0422\U+0423\U+0420\U+0410
 10
-14.250000000000014
 20
1675.0
 30
2824.6817240078567
 11
-6.980486755139913e-15
 21
1675.0
 31
2828.5
  0
LINE
  8
\U+0410\U+041A\U+0421\U+041E_3D_\U+0410\U+0420\U+041C\U+0410\U+0422\U+0423\U+0420\U+0410
 10
-14.250000000000014
 20
1825.0
 30
2824.6817240078567
 11
-6.980486755139913e-15
 21
1825.0
 31
2828.5
  0
LINE
  8
\U+0410\U+041A\U+0421\U+041E_3D_\U+0410\U+0420\U+041C\U+0410\U+0422\U+0423\U+0420\U+0410
 10
-6.980486755139913e-15
 20
1675.0
 30
2828.5
 11
14.250000000000002
 21
1675.0
 31
2824.6817240078567
  0
LINE
  8
\U+0410\U+041A\U+0421\U+041E_3D_\U+0410\U+0420\U+041C\U+0410\U+0422\U+0423\U+0420\U+0410
 10
-6.980486755139913e-15
 20
1825.0
 30
2828.5
 11
14.250000000000002
 21
1825.0
 31
2824.6817240078567
  0
LINE
  8
\U+0410\U+041A\U+0421\U+041E_3D_\U+0410\U+0420\U+041C\U+0410\U+0422\U+0423\U+0420\U+0410
 10
14.250000000000002
 20
1675.0
 30
2824.6817240078567
 11
24.681724007856495
 21
1675.0
 31
2814.25
  0
LINE
  8
\U+0410\U+041A\U+0421\U+041E_3D_\U+0410\U+0420\U+041C\U+0410\U+0422\U+0423\U+0420\U+0410
 10
14.250000000000002
 20
1825.0
 30
2824.6817240078567
 11
24.681724007856495
 21
1825.0
 31
2814.25
  0
LINE
  8
\U+0410\U+041A\U+0421\U+041E_3D_\U+0410\U+0420\U+041C\U+0410\U+0422\U+0423\U+0420\U+0410
 10
24.681724007856495
 20
1675.0
 30
2814.25
 11
28.5
 21
1675.0
 31
2800.0
  0
LINE
  8
\U+0410\U+041A\U+0421\U+041E_3D_\U+0410\U+0420\U+041C\U+0410\U+0422\U+0423\U+0420\U+0410
 10
24.681724007856495
 20
1825.0
 30
2814.25
 11
28.5
 21
1825.0
 31
2800.0
  0
LINE
  8
\U+0410\U+041A\U+0421\U+041E_3D_\U+0410\U+0420\U+041C\U+0410\U+0422\U+0423\U+0420\U+0410
 10
28.5
 20
1675.0
 30
2800.0
 11
0.0
 21
1750.0
 31
2800.0
  0
LINE
  8
\U+0410\U+041A\U+0421\U+041E_3D_\U+0410\U+0420\U+041C\U+0410\U+0422\U+0423\U+0420\U+0410
 10
28.5
 20
1825.0
 30
2800.0
 11
0.0
 21
1750.0
 31
2800.0
  0
LINE
  8
\U+0410\U+041A\U+0421\U+041E_3D_\U+0410\U+0420\U+041C\U+0410\U+0422\U+0423\U+0420\U+0410
 10
24.681724007856502
 20
1675.0
 30
2785.75
 11
0.0
 21
1750.0
 31
2800.0
  0
LINE
  8
\U+0410\U+041A\U+0421\U+041E_3D_\U+0410\U+0420\U+041C\U+0410\U+0422\U+0423\U+0420\U+0410
 10
24.681724007856502
 20
1825.0
 30
2785.75
 11
0.0
 21
1750.0
 31
2800.0
  0
LINE
  8
\U+0410\U+041A\U+0421\U+041E_3D_\U+0410\U+0420\U+041C\U+0410\U+0422\U+0423\U+0420\U+0410
 10
14.250000000000005
 20
1675.0
 30
2775.3182759921433
 11
0.0
 21
1750.0
 31
2800.0
  0
LINE
  8
\U+0410\U+041A\U+0421\U+041E_3D_\U+0410\U+0420\U+041C\U+0410\U+0422\U+0423\U+0420\U+0410
 10
14.250000000000005
 20
1825.0
 30
2775.3182759921433
 11
0.0
 21
1750.0
 31
2800.0
  0
LINE
  8
\U+0410\U+041A\U+0421\U+041E_3D_\U+0410\U+0420\U+041C\U+0410\U+0422\U+0423\U+0420\U+0410
 10
3.4902433775699565e-15
 20
1675.0
 30
2771.5
 11
0.0
 21
1750.0
 31
2800.0
  0
LINE
  8
\U+0410\U+041A\U+0421\U+041E_3D_\U+0410\U+0420\U+041C\U+0410\U+0422\U+0423\U+0420\U+0410
 10
3.4902433775699565e-15
 20
1825.0
 30
2771.5
 11
0.0
 21
1750.0
 31
2800.0
  0
LINE
  8
\U+0410\U+041A\U+0421\U+041E_3D_\U+0410\U+0420\U+041C\U+0410\U+0422\U+0423\U+0420\U+0410
 10
-14.249999999999991
 20
1675.0
 30
2775.3182759921433
 11
0.0
 21
1750.0
 31
2800.0
  0
LINE
  8
\U+0410\U+041A\U+0421\U+041E_3D_\U+0410\U+0420\U+041C\U+0410\U+0422\U+0423\U+0420\U+0410
 10
-14.249999999999991
 20
1825.0
 30
2775.3182759921433
 11
0.0
 21
1750.0
 31
2800.0
  0
LINE
  8
\U+0410\U+041A\U+0421\U+041E_3D_\U+0410\U+0420\U+041C\U+0410\U+0422\U+0423\U+0420\U+0410
 10
-24.681724007856502
 20
1675.0
 30
2785.75
 11
0.0
 21
1750.0
 31
2800.0
  0
LINE
  8
\U+0410\U+041A\U+0421\U+041E_3D_\U+0410\U+0420\U+041C\U+0410\U+0422\U+0423\U+0420\U+0410
 10
-24.681724007856502
 20
1825.0
 30
2785.75
 11
0.0
 21
1750.0
 31
2800.0
  0
LINE
  8
\U+0410\U+041A\U+0421\U+041E_3D_\U+0410\U+0420\U+041C\U+0410\U+0422\U+0423\U+0420\U+0410
 10
-28.5
 20
1675.0
 30
2800.0
 11
0.0
 21
1750.0
 31
2800.0
  0
LINE
  8
\U+0410\U+041A\U+0421\U+041E_3D_\U+0410\U+0420\U+041C\U+0410\U+0422\U+0423\U+0420\U+0410
 10
-28.5
 20
1825.0
 30
2800.0
 11
0.0
 21
1750.0
 31
2800.0
  0
LINE
  8
\U+0410\U+041A\U+0421\U+041E_3D_\U+0410\U+0420\U+041C\U+0410\U+0422\U+0423\U+0420\U+0410
 10
-24.681724007856506
 20
1675.0
 30
2814.25
 11
0.0
 21
1750.0
 31
2800.0
  0
LINE
  8
\U+0410\U+041A\U+0421\U+041E_3D_\U+0410\U+0420\U+041C\U+0410\U+0422\U+0423\U+0420\U+0410
 10
-24.681724007856506
 20
1825.0
 30
2814.25
 11
0.0
 21
1750.0
 31
2800.0
  0
LINE
  8
\U+0410\U+041A\U+0421\U+041E_3D_\U+0410\U+0420\U+041C\U+0410\U+0422\U+0423\U+0420\U+0410
 10
-14.250000000000014
 20
1675.0
 30
2824.6817240078567
 11
0.0
 21
1750.0
 31
2800.0
  0
LINE
  8
\U+0410\U+041A\U+0421\U+041E_3D_\U+0410\U+0420\U+041C\U+0410\U+0422\U+0423\U+0420\U+0410
 10
-14.250000000000014
 20
1825.0
 30
2824.6817240078567
 11
0.0
 21
1750.0
 31
2800.0
  0
LINE
  8
\U+0410\U+041A\U+0421\U+041E_3D_\U+0410\U+0420\U+041C\U+0410\U+0422\U+0423\U+0420\U+0410
 10
-6.980486755139913e-15
 20
1675.0
 30
2828.5
 11
0.0
 21
1750.0
 31
2800.0
  0
LINE
  8
\U+0410\U+041A\U+0421\U+041E_3D_\U+0410\U+0420\U+041C\U+0410\U+0422\U+0423\U+0420\U+0410
 10
-6.980486755139913e-15
 20
1825.0
 30
2828.5
 11
0.0
 21
1750.0
 31
2800.0
  0
LINE
  8
\U+0410\U+041A\U+0421\U+041E_3D_\U+0410\U+0420\U+041C\U+0410\U+0422\U+0423\U+0420\U+0410
 10
14.250000000000002
 20
1675.0
 30
2824.6817240078567
 11
0.0
 21
1750.0
 31
2800.0
  0
LINE
  8
\U+0410\U+041A\U+0421\U+041E_3D_\U+0410\U+0420\U+041C\U+0410\U+0422\U+0423\U+0420\U+0410
 10
14.250000000000002
 20
1825.0
 30
2824.6817240078567
 11
0.0
 21
1750.0
 31
2800.0
  0
LINE
  8
\U+0410\U+041A\U+0421\U+041E_3D_\U+0410\U+0420\U+041C\U+0410\U+0422\U+0423\U+0420\U+0410
 10
24.681724007856495
 20
1675.0
 30
2814.25
 11
0.0
 21
1750.0
 31
2800.0
  0
LINE
  8
\U+0410\U+041A\U+0421\U+041E_3D_\U+0410\U+0420\U+041C\U+0410\U+0422\U+0423\U+0420\U+0410
 10
24.681724007856495
 20
1825.0
 30
2814.25
 11
0.0
 21
1750.0
 31
2800.0
  0
LINE
  8
\U+0410\U+041A\U+0421\U+041E_3D_\U+0410\U+0420\U+041C\U+0410\U+0422\U+0423\U+0420\U+0410
 10
0.0
 20
1750.0
 30
2800.0
 11
62.7
 21
1750.0
 31
2800.0
  0
LINE
  8
\U+0410\U+041A\U+0421\U+041E_3D_\U+0410\U+0420\U+041C\U+0410\U+0422\U+0423\U+0420\U+0410
 10
62.7
 20
1789.9
 30
2800.0
 11
62.7
 21
1784.554413610999
 31
2780.05
  0
LINE
  8
\U+0410\U+041A\U+0421\U+041E_3D_\U+0410\U+0420\U+041C\U+0410\U+0422\U+0423\U+0420\U+0410
 10
62.7
 20
1784.554413610999
 30
2780.05
 11
62.7
 21
1769.95
 31
2765.4455863890007
  0
LINE
  8
\U+0410\U+041A\U+0421\U+041E_3D_\U+0410\U+0420\U+041C\U+0410\U+0422\U+0423\U+0420\U+0410
 10
62.7
 20
1769.95
 30
2765.4455863890007
 11
62.7
 21
1750.0
 31
2760.1
  0
LINE
  8
\U+0410\U+041A\U+0421\U+041E_3D_\U+0410\U+0420\U+041C\U+0410\U+0422\U+0423\U+0420\U+0410
 10
62.7
 20
1750.0
 30
2760.1
 11
62.7
 21
1730.05
 31
2765.4455863890007
  0
LINE
  8
\U+0410\U+041A\U+0421\U+041E_3D_\U+0410\U+0420\U+041C\U+0410\U+0422\U+0423\U+0420\U+0410
 10
62.7
 20
1730.05
 30
2765.4455863890007
 11
62.7
 21
1715.445586389001
 31
2780.05
  0
LINE
  8
\U+0410\U+041A\U+0421\U+041E_3D_\U+0410\U+0420\U+041C\U+0410\U+0422\U+0423\U+0420\U+0410
 10
62.7
 20
1715.445586389001
 30
2780.05
 11
62.7
 21
1710.1
 31
2800.0
  0
LINE
  8
\U+0410\U+041A\U+0421\U+041E_3D_\U+0410\U+0420\U+041C\U+0410\U+0422\U+0423\U+0420\U+0410
 10
62.7
 20
1710.1
 30
2800.0
 11
62.7
 21
1715.445586389001
 31
2819.95
  0
LINE
  8
\U+0410\U+041A\U+0421\U+041E_3D_\U+0410\U+0420\U+041C\U+0410\U+0422\U+0423\U+0420\U+0410
 10
62.7
 20
1715.445586389001
 30
2819.95
 11
62.7
 21
1730.05
 31
2834.5544136109993
  0
LINE
  8
\U+0410\U+041A\U+0421\U+041E_3D_\U+0410\U+0420\U+041C\U+0410\U+0422\U+0423\U+0420\U+0410
 10
62.7
 20
1730.05
 30
2834.5544136109993
 11
62.7
 21
1750.0
 31
2839.9
  0
LINE
  8
\U+0410\U+041A\U+0421\U+041E_3D_\U+0410\U+0420\U+041C\U+0410\U+0422\U+0423\U+0420\U+0410
 10
62.7
 20
1750.0
 30
2839.9
 11
62.7
 21
1769.95
 31
2834.5544136109993
  0
LINE
  8
\U+0410\U+041A\U+0421\U+041E_3D_\U+0410\U+0420\U+041C\U+0410\U+0422\U+0423\U+0420\U+0410
 10
62.7
 20
1769.95
 30
2834.5544136109993
 11
62.7
 21
1784.554413610999
 31
2819.95
  0
LINE
  8
\U+0410\U+041A\U+0421\U+041E_3D_\U+0410\U+0420\U+041C\U+0410\U+0422\U+0423\U+0420\U+0410
 10
62.7
 20
1784.554413610999
 30
2819.95
 11
62.7
 21
1789.9
 31
2800.0
  0
LINE
  8
\U+0410\U+041A\U+0421\U+041E_3D_\U+0410\U+0420\U+041C\U+0410\U+0422\U+0423\U+0420\U+0410
 10
62.7
 20
1750.0
 30
2800.0
 11
62.7
 21
1789.9
 31
2800.0
  0
LINE
  8
\U+0410\U+041A\U+0421\U+041E_3D_\U+0410\U+0420\U+041C\U+0410\U+0422\U+0423\U+0420\U+0410
 10
62.7
 20
1750.0
 30
2800.0
 11
62.7
 21
1750.0
 31
2760.1
  0
LINE
  8
\U+0410\U+041A\U+0421\U+041E_3D_\U+0410\U+0420\U+041C\U+0410\U+0422\U+0423\U+0420\U+0410
 10
62.7
 20
1750.0
 30
2800.0
 11
62.7
 21
1710.1
 31
2800.0
  0
LINE
  8
\U+0410\U+041A\U+0421\U+041E_3D_\U+0410\U+0420\U+041C\U+0410\U+0422\U+0423\U+0420\U+0410
 10
62.7
 20
1750.0
 30
2800.0
 11
62.7
 21
1750.0
 31
2839.9
  0
TEXT
  8
\U+0410\U+041A\U+0421\U+041E_\U+0410\U+0420\U+041C\U+0410\U+0422\U+0423\U+0420\U+0410
 10
0.0
 20
1750.0
 30
2900.0
 40
70.0
  1
\U+0417\U+0430\U+0434\U+0432\U+0438\U+0436\U+043A\U+0430 \U+043A\U+043B\U+0438\U+043D\U+043E\U+0432\U+0430\U+044F \U+0414\U+044350
 72
0
 11
0.0
 21
1750.0
 31
2900.0
  0
TEXT
  8
\U+0410\U+041A\U+0421\U+041E_\U+041E\U+0422\U+041C\U+0415\U+0422\U+041A\U+0418
 10
0.0
 20
0.0
 30
30.0
 40
50.0
  1
0.000
 72
0
 11
0.0
 21
0.0
 31
30.0
  0
TEXT
  8
\U+0410\U+041A\U+0421\U+041E_\U+041E\U+0422\U+041C\U+0415\U+0422\U+041A\U+0418
 10
0.0
 20
0.0
 30
2830.0
 40
50.0
  1
+2.800
 72
0
 11
0.0
 21
0.0
 31
2830.0
  0
TEXT
  8
\U+0410\U+041A\U+0421\U+041E_\U+041E\U+0422\U+041C\U+0415\U+0422\U+041A\U+0418
 10
0.0
 20
3500.0
 30
2830.0
 40
50.0
  1
+2.800
 72
0
 11
0.0
 21
3500.0
 31
2830.0
  0
TEXT
  8
\U+0410\U+041A\U+0421\U+041E_\U+041E\U+0422\U+041C\U+0415\U+0422\U+041A\U+0418
 10
2000.0
 20
3500.0
 30
2830.0
 40
50.0
  1
+2.800
 72
0
 11
2000.0
 21
3500.0
 31
2830.0
  0
TEXT
  8
\U+0410\U+041A\U+0421\U+041E_\U+041E\U+0422\U+041C\U+0415\U+0422\U+041A\U+0418
 10
2000.0
 20
3500.0
 30
630.0
 40
50.0
  1
+0.600
 72
0
 11
2000.0
 21
3500.0
 31
630.0
  0
LINE
  8
\U+0410\U+041A\U+0421\U+041E_\U+041E\U+0421\U+0418
 10
-500.0
 20
0.0
 30
0.0
 11
2500.0
 21
0.0
 31
0.0
  0
POINT
  8
\U+0410\U+041A\U+0421\U+041E_\U+041E\U+0421\U+0418
 10
-500.0
 20
0.0
 30
0.0
  0
TEXT
  8
\U+0410\U+041A\U+0421\U+041E_\U+041E\U+0421\U+0418_\U+0422\U+0415\U+041A\U+0421\U+0422
 10
-500.0
 20
0.0
 30
50.0
 40
80.0
  1
1
 72
0
 11
-500.0
 21
0.0
 31
50.0
  0
LINE
  8
\U+0410\U+041A\U+0421\U+041E_\U+041E\U+0421\U+0418
 10
0.0
 20
-500.0
 30
0.0
 11
0.0
 21
4000.0
 31
0.0
  0
POINT
  8
\U+0410\U+041A\U+0421\U+041E_\U+041E\U+0421\U+0418
 10
0.0
 20
-500.0
 30
0.0
  0
TEXT
  8
\U+0410\U+041A\U+0421\U+041E_\U+041E\U+0421\U+0418_\U+0422\U+0415\U+041A\U+0421\U+0422
 10
0.0
 20
-500.0
 30
50.0
 40
80.0
  1
\U+0410
 72
0
 11
0.0
 21
-500.0
 31
50.0
  0
LINE
  8
\U+0410\U+041A\U+0421\U+041E_\U+0412\U+0421\U+041F\U+041E\U+041C\U+041E\U+0413\U+0410\U+0422\U+0415\U+041B\U+042C\U+041D\U+042B\U+0415
 10
500.0
 20
-500.0
 30
0.0
 11
500.0
 21
4000.0
 31
0.0
  0
LINE
  8
\U+0410\U+041A\U+0421\U+041E_\U+0420\U+0410\U+0417\U+041C\U+0415\U+0420\U+042B
 10
0.0
 20
0.0
 30
2800.0
 11
0.0
 21
3500.0
 31
2800.0
  0
TEXT
  8
\U+0410\U+041A\U+0421\U+041E_\U+0420\U+0410\U+0417\U+041C\U+0415\U+0420\U+042B_\U+0422\U+0415\U+041A\U+0421\U+0422
 10
0.0
 20
1750.0
 30
2850.0
 40
60.0
  1
3500
 72
1
 11
0.0
 21
1750.0
 31
2850.0
  0
INSERT
  8
\U+0410\U+041A\U+0421\U+041E_\U+0412\U+042B\U+041D\U+041E\U+0421\U+041A\U+0418
  2
CALLOUT_SHELF_1
 10
0.000
 20
1362.500
 30
0.000
210
0.707107
220
-0.707107
230
0.000000
  0
ENDSEC
  0
EOF
