  0
SECTION
  2
HEADER
  9
$ACADVER
  1
AC1009
  0
ENDSEC
  0
SECTION
  2
TABLES
  0
TABLE
  2
LTYPE
 70
2
  0
LTYPE
  2
CONTINUOUS
 70
0
  3
Solid line
 72
65
 73
0
 40
0.0
  0
LTYPE
  2
DASHDOT
 70
0
  3
Dash dot
 72
65
 73
4
 40
19.05
 49
12.7
 49
-3.175
 49
0.0
 49
-3.175
  0
ENDTAB
  0
TABLE
  2
STYLE
 70
1
  0
STYLE
  2
STANDARD
 70
0
 40
0.0
 41
1.0
 50
0.0
 71
0
 42
2.5
  3
arial.ttf
  4

  0
ENDTAB
  0
TABLE
  2
LAYER
 70
48
  0
LAYER
  2
0
 70
0
 62
7
  6
CONTINUOUS
  0
LAYER
  2
\U+0410\U+041A\U+0421\U+041E_\U+0422\U+0420\U+0423\U+0411\U+042B
 70
0
 62
7
  6
CONTINUOUS
  0
LAYER
  2
\U+0410\U+041A\U+0421\U+041E_\U+041E\U+0422\U+041C\U+0415\U+0422\U+041A\U+0418
 70
0
 62
2
  6
CONTINUOUS
  0
LAYER
  2
\U+0410\U+041A\U+0421\U+041E_\U+041E\U+0422\U+041C\U+0415\U+0422\U+041A\U+0418_\U+0422\U+0415\U+041A\U+0421\U+0422
 70
0
 62
7
  6
CONTINUOUS
  0
LAYER
  2
\U+0410\U+041A\U+0421\U+041E_\U+0421\U+0412\U+0410\U+0420\U+041A\U+0410
 70
0
 62
1
  6
CONTINUOUS
  0
LAYER
  2
\U+0410\U+041A\U+0421\U+041E_\U+0421\U+0412\U+0410\U+0420\U+041A\U+0410_\U+0412\U+042B\U+041D\U+041E\U+0421\U+041A\U+0418
 70
0
 62
1
  6
CONTINUOUS
  0
LAYER
  2
\U+0410\U+041A\U+0421\U+041E_\U+0421\U+0412\U+0410\U+0420\U+041A\U+0410_\U+0422\U+0415\U+041A\U+0421\U+0422
 70
0
 62
7
  6
CONTINUOUS
  0
LAYER
  2
\U+0410\U+041A\U+0421\U+041E_\U+0410\U+0420\U+041C\U+0410\U+0422\U+0423\U+0420\U+0410
 70
0
 62
3
  6
CONTINUOUS
  0
LAYER
  2
\U+0410\U+041A\U+0421\U+041E_\U+0414\U+0418\U+0410\U+041C\U+0415\U+0422\U+0420\U+042B
 70
0
 62
4
  6
CONTINUOUS
  0
LAYER
  2
\U+0410\U+041A\U+0421\U+041E_\U+0423\U+041A\U+041B\U+041E\U+041D\U+042B
 70
0
 62
30
  6
CONTINUOUS
  0
LAYER
  2
\U+0410\U+041A\U+0421\U+041E_\U+041F\U+0415\U+0420\U+0415\U+0425\U+041E\U+0414\U+042B
 70
0
 62
5
  6
CONTINUOUS
  0
LAYER
  2
\U+0410\U+041A\U+0421\U+041E_\U+041F\U+0415\U+0420\U+0415\U+0425\U+041E\U+0414\U+042B_\U+0422\U+0415\U+041A\U+0421\U+0422
 70
0
 62
7
  6
CONTINUOUS
  0
LAYER
  2
\U+0410\U+041A\U+0421\U+041E_\U+0424\U+041B\U+0410\U+041D\U+0426\U+042B
 70
0
 62
6
  6
CONTINUOUS
  0
LAYER
  2
\U+0410\U+041A\U+0421\U+041E_\U+0424\U+041B\U+0410\U+041D\U+0426\U+042B_\U+0422\U+0415\U+041A\U+0421\U+0422
 70
0
 62
7
  6
CONTINUOUS
  0
LAYER
  2
\U+0410\U+041A\U+0421\U+041E_\U+0422\U+0420\U+041E\U+0419\U+041D\U+0418\U+041A\U+0418
 70
0
 62
5
  6
CONTINUOUS
  0
LAYER
  2
\U+0410\U+041A\U+0421\U+041E_\U+0422\U+0420\U+041E\U+0419\U+041D\U+0418\U+041A\U+0418_\U+0422\U+0415\U+041A\U+0421\U+0422
 70
0
 62
7
  6
CONTINUOUS
  0
LAYER
  2
\U+0410\U+041A\U+0421\U+041E_\U+0412\U+0420\U+0415\U+0417\U+041A\U+0418
 70
0
 62
1
  6
CONTINUOUS
  0
LAYER
  2
\U+0410\U+041A\U+0421\U+041E_\U+041E\U+0421\U+0418
 70
0
 62
8
  6
DASHDOT
  0
LAYER
  2
\U+0410\U+041A\U+0421\U+041E_\U+041E\U+0421\U+0418_\U+0422\U+0420\U+0410\U+0421\U+0421\U+042B
 70
0
 62
4
  6
DASHDOT
  0
LAYER
  2
\U+0410\U+041A\U+0421\U+041E_\U+041E\U+0421\U+0418_\U+0422\U+0415\U+041A\U+0421\U+0422
 70
0
 62
7
  6
CONTINUOUS
  0
LAYER
  2
\U+0410\U+041A\U+0421\U+041E_\U+0412\U+0421\U+041F\U+041E\U+041C\U+041E\U+0413\U+0410\U+0422\U+0415\U+041B\U+042C\U+041D\U+042B\U+0415
 70
0
 62
4
  6
DASHDOT
  0
LAYER
  2
\U+0410\U+041A\U+0421\U+041E_\U+0420\U+0410\U+0417\U+041C\U+0415\U+0420\U+042B
 70
0
 62
3
  6
CONTINUOUS
  0
LAYER
  2
\U+0410\U+041A\U+0421\U+041E_\U+0420\U+0410\U+0417\U+041C\U+0415\U+0420\U+042B_\U+0422\U+0415\U+041A\U+0421\U+0422
 70
0
 62
7
  6
CONTINUOUS
  0
LAYER
  2
\U+0410\U+041A\U+0421\U+041E_\U+0412\U+042B\U+041D\U+041E\U+0421\U+041A\U+0418
 70
0
 62
7
  6
CONTINUOUS
  0
LAYER
  2
\U+0410\U+041A\U+0421\U+041E_\U+0412\U+042B\U+041D\U+041E\U+0421\U+041A\U+0418_\U+0422\U+0415\U+041A\U+0421\U+0422
 70
0
 62
4
  6
CONTINUOUS
  0
LAYER
  2
\U+0410\U+041A\U+0421\U+041E_3D_\U+0410\U+0420\U+041C\U+0410\U+0422\U+0423\U+0420\U+0410
 70
0
 62
1
  6
CONTINUOUS
  0
LAYER
  2
\U+0410\U+041A\U+0421\U+041E_3D_\U+0421\U+0412\U+0410\U+0420\U+041D\U+042B\U+0415_\U+0421\U+0422\U+042B\U+041A\U+0418
 70
0
 62
3
  6
CONTINUOUS
  0
LAYER
  2
\U+0410\U+041A\U+0421\U+041E_3D_\U+041E\U+041F\U+041E\U+0420\U+042B
 70
0
 62
6
  6
CONTINUOUS
  0
LAYER
  2
\U+0410\U+041A\U+0421\U+041E_\U+041E\U+041F\U+041E\U+0420\U+042B_\U+0422\U+0415\U+041A\U+0421\U+0422
 70
0
 62
7
  6
CONTINUOUS
  0
LAYER
  2
\U+0410\U+041A\U+0421\U+041E_3D_\U+0424\U+041B\U+0410\U+041D\U+0426\U+042B
 70
0
 62
2
  6
CONTINUOUS
  0
LAYER
  2
\U+0410\U+041A\U+0421\U+041E_3D_\U+041F\U+0415\U+0420\U+0415\U+0425\U+041E\U+0414\U+042B
 70
0
 62
5
  6
CONTINUOUS
  0
LAYER
  2
\U+0410\U+041A\U+0421\U+041E_3D_\U+0417\U+0410\U+0413\U+041B\U+0423\U+0428\U+041A\U+0418
 70
0
 62
7
  6
CONTINUOUS
  0
LAYER
  2
\U+0410\U+041A\U+0421\U+041E_\U+0417\U+0410\U+0413\U+041B\U+0423\U+0428\U+041A\U+0418
 70
0
 62
7
  6
CONTINUOUS
  0
LAYER
  2
\U+0410\U+041A\U+0421\U+041E_\U+0417\U+0410\U+0413\U+041B\U+0423\U+0428\U+041A\U+0418_\U+0422\U+0415\U+041A\U+0421\U+0422
 70
0
 62
7
  6
CONTINUOUS
  0
LAYER
  2
\U+0410\U+041A\U+0421\U+041E_\U+041E\U+0411\U+041E\U+0420\U+0423\U+0414\U+041E\U+0412\U+0410\U+041D\U+0418\U+0415
 70
0
 62
4
  6
CONTINUOUS
  0
LAYER
  2
\U+0410\U+041A\U+0421\U+041E_\U+041E\U+0411\U+041E\U+0420\U+0423\U+0414\U+041E\U+0412\U+0410\U+041D\U+0418\U+0415_\U+0422\U+0415\U+041A\U+0421\U+0422
 70
0
 62
7
  6
CONTINUOUS
  0
LAYER
  2
\U+0410\U+041A\U+0421\U+041E_\U+041B\U+0418\U+0421\U+0422_\U+0420\U+0410\U+041C\U+041A\U+0410
 70
0
 62
7
  6
CONTINUOUS
  0
LAYER
  2
\U+0410\U+041A\U+0421\U+041E_\U+041B\U+0418\U+0421\U+0422_\U+0428\U+0422\U+0410\U+041C\U+041F
 70
0
 62
7
  6
CONTINUOUS
  0
LAYER
  2
\U+0410\U+041A\U+0421\U+041E_\U+041B\U+0418\U+0421\U+0422_\U+0422\U+0422
 70
0
 62
7
  6
CONTINUOUS
  0
LAYER
  2
\U+0410\U+041A\U+0421\U+041E_\U+041B\U+0418\U+0421\U+0422_\U+0412\U+042D
 70
0
 62
4
  6
CONTINUOUS
  0
LAYER
  2
\U+0410\U+041A\U+0421\U+041E_\U+04121
 70
0
 62
5
  6
CONTINUOUS
  0
LAYER
  2
\U+0410\U+041A\U+0421\U+041E_\U+04223
 70
0
 62
1
  6
CONTINUOUS
  0
LAYER
  2
\U+0410\U+041A\U+0421\U+041E_\U+04224
 70
0
 62
30
  6
CONTINUOUS
  0
LAYER
  2
\U+0410\U+041A\U+0421\U+041E_\U+041A1
 70
0
 62
130
  6
CONTINUOUS
  0
LAYER
  2
\U+0410\U+041A\U+0421\U+041E_\U+041E1
 70
0
 62
6
  6
CONTINUOUS
  0
LAYER
  2
\U+0410\U+041A\U+0421\U+041E_\U+041E2
 70
0
 62
4
  6
CONTINUOUS
  0
LAYER
  2
\U+0410\U+041A\U+0421\U+041E_\U+0422\U+0425
 70
0
 62
3
  6
CONTINUOUS
  0
LAYER
  2
\U+0410\U+041A\U+0421\U+041E_\U+0422\U+0421
 70
0
 62
1
  6
CONTINUOUS
  0
ENDTAB
  0
ENDSEC
  0
SECTION
  2
BLOCKS
  0
ENDSEC
  0
SECTION
  2
ENTITIES
  0
LINE
  8
\U+0410\U+041A\U+0421\U+041E_\U+041E\U+0421\U+0418_\U+0422\U+0420\U+0410\U+0421\U+0421\U+042B
 10
0.0
 20
0.0
 30
0.0
 11
0.0
 21
2800.0
 31
0.0
  0
LINE
  8
\U+0410\U+041A\U+0421\U+041E_\U+041E\U+0421\U+0418_\U+0422\U+0420\U+0410\U+0421\U+0421\U+042B
 10
0.0
 20
2800.0
 30
0.0
 11
3500.0
 21
2800.0
 31
0.0
  0
LINE
  8
\U+0410\U+041A\U+0421\U+041E_\U+041E\U+0421\U+0418_\U+0422\U+0420\U+0410\U+0421\U+0421\U+042B
 10
2792.89321882
 20
2092.89321882
 30
0.0
 11
2792.89321882
 21
-107.10678117999998
 31
0.0
  0
LINE
  8
\U+0410\U+041A\U+0421\U+041E_\U+041E\U+0421\U+0418_\U+0422\U+0420\U+0410\U+0421\U+0421\U+042B
 10
3500.0
 20
2800.0
 30
0.0
 11
3146.44660941
 21
2446.44660941
 31
0.0
  0
LINE
  8
\U+0410\U+041A\U+0421\U+041E_\U+041E\U+0421\U+0418_\U+0422\U+0420\U+0410\U+0421\U+0421\U+042B
 10
3146.44660941
 20
2446.44660941
 30
0.0
 11
2792.89321882
 21
2092.89321882
 31
0.0
  0
LINE
  8
\U+0410\U+041A\U+0421\U+041E_\U+04121
 10
0.0
 20
0.0
 30
0.0
 11
0.0
 21
2680.0
 31
0.0
  0
LINE
  8
\U+0410\U+041A\U+0421\U+041E_\U+04121
 10
119.99999999999999
 20
2800.0
 30
0.0
 11
964.9999999999999
 21
2800.0
 31
0.0
  0
LINE
  8
\U+0410\U+041A\U+0421\U+041E_\U+04121
 10
1135.0
 20
2800.0
 30
0.0
 11
2421.5
 21
2800.0
 31
0.0
  0
LINE
  8
\U+0410\U+041A\U+0421\U+041E_\U+04121
 10
2478.4999999999995
 20
2800.0
 30
0.0
 11
3380.0
 21
2800.0
 31
0.0
  0
LINE
  8
\U+0410\U+041A\U+0421\U+041E_\U+04121
 10
2792.89321882
 20
2017.8932188200001
 30
0.0
 11
2792.89321882
 21
1042.8932188200001
 31
0.0
  0
LINE
  8
\U+0410\U+041A\U+0421\U+041E_\U+04121
 10
2792.89321882
 20
942.89321882
 30
0.0
 11
2792.89321882
 21
-107.10678117999998
 31
0.0
  0
LINE
  8
\U+0410\U+041A\U+0421\U+041E_\U+04121
 10
3457.5735931292
 20
2757.5735931292
 30
0.0
 11
3160.5887450336
 21
2460.5887450336
 31
0.0
  0
LINE
  8
\U+0410\U+041A\U+0421\U+041E_\U+04121
 10
3132.3044737864
 20
2432.3044737864
 30
0.0
 11
2819.40972311425
 21
2119.40972311425
 31
0.0
  0
LINE
  8
\U+0410\U+041A\U+0421\U+041E_\U+0410\U+0420\U+041C\U+0410\U+0422\U+0423\U+0420\U+0410
 10
996.0
 20
2773.0
 30
0.0
 11
1050.0
 21
2800.0
 31
0.0
  0
LINE
  8
\U+0410\U+041A\U+0421\U+041E_\U+0410\U+0420\U+041C\U+0410\U+0422\U+0423\U+0420\U+0410
 10
1050.0
 20
2800.0
 30
0.0
 11
996.0
 21
2827.0
 31
0.0
  0
LINE
  8
\U+0410\U+041A\U+0421\U+041E_\U+0410\U+0420\U+041C\U+0410\U+0422\U+0423\U+0420\U+0410
 10
996.0
 20
2827.0
 30
0.0
 11
996.0
 21
2773.0
 31
0.0
  0
LINE
  8
\U+0410\U+041A\U+0421\U+041E_\U+0410\U+0420\U+041C\U+0410\U+0422\U+0423\U+0420\U+0410
 10
1050.0
 20
2800.0
 30
0.0
 11
1104.0
 21
2773.0
 31
0.0
  0
LINE
  8
\U+0410\U+041A\U+0421\U+041E_\U+0410\U+0420\U+041C\U+0410\U+0422\U+0423\U+0420\U+0410
 10
1104.0
 20
2773.0
 30
0.0
 11
1104.0
 21
2827.0
 31
0.0
  0
LINE
  8
\U+0410\U+041A\U+0421\U+041E_\U+0410\U+0420\U+041C\U+0410\U+0422\U+0423\U+0420\U+0410
 10
1104.0
 20
2827.0
 30
0.0
 11
1050.0
 21
2800.0
 31
0.0
  0
LINE
  8
\U+0410\U+041A\U+0421\U+041E_\U+0410\U+0420\U+041C\U+0410\U+0422\U+0423\U+0420\U+0410
 10
1050.0
 20
2800.0
 30
0.0
 11
1050.0
 21
2756.8
 31
0.0
  0
CIRCLE
  8
\U+0410\U+041A\U+0421\U+041E_\U+0410\U+0420\U+041C\U+0410\U+0422\U+0423\U+0420\U+0410
 10
1050.0
 20
2756.8
 30
0.0
 40
18.9
  0
LINE
  8
\U+0410\U+041A\U+0421\U+041E_\U+0410\U+0420\U+041C\U+0410\U+0422\U+0423\U+0420\U+0410
 10
2396.0
 20
2773.0
 30
0.0
 11
2450.0
 21
2800.0
 31
0.0
  0
LINE
  8
\U+0410\U+041A\U+0421\U+041E_\U+0410\U+0420\U+041C\U+0410\U+0422\U+0423\U+0420\U+0410
 10
2450.0
 20
2800.0
 30
0.0
 11
2396.0
 21
2827.0
 31
0.0
  0
LINE
  8
\U+0410\U+041A\U+0421\U+041E_\U+0410\U+0420\U+041C\U+0410\U+0422\U+0423\U+0420\U+0410
 10
2396.0
 20
2827.0
 30
0.0
 11
2396.0
 21
2773.0
 31
0.0
  0
LINE
  8
\U+0410\U+041A\U+0421\U+041E_\U+0410\U+0420\U+041C\U+0410\U+0422\U+0423\U+0420\U+0410
 10
2450.0
 20
2800.0
 30
0.0
 11
2504.0
 21
2773.0
 31
0.0
  0
LINE
  8
\U+0410\U+041A\U+0421\U+041E_\U+0410\U+0420\U+041C\U+0410\U+0422\U+0423\U+0420\U+0410
 10
2504.0
 20
2773.0
 30
0.0
 11
2504.0
 21
2827.0
 31
0.0
  0
LINE
  8
\U+0410\U+041A\U+0421\U+041E_\U+0410\U+0420\U+041C\U+0410\U+0422\U+0423\U+0420\U+0410
 10
2504.0
 20
2827.0
 30
0.0
 11
2450.0
 21
2800.0
 31
0.0
  0
LINE
  8
\U+0410\U+041A\U+0421\U+041E_\U+0410\U+0420\U+041C\U+0410\U+0422\U+0423\U+0420\U+0410
 10
2450.0
 20
2767.6
 30
0.0
 11
2450.0
 21
2832.4
 31
0.0
  0
LINE
  8
\U+0410\U+041A\U+0421\U+041E_\U+0410\U+0420\U+041C\U+0410\U+0422\U+0423\U+0420\U+0410
 10
2765.89321882
 20
1046.8932188200001
 30
0.0
 11
2792.89321882
 21
992.8932188200001
 31
0.0
  0
LINE
  8
\U+0410\U+041A\U+0421\U+041E_\U+0410\U+0420\U+041C\U+0410\U+0422\U+0423\U+0420\U+0410
 10
2792.89321882
 20
992.8932188200001
 30
0.0
 11
2819.89321882
 21
1046.8932188200001
 31
0.0
  0
LINE
  8
\U+0410\U+041A\U+0421\U+041E_\U+0410\U+0420\U+041C\U+0410\U+0422\U+0423\U+0420\U+0410
 10
2819.89321882
 20
1046.8932188200001
 30
0.0
 11
2765.89321882
 21
1046.8932188200001
 31
0.0
  0
LINE
  8
\U+0410\U+041A\U+0421\U+041E_\U+0410\U+0420\U+041C\U+0410\U+0422\U+0423\U+0420\U+0410
 10
2792.89321882
 20
992.8932188200001
 30
0.0
 11
2765.89321882
 21
938.8932188200001
 31
0.0
  0
LINE
  8
\U+0410\U+041A\U+0421\U+041E_\U+0410\U+0420\U+041C\U+0410\U+0422\U+0423\U+0420\U+0410
 10
2765.89321882
 20
938.8932188200001
 30
0.0
 11
2819.89321882
 21
938.8932188200001
 31
0.0
  0
LINE
  8
\U+0410\U+041A\U+0421\U+041E_\U+0410\U+0420\U+041C\U+0410\U+0422\U+0423\U+0420\U+0410
 10
2819.89321882
 20
938.8932188200001
 30
0.0
 11
2792.89321882
 21
992.8932188200001
 31
0.0
  0
LINE
  8
\U+0410\U+041A\U+0421\U+041E_\U+041E\U+0422\U+041C\U+0415\U+0422\U+041A\U+0418
 10
0.0
 20
0.0
 30
0.0
 11
-24.5
 21
35.0
 31
0.0
  0
LINE
  8
\U+0410\U+041A\U+0421\U+041E_\U+041E\U+0422\U+041C\U+0415\U+0422\U+041A\U+0418
 10
-24.5
 20
35.0
 30
0.0
 11
24.5
 21
35.0
 31
0.0
  0
LINE
  8
\U+0410\U+041A\U+0421\U+041E_\U+041E\U+0422\U+041C\U+0415\U+0422\U+041A\U+0418
 10
24.5
 20
35.0
 30
0.0
 11
0.0
 21
0.0
 31
0.0
  0
LINE
  8
\U+0410\U+041A\U+0421\U+041E_\U+041E\U+0422\U+041C\U+0415\U+0422\U+041A\U+0418
 10
0.0
 20
35.0
 30
0.0
 11
0.0
 21
50.0
 31
0.0
  0
LINE
  8
\U+0410\U+041A\U+0421\U+041E_\U+041E\U+0422\U+041C\U+0415\U+0422\U+041A\U+0418
 10
0.0
 20
50.0
 30
0.0
 11
160.0
 21
50.0
 31
0.0
  0
TEXT
  8
\U+0410\U+041A\U+0421\U+041E_\U+041E\U+0422\U+041C\U+0415\U+0422\U+041A\U+0418_\U+0422\U+0415\U+041A\U+0421\U+0422
 10
15.0
 20
60.0
 30
0.0
 40
45.0
  1
0.000
 72
0
 11
15.0
 21
60.0
 31
0.0
  0
LINE
  8
\U+0410\U+041A\U+0421\U+041E_\U+041E\U+0422\U+041C\U+0415\U+0422\U+041A\U+0418
 10
0.0
 20
2800.0
 30
0.0
 11
-24.5
 21
2835.0
 31
0.0
  0
LINE
  8
\U+0410\U+041A\U+0421\U+041E_\U+041E\U+0422\U+041C\U+0415\U+0422\U+041A\U+0418
 10
-24.5
 20
2835.0
 30
0.0
 11
24.5
 21
2835.0
 31
0.0
  0
LINE
  8
\U+0410\U+041A\U+0421\U+041E_\U+041E\U+0422\U+041C\U+0415\U+0422\U+041A\U+0418
 10
24.5
 20
2835.0
 30
0.0
 11
0.0
 21
2800.0
 31
0.0
  0
LINE
  8
\U+0410\U+041A\U+0421\U+041E_\U+041E\U+0422\U+041C\U+0415\U+0422\U+041A\U+0418
 10
0.0
 20
2835.0
 30
0.0
 11
0.0
 21
2850.0
 31
0.0
  0
LINE
  8
\U+0410\U+041A\U+0421\U+041E_\U+041E\U+0422\U+041C\U+0415\U+0422\U+041A\U+0418
 10
0.0
 20
2850.0
 30
0.0
 11
160.0
 21
2850.0
 31
0.0
  0
TEXT
  8
\U+0410\U+041A\U+0421\U+041E_\U+041E\U+0422\U+041C\U+0415\U+0422\U+041A\U+0418_\U+0422\U+0415\U+041A\U+0421\U+0422
 10
15.0
 20
2860.0
 30
0.0
 40
45.0
  1
+2.800
 72
0
 11
15.0
 21
2860.0
 31
0.0
  0
LINE
  8
\U+0410\U+041A\U+0421\U+041E_\U+041E\U+0422\U+041C\U+0415\U+0422\U+041A\U+0418
 10
3500.0
 20
2800.0
 30
0.0
 11
3475.5
 21
2835.0
 31
0.0
  0
LINE
  8
\U+0410\U+041A\U+0421\U+041E_\U+041E\U+0422\U+041C\U+0415\U+0422\U+041A\U+0418
 10
3475.5
 20
2835.0
 30
0.0
 11
3524.5
 21
2835.0
 31
0.0
  0
LINE
  8
\U+0410\U+041A\U+0421\U+041E_\U+041E\U+0422\U+041C\U+0415\U+0422\U+041A\U+0418
 10
3524.5
 20
2835.0
 30
0.0
 11
3500.0
 21
2800.0
 31
0.0
  0
LINE
  8
\U+0410\U+041A\U+0421\U+041E_\U+041E\U+0422\U+041C\U+0415\U+0422\U+041A\U+0418
 10
3500.0
 20
2835.0
 30
0.0
 11
3500.0
 21
2850.0
 31
0.0
  0
LINE
  8
\U+0410\U+041A\U+0421\U+041E_\U+041E\U+0422\U+041C\U+0415\U+0422\U+041A\U+0418
 10
3500.0
 20
2850.0
 30
0.0
 11
3660.0
 21
2850.0
 31
0.0
  0
TEXT
  8
\U+0410\U+041A\U+0421\U+041E_\U+041E\U+0422\U+041C\U+0415\U+0422\U+041A\U+0418_\U+0422\U+0415\U+041A\U+0421\U+0422
 10
3515.0
 20
2860.0
 30
0.0
 40
45.0
  1
+2.800
 72
0
 11
3515.0
 21
2860.0
 31
0.0
  0
LINE
  8
\U+0410\U+041A\U+0421\U+041E_\U+041E\U+0422\U+041C\U+0415\U+0422\U+041A\U+0418
 10
2792.89321882
 20
2092.89321882
 30
0.0
 11
2768.39321882
 21
2127.89321882
 31
0.0
  0
LINE
  8
\U+0410\U+041A\U+0421\U+041E_\U+041E\U+0422\U+041C\U+0415\U+0422\U+041A\U+0418
 10
2768.39321882
 20
2127.89321882
 30
0.0
 11
2817.39321882
 21
2127.89321882
 31
0.0
  0
LINE
  8
\U+0410\U+041A\U+0421\U+041E_\U+041E\U+0422\U+041C\U+0415\U+0422\U+041A\U+0418
 10
2817.39321882
 20
2127.89321882
 30
0.0
 11
2792.89321882
 21
2092.89321882
 31
0.0
  0
LINE
  8
\U+0410\U+041A\U+0421\U+041E_\U+041E\U+0422\U+041C\U+0415\U+0422\U+041A\U+0418
 10
2792.89321882
 20
2127.89321882
 30
0.0
 11
2792.89321882
 21
2142.89321882
 31
0.0
  0
LINE
  8
\U+0410\U+041A\U+0421\U+041E_\U+041E\U+0422\U+041C\U+0415\U+0422\U+041A\U+0418
 10
2792.89321882
 20
2142.89321882
 30
0.0
 11
2952.89321882
 21
2142.89321882
 31
0.0
  0
TEXT
  8
\U+0410\U+041A\U+0421\U+041E_\U+041E\U+0422\U+041C\U+0415\U+0422\U+041A\U+0418_\U+0422\U+0415\U+041A\U+0421\U+0422
 10
2807.89321882
 20
2152.89321882
 30
0.0
 40
45.0
  1
+2.800
 72
0
 11
2807.89321882
 21
2152.89321882
 31
0.0
  0
LINE
  8
\U+0410\U+041A\U+0421\U+041E_\U+041E\U+0422\U+041C\U+0415\U+0422\U+041A\U+0418
 10
2792.89321882
 20
-107.10678117999998
 30
0.0
 11
2768.39321882
 21
-72.10678117999998
 31
0.0
  0
LINE
  8
\U+0410\U+041A\U+0421\U+041E_\U+041E\U+0422\U+041C\U+0415\U+0422\U+041A\U+0418
 10
2768.39321882
 20
-72.10678117999998
 30
0.0
 11
2817.39321882
 21
-72.10678117999998
 31
0.0
  0
LINE
  8
\U+0410\U+041A\U+0421\U+041E_\U+041E\U+0422\U+041C\U+0415\U+0422\U+041A\U+0418
 10
2817.39321882
 20
-72.10678117999998
 30
0.0
 11
2792.89321882
 21
-107.10678117999998
 31
0.0
  0
LINE
  8
\U+0410\U+041A\U+0421\U+041E_\U+041E\U+0422\U+041C\U+0415\U+0422\U+041A\U+0418
 10
2792.89321882
 20
-72.10678117999998
 30
0.0
 11
2792.89321882
 21
-57.106781179999984
 31
0.0
  0
LINE
  8
\U+0410\U+041A\U+0421\U+041E_\U+041E\U+0422\U+041C\U+0415\U+0422\U+041A\U+0418
 10
2792.89321882
 20
-57.106781179999984
 30
0.0
 11
2952.89321882
 21
-57.106781179999984
 31
0.0
  0
TEXT
  8
\U+0410\U+041A\U+0421\U+041E_\U+041E\U+0422\U+041C\U+0415\U+0422\U+041A\U+0418_\U+0422\U+0415\U+041A\U+0421\U+0422
 10
2807.89321882
 20
-47.106781179999984
 30
0.0
 40
45.0
  1
+0.600
 72
0
 11
2807.89321882
 21
-47.106781179999984
 31
0.0
  0
LINE
  8
\U+0410\U+041A\U+0421\U+041E_\U+041E\U+0422\U+041C\U+0415\U+0422\U+041A\U+0418
 10
3146.44660941
 20
2446.44660941
 30
0.0
 11
3121.94660941
 21
2481.44660941
 31
0.0
  0
LINE
  8
\U+0410\U+041A\U+0421\U+041E_\U+041E\U+0422\U+041C\U+0415\U+0422\U+041A\U+0418
 10
3121.94660941
 20
2481.44660941
 30
0.0
 11
3170.94660941
 21
2481.44660941
 31
0.0
  0
LINE
  8
\U+0410\U+041A\U+0421\U+041E_\U+041E\U+0422\U+041C\U+0415\U+0422\U+041A\U+0418
 10
3170.94660941
 20
2481.44660941
 30
0.0
 11
3146.44660941
 21
2446.44660941
 31
0.0
  0
LINE
  8
\U+0410\U+041A\U+0421\U+041E_\U+041E\U+0422\U+041C\U+0415\U+0422\U+041A\U+0418
 10
3146.44660941
 20
2481.44660941
 30
0.0
 11
3146.44660941
 21
2496.44660941
 31
0.0
  0
LINE
  8
\U+0410\U+041A\U+0421\U+041E_\U+041E\U+0422\U+041C\U+0415\U+0422\U+041A\U+0418
 10
3146.44660941
 20
2496.44660941
 30
0.0
 11
3306.44660941
 21
2496.44660941
 31
0.0
  0
TEXT
  8
\U+0410\U+041A\U+0421\U+041E_\U+041E\U+0422\U+041C\U+0415\U+0422\U+041A\U+0418_\U+0422\U+0415\U+041A\U+0421\U+0422
 10
3161.44660941
 20
2506.44660941
 30
0.0
 40
45.0
  1
+2.800
 72
0
 11
3161.44660941
 21
2506.44660941
 31
0.0
  0
LINE
  8
\U+0410\U+041A\U+0421\U+041E_\U+041F\U+0415\U+0420\U+0415\U+0425\U+041E\U+0414\U+042B
 10
3155.285444174832
 20
2480.034181516361
 30
0.0
 11
3114.6268042566053
 21
2435.8400076922017
 31
0.0
  0
LINE
  8
\U+0410\U+041A\U+0421\U+041E_\U+041F\U+0415\U+0420\U+0415\U+0425\U+041E\U+0414\U+042B
 10
3114.6268042566053
 20
2435.8400076922017
 30
0.0
 11
3135.8400076922017
 21
2414.6268042566053
 31
0.0
  0
LINE
  8
\U+0410\U+041A\U+0421\U+041E_\U+041F\U+0415\U+0420\U+0415\U+0425\U+041E\U+0414\U+042B
 10
3135.8400076922017
 20
2414.6268042566053
 30
0.0
 11
3180.034181516361
 21
2455.285444174832
 31
0.0
  0
LINE
  8
\U+0410\U+041A\U+0421\U+041E_\U+041F\U+0415\U+0420\U+0415\U+0425\U+041E\U+0414\U+042B
 10
3180.034181516361
 20
2455.285444174832
 30
0.0
 11
3155.285444174832
 21
2480.034181516361
 31
0.0
  0
TEXT
  8
\U+0410\U+041A\U+0421\U+041E_\U+041F\U+0415\U+0420\U+0415\U+0425\U+041E\U+0414\U+042B_\U+0422\U+0415\U+041A\U+0421\U+0422
 10
3121.44660941
 20
2483.94660941
 30
0.0
 40
40.0
  1
50\U+00D732
 72
0
 11
3121.44660941
 21
2483.94660941
 31
0.0
  0
LINE
  8
\U+0410\U+041A\U+0421\U+041E_\U+041F\U+0415\U+0420\U+0415\U+0425\U+041E\U+0414\U+042B
 10
3155.285444174832
 20
2480.034181516361
 30
0.0
 11
3114.6268042566053
 21
2435.8400076922017
 31
0.0
  0
LINE
  8
\U+0410\U+041A\U+0421\U+041E_\U+041F\U+0415\U+0420\U+0415\U+0425\U+041E\U+0414\U+042B
 10
3114.6268042566053
 20
2435.8400076922017
 30
0.0
 11
3135.8400076922017
 21
2414.6268042566053
 31
0.0
  0
LINE
  8
\U+0410\U+041A\U+0421\U+041E_\U+041F\U+0415\U+0420\U+0415\U+0425\U+041E\U+0414\U+042B
 10
3135.8400076922017
 20
2414.6268042566053
 30
0.0
 11
3180.034181516361
 21
2455.285444174832
 31
0.0
  0
LINE
  8
\U+0410\U+041A\U+0421\U+041E_\U+041F\U+0415\U+0420\U+0415\U+0425\U+041E\U+0414\U+042B
 10
3180.034181516361
 20
2455.285444174832
 30
0.0
 11
3155.285444174832
 21
2480.034181516361
 31
0.0
  0
TEXT
  8
\U+0410\U+041A\U+0421\U+041E_\U+041F\U+0415\U+0420\U+0415\U+0425\U+041E\U+0414\U+042B_\U+0422\U+0415\U+041A\U+0421\U+0422
 10
3121.44660941
 20
2483.94660941
 30
0.0
 40
40.0
  1
50\U+00D732
 72
0
 11
3121.44660941
 21
2483.94660941
 31
0.0
  0
ENDSEC
  0
EOF
