  0
SECTION
  2
HEADER
  9
$ACADVER
  1
AC1009
  0
ENDSEC
  0
SECTION
  2
TABLES
  0
TABLE
  2
LTYPE
 70
2
  0
LTYPE
  2
CONTINUOUS
 70
0
  3
Solid line
 72
65
 73
0
 40
0.0
  0
LTYPE
  2
DASHDOT
 70
0
  3
Dash dot
 72
65
 73
4
 40
19.05
 49
12.7
 49
-3.175
 49
0.0
 49
-3.175
  0
ENDTAB
  0
TABLE
  2
STYLE
 70
1
  0
STYLE
  2
STANDARD
 70
0
 40
0.0
 41
1.0
 50
0.0
 71
0
 42
2.5
  3
arial.ttf
  4

  0
ENDTAB
  0
TABLE
  2
LAYER
 70
39
  0
LAYER
  2
0
 70
0
 62
7
  6
CONTINUOUS
  0
LAYER
  2
\U+0410\U+041A\U+0421\U+041E_\U+0422\U+0420\U+0423\U+0411\U+042B
 70
0
 62
7
  6
CONTINUOUS
  0
LAYER
  2
\U+0410\U+041A\U+0421\U+041E_\U+041E\U+0422\U+041C\U+0415\U+0422\U+041A\U+0418
 70
0
 62
2
  6
CONTINUOUS
  0
LAYER
  2
\U+0410\U+041A\U+0421\U+041E_\U+041E\U+0422\U+041C\U+0415\U+0422\U+041A\U+0418_\U+0422\U+0415\U+041A\U+0421\U+0422
 70
0
 62
7
  6
CONTINUOUS
  0
LAYER
  2
\U+0410\U+041A\U+0421\U+041E_\U+0421\U+0412\U+0410\U+0420\U+041A\U+0410
 70
0
 62
1
  6
CONTINUOUS
  0
LAYER
  2
\U+0410\U+041A\U+0421\U+041E_\U+0421\U+0412\U+0410\U+0420\U+041A\U+0410_\U+0412\U+042B\U+041D\U+041E\U+0421\U+041A\U+0418
 70
0
 62
1
  6
CONTINUOUS
  0
LAYER
  2
\U+0410\U+041A\U+0421\U+041E_\U+0421\U+0412\U+0410\U+0420\U+041A\U+0410_\U+0422\U+0415\U+041A\U+0421\U+0422
 70
0
 62
7
  6
CONTINUOUS
  0
LAYER
  2
\U+0410\U+041A\U+0421\U+041E_\U+0410\U+0420\U+041C\U+0410\U+0422\U+0423\U+0420\U+0410
 70
0
 62
3
  6
CONTINUOUS
  0
LAYER
  2
\U+0410\U+041A\U+0421\U+041E_\U+0414\U+0418\U+0410\U+041C\U+0415\U+0422\U+0420\U+042B
 70
0
 62
4
  6
CONTINUOUS
  0
LAYER
  2
\U+0410\U+041A\U+0421\U+041E_\U+0423\U+041A\U+041B\U+041E\U+041D\U+042B
 70
0
 62
30
  6
CONTINUOUS
  0
LAYER
  2
\U+0410\U+041A\U+0421\U+041E_\U+041F\U+0415\U+0420\U+0415\U+0425\U+041E\U+0414\U+042B
 70
0
 62
5
  6
CONTINUOUS
  0
LAYER
  2
\U+0410\U+041A\U+0421\U+041E_\U+041F\U+0415\U+0420\U+0415\U+0425\U+041E\U+0414\U+042B_\U+0422\U+0415\U+041A\U+0421\U+0422
 70
0
 62
7
  6
CONTINUOUS
  0
LAYER
  2
\U+0410\U+041A\U+0421\U+041E_\U+0424\U+041B\U+0410\U+041D\U+0426\U+042B
 70
0
 62
6
  6
CONTINUOUS
  0
LAYER
  2
\U+0410\U+041A\U+0421\U+041E_\U+0424\U+041B\U+0410\U+041D\U+0426\U+042B_\U+0422\U+0415\U+041A\U+0421\U+0422
 70
0
 62
7
  6
CONTINUOUS
  0
LAYER
  2
\U+0410\U+041A\U+0421\U+041E_\U+0412\U+0420\U+0415\U+0417\U+041A\U+0418
 70
0
 62
1
  6
CONTINUOUS
  0
LAYER
  2
\U+0410\U+041A\U+0421\U+041E_\U+041E\U+0421\U+0418
 70
0
 62
8
  6
DASHDOT
  0
LAYER
  2
\U+0410\U+041A\U+0421\U+041E_\U+041E\U+0421\U+0418_\U+0422\U+0415\U+041A\U+0421\U+0422
 70
0
 62
7
  6
CONTINUOUS
  0
LAYER
  2
\U+0410\U+041A\U+0421\U+041E_\U+0412\U+0421\U+041F\U+041E\U+041C\U+041E\U+0413\U+0410\U+0422\U+0415\U+041B\U+042C\U+041D\U+042B\U+0415
 70
0
 62
4
  6
DASHDOT
  0
LAYER
  2
\U+0410\U+041A\U+0421\U+041E_\U+0420\U+0410\U+0417\U+041C\U+0415\U+0420\U+042B
 70
0
 62
3
  6
CONTINUOUS
  0
LAYER
  2
\U+0410\U+041A\U+0421\U+041E_\U+0420\U+0410\U+0417\U+041C\U+0415\U+0420\U+042B_\U+0422\U+0415\U+041A\U+0421\U+0422
 70
0
 62
7
  6
CONTINUOUS
  0
LAYER
  2
\U+0410\U+041A\U+0421\U+041E_\U+0412\U+042B\U+041D\U+041E\U+0421\U+041A\U+0418
 70
0
 62
7
  6
CONTINUOUS
  0
LAYER
  2
\U+0410\U+041A\U+0421\U+041E_\U+0412\U+042B\U+041D\U+041E\U+0421\U+041A\U+0418_\U+0422\U+0415\U+041A\U+0421\U+0422
 70
0
 62
4
  6
CONTINUOUS
  0
LAYER
  2
\U+0410\U+041A\U+0421\U+041E_3D_\U+0410\U+0420\U+041C\U+0410\U+0422\U+0423\U+0420\U+0410
 70
0
 62
1
  6
CONTINUOUS
  0
LAYER
  2
\U+0410\U+041A\U+0421\U+041E_3D_\U+0421\U+0412\U+0410\U+0420\U+041D\U+042B\U+0415_\U+0421\U+0422\U+042B\U+041A\U+0418
 70
0
 62
3
  6
CONTINUOUS
  0
LAYER
  2
\U+0410\U+041A\U+0421\U+041E_3D_\U+041E\U+041F\U+041E\U+0420\U+042B
 70
0
 62
6
  6
CONTINUOUS
  0
LAYER
  2
\U+0410\U+041A\U+0421\U+041E_\U+041E\U+041F\U+041E\U+0420\U+042B_\U+0422\U+0415\U+041A\U+0421\U+0422
 70
0
 62
7
  6
CONTINUOUS
  0
LAYER
  2
\U+0410\U+041A\U+0421\U+041E_3D_\U+0424\U+041B\U+0410\U+041D\U+0426\U+042B
 70
0
 62
2
  6
CONTINUOUS
  0
LAYER
  2
\U+0410\U+041A\U+0421\U+041E_3D_\U+041F\U+0415\U+0420\U+0415\U+0425\U+041E\U+0414\U+042B
 70
0
 62
5
  6
CONTINUOUS
  0
LAYER
  2
\U+0410\U+041A\U+0421\U+041E_3D_\U+0417\U+0410\U+0413\U+041B\U+0423\U+0428\U+041A\U+0418
 70
0
 62
7
  6
CONTINUOUS
  0
LAYER
  2
\U+0410\U+041A\U+0421\U+041E_\U+0417\U+0410\U+0413\U+041B\U+0423\U+0428\U+041A\U+0418
 70
0
 62
7
  6
CONTINUOUS
  0
LAYER
  2
\U+0410\U+041A\U+0421\U+041E_\U+0417\U+0410\U+0413\U+041B\U+0423\U+0428\U+041A\U+0418_\U+0422\U+0415\U+041A\U+0421\U+0422
 70
0
 62
7
  6
CONTINUOUS
  0
LAYER
  2
\U+0410\U+041A\U+0421\U+041E_\U+04121
 70
0
 62
5
  6
CONTINUOUS
  0
LAYER
  2
\U+0410\U+041A\U+0421\U+041E_\U+04223
 70
0
 62
1
  6
CONTINUOUS
  0
LAYER
  2
\U+0410\U+041A\U+0421\U+041E_\U+04224
 70
0
 62
30
  6
CONTINUOUS
  0
LAYER
  2
\U+0410\U+041A\U+0421\U+041E_\U+041A1
 70
0
 62
130
  6
CONTINUOUS
  0
LAYER
  2
\U+0410\U+041A\U+0421\U+041E_\U+041E1
 70
0
 62
6
  6
CONTINUOUS
  0
LAYER
  2
\U+0410\U+041A\U+0421\U+041E_\U+041E2
 70
0
 62
4
  6
CONTINUOUS
  0
LAYER
  2
\U+0410\U+041A\U+0421\U+041E_\U+0422\U+0425
 70
0
 62
3
  6
CONTINUOUS
  0
LAYER
  2
\U+0410\U+041A\U+0421\U+041E_\U+0422\U+0421
 70
0
 62
1
  6
CONTINUOUS
  0
ENDTAB
  0
ENDSEC
  0
SECTION
  2
BLOCKS
  0
BLOCK
  8
0
  2
CALLOUT_SHELF_1
 70
0
 10
0.0
 20
0.0
 30
0.0
  3
CALLOUT_SHELF_1
  0
CIRCLE
  8
\U+0410\U+041A\U+0421\U+041E_\U+0412\U+042B\U+041D\U+041E\U+0421\U+041A\U+0418
 10
0.0
 20
0.0
 30
0.0
 40
12.0
  0
LINE
  8
\U+0410\U+041A\U+0421\U+041E_\U+0412\U+042B\U+041D\U+041E\U+0421\U+041A\U+0418
 10
0.0
 20
0.0
 30
0.0
 11
173.2
 21
180.0
 31
0.0
  0
LINE
  8
\U+0410\U+041A\U+0421\U+041E_\U+0412\U+042B\U+041D\U+041E\U+0421\U+041A\U+0418
 10
173.2
 20
180.0
 30
0.0
 11
733.2
 21
180.0
 31
0.0
  0
TEXT
  8
\U+0410\U+041A\U+0421\U+041E_\U+0412\U+042B\U+041D\U+041E\U+0421\U+041A\U+0418_\U+0422\U+0415\U+041A\U+0421\U+0422
 10
183.2
 20
195.0
 30
0.0
 40
45.0
  1
\U+00D880x3.5 \U+0421\U+0442\U+0430\U+043B\U+044C 20
  0
TEXT
  8
\U+0410\U+041A\U+0421\U+041E_\U+0412\U+042B\U+041D\U+041E\U+0421\U+041A\U+0418_\U+0422\U+0415\U+041A\U+0421\U+0422
 10
183.2
 20
125.0
 30
0.0
 40
45.0
  1
\U+04121
  0
ENDBLK
  8
0
  0
BLOCK
  8
0
  2
CALLOUT_SHELF_2
 70
0
 10
0.0
 20
0.0
 30
0.0
  3
CALLOUT_SHELF_2
  0
CIRCLE
  8
\U+0410\U+041A\U+0421\U+041E_\U+0412\U+042B\U+041D\U+041E\U+0421\U+041A\U+0418
 10
0.0
 20
0.0
 30
0.0
 40
12.0
  0
LINE
  8
\U+0410\U+041A\U+0421\U+041E_\U+0412\U+042B\U+041D\U+041E\U+0421\U+041A\U+0418
 10
0.0
 20
0.0
 30
0.0
 11
173.2
 21
180.0
 31
0.0
  0
LINE
  8
\U+0410\U+041A\U+0421\U+041E_\U+0412\U+042B\U+041D\U+041E\U+0421\U+041A\U+0418
 10
173.2
 20
180.0
 30
0.0
 11
733.2
 21
180.0
 31
0.0
  0
TEXT
  8
\U+0410\U+041A\U+0421\U+041E_\U+0412\U+042B\U+041D\U+041E\U+0421\U+041A\U+0418_\U+0422\U+0415\U+041A\U+0421\U+0422
 10
183.2
 20
195.0
 30
0.0
 40
45.0
  1
\U+00D880x3.5 \U+0421\U+0442\U+0430\U+043B\U+044C 20
  0
TEXT
  8
\U+0410\U+041A\U+0421\U+041E_\U+0412\U+042B\U+041D\U+041E\U+0421\U+041A\U+0418_\U+0422\U+0415\U+041A\U+0421\U+0422
 10
183.2
 20
125.0
 30
0.0
 40
45.0
  1
\U+04121
  0
ENDBLK
  8
0
  0
BLOCK
  8
0
  2
CALLOUT_SHELF_3
 70
0
 10
0.0
 20
0.0
 30
0.0
  3
CALLOUT_SHELF_3
  0
CIRCLE
  8
\U+0410\U+041A\U+0421\U+041E_\U+0412\U+042B\U+041D\U+041E\U+0421\U+041A\U+0418
 10
0.0
 20
0.0
 30
0.0
 40
12.0
  0
LINE
  8
\U+0410\U+041A\U+0421\U+041E_\U+0412\U+042B\U+041D\U+041E\U+0421\U+041A\U+0418
 10
0.0
 20
0.0
 30
0.0
 11
173.2
 21
180.0
 31
0.0
  0
LINE
  8
\U+0410\U+041A\U+0421\U+041E_\U+0412\U+042B\U+041D\U+041E\U+0421\U+041A\U+0418
 10
173.2
 20
180.0
 30
0.0
 11
733.2
 21
180.0
 31
0.0
  0
TEXT
  8
\U+0410\U+041A\U+0421\U+041E_\U+0412\U+042B\U+041D\U+041E\U+0421\U+041A\U+0418_\U+0422\U+0415\U+041A\U+0421\U+0422
 10
183.2
 20
195.0
 30
0.0
 40
45.0
  1
\U+00D850x3.5 \U+0421\U+0442\U+0430\U+043B\U+044C 20
  0
TEXT
  8
\U+0410\U+041A\U+0421\U+041E_\U+0412\U+042B\U+041D\U+041E\U+0421\U+041A\U+0418_\U+0422\U+0415\U+041A\U+0421\U+0422
 10
183.2
 20
125.0
 30
0.0
 40
45.0
  1
\U+04121
  0
ENDBLK
  8
0
  0
BLOCK
  8
0
  2
CALLOUT_SHELF_4
 70
0
 10
0.0
 20
0.0
 30
0.0
  3
CALLOUT_SHELF_4
  0
CIRCLE
  8
\U+0410\U+041A\U+0421\U+041E_\U+0412\U+042B\U+041D\U+041E\U+0421\U+041A\U+0418
 10
0.0
 20
0.0
 30
0.0
 40
12.0
  0
LINE
  8
\U+0410\U+041A\U+0421\U+041E_\U+0412\U+042B\U+041D\U+041E\U+0421\U+041A\U+0418
 10
0.0
 20
0.0
 30
0.0
 11
173.2
 21
180.0
 31
0.0
  0
LINE
  8
\U+0410\U+041A\U+0421\U+041E_\U+0412\U+042B\U+041D\U+041E\U+0421\U+041A\U+0418
 10
173.2
 20
180.0
 30
0.0
 11
733.2
 21
180.0
 31
0.0
  0
TEXT
  8
\U+0410\U+041A\U+0421\U+041E_\U+0412\U+042B\U+041D\U+041E\U+0421\U+041A\U+0418_\U+0422\U+0415\U+041A\U+0421\U+0422
 10
183.2
 20
195.0
 30
0.0
 40
45.0
  1
\U+00D850x3.5 \U+0421\U+0442\U+0430\U+043B\U+044C 20
  0
TEXT
  8
\U+0410\U+041A\U+0421\U+041E_\U+0412\U+042B\U+041D\U+041E\U+0421\U+041A\U+0418_\U+0422\U+0415\U+041A\U+0421\U+0422
 10
183.2
 20
125.0
 30
0.0
 40
45.0
  1
\U+04121
  0
ENDBLK
  8
0
  0
BLOCK
  8
0
  2
CALLOUT_SHELF_5
 70
0
 10
0.0
 20
0.0
 30
0.0
  3
CALLOUT_SHELF_5
  0
CIRCLE
  8
\U+0410\U+041A\U+0421\U+041E_\U+0412\U+042B\U+041D\U+041E\U+0421\U+041A\U+0418
 10
0.0
 20
0.0
 30
0.0
 40
12.0
  0
LINE
  8
\U+0410\U+041A\U+0421\U+041E_\U+0412\U+042B\U+041D\U+041E\U+0421\U+041A\U+0418
 10
0.0
 20
0.0
 30
0.0
 11
173.2
 21
180.0
 31
0.0
  0
LINE
  8
\U+0410\U+041A\U+0421\U+041E_\U+0412\U+042B\U+041D\U+041E\U+0421\U+041A\U+0418
 10
173.2
 20
180.0
 30
0.0
 11
733.2
 21
180.0
 31
0.0
  0
TEXT
  8
\U+0410\U+041A\U+0421\U+041E_\U+0412\U+042B\U+041D\U+041E\U+0421\U+041A\U+0418_\U+0422\U+0415\U+041A\U+0421\U+0422
 10
183.2
 20
195.0
 30
0.0
 40
45.0
  1
\U+00D832x3.5 \U+0421\U+0442\U+0430\U+043B\U+044C 20
  0
TEXT
  8
\U+0410\U+041A\U+0421\U+041E_\U+0412\U+042B\U+041D\U+041E\U+0421\U+041A\U+0418_\U+0422\U+0415\U+041A\U+0421\U+0422
 10
183.2
 20
125.0
 30
0.0
 40
45.0
  1
\U+04121
  0
ENDBLK
  8
0
  0
ENDSEC
  0
SECTION
  2
ENTITIES
  0
LINE
  8
\U+0410\U+041A\U+0421\U+041E_\U+04121
 10
0.0
 20
0.0
 30
0.0
 11
0.0
 21
0.0
 31
2800.0
  0
TEXT
  8
\U+0410\U+041A\U+0421\U+041E_\U+0414\U+0418\U+0410\U+041C\U+0415\U+0422\U+0420\U+042B
 10
0.0
 20
0.0
 30
1450.0
 40
60.0
  1
\U+230089\U+00D73.5
 72
0
 11
0.0
 21
0.0
 31
1450.0
  0
LINE
  8
\U+0410\U+041A\U+0421\U+041E_\U+04121
 10
0.0
 20
0.0
 30
2800.0
 11
0.0
 21
965.0
 31
2800.0
  0
LINE
  8
\U+0410\U+041A\U+0421\U+041E_\U+04121
 10
0.0
 20
1135.0
 30
2800.0
 11
0.0
 21
2421.5
 31
2800.0
  0
LINE
  8
\U+0410\U+041A\U+0421\U+041E_\U+04121
 10
0.0
 20
2478.5
 30
2800.0
 11
0.0
 21
3500.0
 31
2800.0
  0
TEXT
  8
\U+0410\U+041A\U+0421\U+041E_\U+0414\U+0418\U+0410\U+041C\U+0415\U+0422\U+0420\U+042B
 10
0.0
 20
1750.0
 30
2850.0
 40
60.0
  1
\U+230089\U+00D73.5
 72
0
 11
0.0
 21
1750.0
 31
2850.0
  0
LINE
  8
\U+0410\U+041A\U+0421\U+041E_\U+04121
 10
2000.0
 20
3500.0
 30
2800.0
 11
2000.0
 21
3500.0
 31
1750.0
  0
LINE
  8
\U+0410\U+041A\U+0421\U+041E_\U+04121
 10
2000.0
 20
3500.0
 30
1650.0
 11
2000.0
 21
3500.0
 31
600.0
  0
TEXT
  8
\U+0410\U+041A\U+0421\U+041E_\U+0414\U+0418\U+0410\U+041C\U+0415\U+0422\U+0420\U+042B
 10
2000.0
 20
3500.0
 30
1750.0
 40
60.0
  1
\U+230057\U+00D73.5
 72
0
 11
2000.0
 21
3500.0
 31
1750.0
  0
LINE
  8
\U+0410\U+041A\U+0421\U+041E_\U+04121
 10
0.0
 20
3500.0
 30
2800.0
 11
1000.0
 21
3500.0
 31
2800.0
  0
TEXT
  8
\U+0410\U+041A\U+0421\U+041E_\U+0414\U+0418\U+0410\U+041C\U+0415\U+0422\U+0420\U+042B
 10
500.0
 20
3500.0
 30
2850.0
 40
60.0
  1
\U+230057\U+00D73.5
 72
0
 11
500.0
 21
3500.0
 31
2850.0
  0
LINE
  8
\U+0410\U+041A\U+0421\U+041E_\U+04121
 10
1000.0
 20
3500.0
 30
2800.0
 11
2000.0
 21
3500.0
 31
2800.0
  0
TEXT
  8
\U+0410\U+041A\U+0421\U+041E_\U+0414\U+0418\U+0410\U+041C\U+0415\U+0422\U+0420\U+042B
 10
1500.0
 20
3500.0
 30
2850.0
 40
60.0
  1
\U+230038\U+00D73.5
 72
0
 11
1500.0
 21
3500.0
 31
2850.0
  0
LINE
  8
\U+0410\U+041A\U+0421\U+041E_3D_\U+0410\U+0420\U+041C\U+0410\U+0422\U+0423\U+0420\U+0410
 10
44.5
 20
965.0
 30
2800.0
 11
38.53813046840752
 21
965.0
 31
2777.75
  0
LINE
  8
\U+0410\U+041A\U+0421\U+041E_3D_\U+0410\U+0420\U+041C\U+0410\U+0422\U+0423\U+0420\U+0410
 10
44.5
 20
1135.0
 30
2800.0
 11
38.53813046840752
 21
1135.0
 31
2777.75
  0
LINE
  8
\U+0410\U+041A\U+0421\U+041E_3D_\U+0410\U+0420\U+041C\U+0410\U+0422\U+0423\U+0420\U+0410
 10
38.53813046840752
 20
965.0
 30
2777.75
 11
22.250000000000007
 21
965.0
 31
2761.4618695315926
  0
LINE
  8
\U+0410\U+041A\U+0421\U+041E_3D_\U+0410\U+0420\U+041C\U+0410\U+0422\U+0423\U+0420\U+0410
 10
38.53813046840752
 20
1135.0
 30
2777.75
 11
22.250000000000007
 21
1135.0
 31
2761.4618695315926
  0
LINE
  8
\U+0410\U+041A\U+0421\U+041E_3D_\U+0410\U+0420\U+041C\U+0410\U+0422\U+0423\U+0420\U+0410
 10
22.250000000000007
 20
965.0
 30
2761.4618695315926
 11
5.449678256205722e-15
 21
965.0
 31
2755.5
  0
LINE
  8
\U+0410\U+041A\U+0421\U+041E_3D_\U+0410\U+0420\U+041C\U+0410\U+0422\U+0423\U+0420\U+0410
 10
22.250000000000007
 20
1135.0
 30
2761.4618695315926
 11
5.449678256205722e-15
 21
1135.0
 31
2755.5
  0
LINE
  8
\U+0410\U+041A\U+0421\U+041E_3D_\U+0410\U+0420\U+041C\U+0410\U+0422\U+0423\U+0420\U+0410
 10
5.449678256205722e-15
 20
965.0
 30
2755.5
 11
-22.249999999999986
 21
965.0
 31
2761.4618695315926
  0
LINE
  8
\U+0410\U+041A\U+0421\U+041E_3D_\U+0410\U+0420\U+041C\U+0410\U+0422\U+0423\U+0420\U+0410
 10
5.449678256205722e-15
 20
1135.0
 30
2755.5
 11
-22.249999999999986
 21
1135.0
 31
2761.4618695315926
  0
LINE
  8
\U+0410\U+041A\U+0421\U+041E_3D_\U+0410\U+0420\U+041C\U+0410\U+0422\U+0423\U+0420\U+0410
 10
-22.249999999999986
 20
965.0
 30
2761.4618695315926
 11
-38.53813046840752
 21
965.0
 31
2777.75
  0
LINE
  8
\U+0410\U+041A\U+0421\U+041E_3D_\U+0410\U+0420\U+041C\U+0410\U+0422\U+0423\U+0420\U+0410
 10
-22.249999999999986
 20
1135.0
 30
2761.4618695315926
 11
-38.53813046840752
 21
1135.0
 31
2777.75
  0
LINE
  8
\U+0410\U+041A\U+0421\U+041E_3D_\U+0410\U+0420\U+041C\U+0410\U+0422\U+0423\U+0420\U+0410
 10
-38.53813046840752
 20
965.0
 30
2777.75
 11
-44.5
 21
965.0
 31
2800.0
  0
LINE
  8
\U+0410\U+041A\U+0421\U+041E_3D_\U+0410\U+0420\U+041C\U+0410\U+0422\U+0423\U+0420\U+0410
 10
-38.53813046840752
 20
1135.0
 30
2777.75
 11
-44.5
 21
1135.0
 31
2800.0
  0
LINE
  8
\U+0410\U+041A\U+0421\U+041E_3D_\U+0410\U+0420\U+041C\U+0410\U+0422\U+0423\U+0420\U+0410
 10
-44.5
 20
965.0
 30
2800.0
 11
-38.53813046840753
 21
965.0
 31
2822.25
  0
LINE
  8
\U+0410\U+041A\U+0421\U+041E_3D_\U+0410\U+0420\U+041C\U+0410\U+0422\U+0423\U+0420\U+0410
 10
-44.5
 20
1135.0
 30
2800.0
 11
-38.53813046840753
 21
1135.0
 31
2822.25
  0
LINE
  8
\U+0410\U+041A\U+0421\U+041E_3D_\U+0410\U+0420\U+041C\U+0410\U+0422\U+0423\U+0420\U+0410
 10
-38.53813046840753
 20
965.0
 30
2822.25
 11
-22.250000000000025
 21
965.0
 31
2838.5381304684074
  0
LINE
  8
\U+0410\U+041A\U+0421\U+041E_3D_\U+0410\U+0420\U+041C\U+0410\U+0422\U+0423\U+0420\U+0410
 10
-38.53813046840753
 20
1135.0
 30
2822.25
 11
-22.250000000000025
 21
1135.0
 31
2838.5381304684074
  0
LINE
  8
\U+0410\U+041A\U+0421\U+041E_3D_\U+0410\U+0420\U+041C\U+0410\U+0422\U+0423\U+0420\U+0410
 10
-22.250000000000025
 20
965.0
 30
2838.5381304684074
 11
-1.0899356512411444e-14
 21
965.0
 31
2844.5
  0
LINE
  8
\U+0410\U+041A\U+0421\U+041E_3D_\U+0410\U+0420\U+041C\U+0410\U+0422\U+0423\U+0420\U+0410
 10
-22.250000000000025
 20
1135.0
 30
2838.5381304684074
 11
-1.0899356512411444e-14
 21
1135.0
 31
2844.5
  0
LINE
  8
\U+0410\U+041A\U+0421\U+041E_3D_\U+0410\U+0420\U+041C\U+0410\U+0422\U+0423\U+0420\U+0410
 10
-1.0899356512411444e-14
 20
965.0
 30
2844.5
 11
22.25
 21
965.0
 31
2838.5381304684074
  0
LINE
  8
\U+0410\U+041A\U+0421\U+041E_3D_\U+0410\U+0420\U+041C\U+0410\U+0422\U+0423\U+0420\U+0410
 10
-1.0899356512411444e-14
 20
1135.0
 30
2844.5
 11
22.25
 21
1135.0
 31
2838.5381304684074
  0
LINE
  8
\U+0410\U+041A\U+0421\U+041E_3D_\U+0410\U+0420\U+041C\U+0410\U+0422\U+0423\U+0420\U+0410
 10
22.25
 20
965.0
 30
2838.5381304684074
 11
38.53813046840751
 21
965.0
 31
2822.25
  0
LINE
  8
\U+0410\U+041A\U+0421\U+041E_3D_\U+0410\U+0420\U+041C\U+0410\U+0422\U+0423\U+0420\U+0410
 10
22.25
 20
1135.0
 30
2838.5381304684074
 11
38.53813046840751
 21
1135.0
 31
2822.25
  0
LINE
  8
\U+0410\U+041A\U+0421\U+041E_3D_\U+0410\U+0420\U+041C\U+0410\U+0422\U+0423\U+0420\U+0410
 10
38.53813046840751
 20
965.0
 30
2822.25
 11
44.5
 21
965.0
 31
2800.0
  0
LINE
  8
\U+0410\U+041A\U+0421\U+041E_3D_\U+0410\U+0420\U+041C\U+0410\U+0422\U+0423\U+0420\U+0410
 10
38.53813046840751
 20
1135.0
 30
2822.25
 11
44.5
 21
1135.0
 31
2800.0
  0
LINE
  8
\U+0410\U+041A\U+0421\U+041E_3D_\U+0410\U+0420\U+041C\U+0410\U+0422\U+0423\U+0420\U+0410
 10
44.5
 20
965.0
 30
2800.0
 11
0.0
 21
1050.0
 31
2800.0
  0
LINE
  8
\U+0410\U+041A\U+0421\U+041E_3D_\U+0410\U+0420\U+041C\U+0410\U+0422\U+0423\U+0420\U+0410
 10
44.5
 20
1135.0
 30
2800.0
 11
0.0
 21
1050.0
 31
2800.0
  0
LINE
  8
\U+0410\U+041A\U+0421\U+041E_3D_\U+0410\U+0420\U+041C\U+0410\U+0422\U+0423\U+0420\U+0410
 10
38.53813046840752
 20
965.0
 30
2777.75
 11
0.0
 21
1050.0
 31
2800.0
  0
LINE
  8
\U+0410\U+041A\U+0421\U+041E_3D_\U+0410\U+0420\U+041C\U+0410\U+0422\U+0423\U+0420\U+0410
 10
38.53813046840752
 20
1135.0
 30
2777.75
 11
0.0
 21
1050.0
 31
2800.0
  0
LINE
  8
\U+0410\U+041A\U+0421\U+041E_3D_\U+0410\U+0420\U+041C\U+0410\U+0422\U+0423\U+0420\U+0410
 10
22.250000000000007
 20
965.0
 30
2761.4618695315926
 11
0.0
 21
1050.0
 31
2800.0
  0
LINE
  8
\U+0410\U+041A\U+0421\U+041E_3D_\U+0410\U+0420\U+041C\U+0410\U+0422\U+0423\U+0420\U+0410
 10
22.250000000000007
 20
1135.0
 30
2761.4618695315926
 11
0.0
 21
1050.0
 31
2800.0
  0
LINE
  8
\U+0410\U+041A\U+0421\U+041E_3D_\U+0410\U+0420\U+041C\U+0410\U+0422\U+0423\U+0420\U+0410
 10
5.449678256205722e-15
 20
965.0
 30
2755.5
 11
0.0
 21
1050.0
 31
2800.0
  0
LINE
  8
\U+0410\U+041A\U+0421\U+041E_3D_\U+0410\U+0420\U+041C\U+0410\U+0422\U+0423\U+0420\U+0410
 10
5.449678256205722e-15
 20
1135.0
 30
2755.5
 11
0.0
 21
1050.0
 31
2800.0
  0
LINE
  8
\U+0410\U+041A\U+0421\U+041E_3D_\U+0410\U+0420\U+041C\U+0410\U+0422\U+0423\U+0420\U+0410
 10
-22.249999999999986
 20
965.0
 30
2761.4618695315926
 11
0.0
 21
1050.0
 31
2800.0
  0
LINE
  8
\U+0410\U+041A\U+0421\U+041E_3D_\U+0410\U+0420\U+041C\U+0410\U+0422\U+0423\U+0420\U+0410
 10
-22.249999999999986
 20
1135.0
 30
2761.4618695315926
 11
0.0
 21
1050.0
 31
2800.0
  0
LINE
  8
\U+0410\U+041A\U+0421\U+041E_3D_\U+0410\U+0420\U+041C\U+0410\U+0422\U+0423\U+0420\U+0410
 10
-38.53813046840752
 20
965.0
 30
2777.75
 11
0.0
 21
1050.0
 31
2800.0
  0
LINE
  8
\U+0410\U+041A\U+0421\U+041E_3D_\U+0410\U+0420\U+041C\U+0410\U+0422\U+0423\U+0420\U+0410
 10
-38.53813046840752
 20
1135.0
 30
2777.75
 11
0.0
 21
1050.0
 31
2800.0
  0
LINE
  8
\U+0410\U+041A\U+0421\U+041E_3D_\U+0410\U+0420\U+041C\U+0410\U+0422\U+0423\U+0420\U+0410
 10
-44.5
 20
965.0
 30
2800.0
 11
0.0
 21
1050.0
 31
2800.0
  0
LINE
  8
\U+0410\U+041A\U+0421\U+041E_3D_\U+0410\U+0420\U+041C\U+0410\U+0422\U+0423\U+0420\U+0410
 10
-44.5
 20
1135.0
 30
2800.0
 11
0.0
 21
1050.0
 31
2800.0
  0
LINE
  8
\U+0410\U+041A\U+0421\U+041E_3D_\U+0410\U+0420\U+041C\U+0410\U+0422\U+0423\U+0420\U+0410
 10
-38.53813046840753
 20
965.0
 30
2822.25
 11
0.0
 21
1050.0
 31
2800.0
  0
LINE
  8
\U+0410\U+041A\U+0421\U+041E_3D_\U+0410\U+0420\U+041C\U+0410\U+0422\U+0423\U+0420\U+0410
 10
-38.53813046840753
 20
1135.0
 30
2822.25
 11
0.0
 21
1050.0
 31
2800.0
  0
LINE
  8
\U+0410\U+041A\U+0421\U+041E_3D_\U+0410\U+0420\U+041C\U+0410\U+0422\U+0423\U+0420\U+0410
 10
-22.250000000000025
 20
965.0
 30
2838.5381304684074
 11
0.0
 21
1050.0
 31
2800.0
  0
LINE
  8
\U+0410\U+041A\U+0421\U+041E_3D_\U+0410\U+0420\U+041C\U+0410\U+0422\U+0423\U+0420\U+0410
 10
-22.250000000000025
 20
1135.0
 30
2838.5381304684074
 11
0.0
 21
1050.0
 31
2800.0
  0
LINE
  8
\U+0410\U+041A\U+0421\U+041E_3D_\U+0410\U+0420\U+041C\U+0410\U+0422\U+0423\U+0420\U+0410
 10
-1.0899356512411444e-14
 20
965.0
 30
2844.5
 11
0.0
 21
1050.0
 31
2800.0
  0
LINE
  8
\U+0410\U+041A\U+0421\U+041E_3D_\U+0410\U+0420\U+041C\U+0410\U+0422\U+0423\U+0420\U+0410
 10
-1.0899356512411444e-14
 20
1135.0
 30
2844.5
 11
0.0
 21
1050.0
 31
2800.0
  0
LINE
  8
\U+0410\U+041A\U+0421\U+041E_3D_\U+0410\U+0420\U+041C\U+0410\U+0422\U+0423\U+0420\U+0410
 10
22.25
 20
965.0
 30
2838.5381304684074
 11
0.0
 21
1050.0
 31
2800.0
  0
LINE
  8
\U+0410\U+041A\U+0421\U+041E_3D_\U+0410\U+0420\U+041C\U+0410\U+0422\U+0423\U+0420\U+0410
 10
22.25
 20
1135.0
 30
2838.5381304684074
 11
0.0
 21
1050.0
 31
2800.0
  0
LINE
  8
\U+0410\U+041A\U+0421\U+041E_3D_\U+0410\U+0420\U+041C\U+0410\U+0422\U+0423\U+0420\U+0410
 10
38.53813046840751
 20
965.0
 30
2822.25
 11
0.0
 21
1050.0
 31
2800.0
  0
LINE
  8
\U+0410\U+041A\U+0421\U+041E_3D_\U+0410\U+0420\U+041C\U+0410\U+0422\U+0423\U+0420\U+0410
 10
38.53813046840751
 20
1135.0
 30
2822.25
 11
0.0
 21
1050.0
 31
2800.0
  0
LINE
  8
\U+0410\U+041A\U+0421\U+041E_3D_\U+0410\U+0420\U+041C\U+0410\U+0422\U+0423\U+0420\U+0410
 10
0.0
 20
1050.0
 30
2800.0
 11
97.9
 21
1050.0
 31
2800.0
  0
LINE
  8
\U+0410\U+041A\U+0421\U+041E_3D_\U+0410\U+0420\U+041C\U+0410\U+0422\U+0423\U+0420\U+0410
 10
97.9
 20
1112.3
 30
2800.0
 11
97.9
 21
1103.9533826557706
 31
2768.85
  0
LINE
  8
\U+0410\U+041A\U+0421\U+041E_3D_\U+0410\U+0420\U+041C\U+0410\U+0422\U+0423\U+0420\U+0410
 10
97.9
 20
1103.9533826557706
 30
2768.85
 11
97.9
 21
1081.15
 31
2746.0466173442296
  0
LINE
  8
\U+0410\U+041A\U+0421\U+041E_3D_\U+0410\U+0420\U+041C\U+0410\U+0422\U+0423\U+0420\U+0410
 10
97.9
 20
1081.15
 30
2746.0466173442296
 11
97.9
 21
1050.0
 31
2737.7
  0
LINE
  8
\U+0410\U+041A\U+0421\U+041E_3D_\U+0410\U+0420\U+041C\U+0410\U+0422\U+0423\U+0420\U+0410
 10
97.9
 20
1050.0
 30
2737.7
 11
97.9
 21
1018.85
 31
2746.0466173442296
  0
LINE
  8
\U+0410\U+041A\U+0421\U+041E_3D_\U+0410\U+0420\U+041C\U+0410\U+0422\U+0423\U+0420\U+0410
 10
97.9
 20
1018.85
 30
2746.0466173442296
 11
97.9
 21
996.0466173442295
 31
2768.85
  0
LINE
  8
\U+0410\U+041A\U+0421\U+041E_3D_\U+0410\U+0420\U+041C\U+0410\U+0422\U+0423\U+0420\U+0410
 10
97.9
 20
996.0466173442295
 30
2768.85
 11
97.9
 21
987.7
 31
2800.0
  0
LINE
  8
\U+0410\U+041A\U+0421\U+041E_3D_\U+0410\U+0420\U+041C\U+0410\U+0422\U+0423\U+0420\U+0410
 10
97.9
 20
987.7
 30
2800.0
 11
97.9
 21
996.0466173442295
 31
2831.15
  0
LINE
  8
\U+0410\U+041A\U+0421\U+041E_3D_\U+0410\U+0420\U+041C\U+0410\U+0422\U+0423\U+0420\U+0410
 10
97.9
 20
996.0466173442295
 30
2831.15
 11
97.9
 21
1018.85
 31
2853.9533826557704
  0
LINE
  8
\U+0410\U+041A\U+0421\U+041E_3D_\U+0410\U+0420\U+041C\U+0410\U+0422\U+0423\U+0420\U+0410
 10
97.9
 20
1018.85
 30
2853.9533826557704
 11
97.9
 21
1050.0
 31
2862.3
  0
LINE
  8
\U+0410\U+041A\U+0421\U+041E_3D_\U+0410\U+0420\U+041C\U+0410\U+0422\U+0423\U+0420\U+0410
 10
97.9
 20
1050.0
 30
2862.3
 11
97.9
 21
1081.15
 31
2853.9533826557704
  0
LINE
  8
\U+0410\U+041A\U+0421\U+041E_3D_\U+0410\U+0420\U+041C\U+0410\U+0422\U+0423\U+0420\U+0410
 10
97.9
 20
1081.15
 30
2853.9533826557704
 11
97.9
 21
1103.9533826557706
 31
2831.15
  0
LINE
  8
\U+0410\U+041A\U+0421\U+041E_3D_\U+0410\U+0420\U+041C\U+0410\U+0422\U+0423\U+0420\U+0410
 10
97.9
 20
1103.9533826557706
 30
2831.15
 11
97.9
 21
1112.3
 31
2800.0
  0
LINE
  8
\U+0410\U+041A\U+0421\U+041E_3D_\U+0410\U+0420\U+041C\U+0410\U+0422\U+0423\U+0420\U+0410
 10
97.9
 20
1050.0
 30
2800.0
 11
97.9
 21
1112.3
 31
2800.0
  0
LINE
  8
\U+0410\U+041A\U+0421\U+041E_3D_\U+0410\U+0420\U+041C\U+0410\U+0422\U+0423\U+0420\U+0410
 10
97.9
 20
1050.0
 30
2800.0
 11
97.9
 21
1050.0
 31
2737.7
  0
LINE
  8
\U+0410\U+041A\U+0421\U+041E_3D_\U+0410\U+0420\U+041C\U+0410\U+0422\U+0423\U+0420\U+0410
 10
97.9
 20
1050.0
 30
2800.0
 11
97.9
 21
987.7
 31
2800.0
  0
LINE
  8
\U+0410\U+041A\U+0421\U+041E_3D_\U+0410\U+0420\U+041C\U+0410\U+0422\U+0423\U+0420\U+0410
 10
97.9
 20
1050.0
 30
2800.0
 11
97.9
 21
1050.0
 31
2862.3
  0
TEXT
  8
\U+0410\U+041A\U+0421\U+041E_\U+0410\U+0420\U+041C\U+0410\U+0422\U+0423\U+0420\U+0410
 10
0.0
 20
1050.0
 30
2900.0
 40
70.0
  1
\U+0417\U+0430\U+0434\U+0432\U+0438\U+0436\U+043A\U+0430 \U+043A\U+043B\U+0438\U+043D\U+043E\U+0432\U+0430\U+044F \U+0414\U+044380
 72
0
 11
0.0
 21
1050.0
 31
2900.0
  0
LINE
  8
\U+0410\U+041A\U+0421\U+041E_3D_\U+0410\U+0420\U+041C\U+0410\U+0422\U+0423\U+0420\U+0410
 10
44.5
 20
2421.5
 30
2800.0
 11
38.53813046840752
 21
2421.5
 31
2777.75
  0
LINE
  8
\U+0410\U+041A\U+0421\U+041E_3D_\U+0410\U+0420\U+041C\U+0410\U+0422\U+0423\U+0420\U+0410
 10
44.5
 20
2478.5
 30
2800.0
 11
38.53813046840752
 21
2478.5
 31
2777.75
  0
LINE
  8
\U+0410\U+041A\U+0421\U+041E_3D_\U+0410\U+0420\U+041C\U+0410\U+0422\U+0423\U+0420\U+0410
 10
38.53813046840752
 20
2421.5
 30
2777.75
 11
22.250000000000007
 21
2421.5
 31
2761.4618695315926
  0
LINE
  8
\U+0410\U+041A\U+0421\U+041E_3D_\U+0410\U+0420\U+041C\U+0410\U+0422\U+0423\U+0420\U+0410
 10
38.53813046840752
 20
2478.5
 30
2777.75
 11
22.250000000000007
 21
2478.5
 31
2761.4618695315926
  0
LINE
  8
\U+0410\U+041A\U+0421\U+041E_3D_\U+0410\U+0420\U+041C\U+0410\U+0422\U+0423\U+0420\U+0410
 10
22.250000000000007
 20
2421.5
 30
2761.4618695315926
 11
5.449678256205722e-15
 21
2421.5
 31
2755.5
  0
LINE
  8
\U+0410\U+041A\U+0421\U+041E_3D_\U+0410\U+0420\U+041C\U+0410\U+0422\U+0423\U+0420\U+0410
 10
22.250000000000007
 20
2478.5
 30
2761.4618695315926
 11
5.449678256205722e-15
 21
2478.5
 31
2755.5
  0
LINE
  8
\U+0410\U+041A\U+0421\U+041E_3D_\U+0410\U+0420\U+041C\U+0410\U+0422\U+0423\U+0420\U+0410
 10
5.449678256205722e-15
 20
2421.5
 30
2755.5
 11
-22.249999999999986
 21
2421.5
 31
2761.4618695315926
  0
LINE
  8
\U+0410\U+041A\U+0421\U+041E_3D_\U+0410\U+0420\U+041C\U+0410\U+0422\U+0423\U+0420\U+0410
 10
5.449678256205722e-15
 20
2478.5
 30
2755.5
 11
-22.249999999999986
 21
2478.5
 31
2761.4618695315926
  0
LINE
  8
\U+0410\U+041A\U+0421\U+041E_3D_\U+0410\U+0420\U+041C\U+0410\U+0422\U+0423\U+0420\U+0410
 10
-22.249999999999986
 20
2421.5
 30
2761.4618695315926
 11
-38.53813046840752
 21
2421.5
 31
2777.75
  0
LINE
  8
\U+0410\U+041A\U+0421\U+041E_3D_\U+0410\U+0420\U+041C\U+0410\U+0422\U+0423\U+0420\U+0410
 10
-22.249999999999986
 20
2478.5
 30
2761.4618695315926
 11
-38.53813046840752
 21
2478.5
 31
2777.75
  0
LINE
  8
\U+0410\U+041A\U+0421\U+041E_3D_\U+0410\U+0420\U+041C\U+0410\U+0422\U+0423\U+0420\U+0410
 10
-38.53813046840752
 20
2421.5
 30
2777.75
 11
-44.5
 21
2421.5
 31
2800.0
  0
LINE
  8
\U+0410\U+041A\U+0421\U+041E_3D_\U+0410\U+0420\U+041C\U+0410\U+0422\U+0423\U+0420\U+0410
 10
-38.53813046840752
 20
2478.5
 30
2777.75
 11
-44.5
 21
2478.5
 31
2800.0
  0
LINE
  8
\U+0410\U+041A\U+0421\U+041E_3D_\U+0410\U+0420\U+041C\U+0410\U+0422\U+0423\U+0420\U+0410
 10
-44.5
 20
2421.5
 30
2800.0
 11
-38.53813046840753
 21
2421.5
 31
2822.25
  0
LINE
  8
\U+0410\U+041A\U+0421\U+041E_3D_\U+0410\U+0420\U+041C\U+0410\U+0422\U+0423\U+0420\U+0410
 10
-44.5
 20
2478.5
 30
2800.0
 11
-38.53813046840753
 21
2478.5
 31
2822.25
  0
LINE
  8
\U+0410\U+041A\U+0421\U+041E_3D_\U+0410\U+0420\U+041C\U+0410\U+0422\U+0423\U+0420\U+0410
 10
-38.53813046840753
 20
2421.5
 30
2822.25
 11
-22.250000000000025
 21
2421.5
 31
2838.5381304684074
  0
LINE
  8
\U+0410\U+041A\U+0421\U+041E_3D_\U+0410\U+0420\U+041C\U+0410\U+0422\U+0423\U+0420\U+0410
 10
-38.53813046840753
 20
2478.5
 30
2822.25
 11
-22.250000000000025
 21
2478.5
 31
2838.5381304684074
  0
LINE
  8
\U+0410\U+041A\U+0421\U+041E_3D_\U+0410\U+0420\U+041C\U+0410\U+0422\U+0423\U+0420\U+0410
 10
-22.250000000000025
 20
2421.5
 30
2838.5381304684074
 11
-1.0899356512411444e-14
 21
2421.5
 31
2844.5
  0
LINE
  8
\U+0410\U+041A\U+0421\U+041E_3D_\U+0410\U+0420\U+041C\U+0410\U+0422\U+0423\U+0420\U+0410
 10
-22.250000000000025
 20
2478.5
 30
2838.5381304684074
 11
-1.0899356512411444e-14
 21
2478.5
 31
2844.5
  0
LINE
  8
\U+0410\U+041A\U+0421\U+041E_3D_\U+0410\U+0420\U+041C\U+0410\U+0422\U+0423\U+0420\U+0410
 10
-1.0899356512411444e-14
 20
2421.5
 30
2844.5
 11
22.25
 21
2421.5
 31
2838.5381304684074
  0
LINE
  8
\U+0410\U+041A\U+0421\U+041E_3D_\U+0410\U+0420\U+041C\U+0410\U+0422\U+0423\U+0420\U+0410
 10
-1.0899356512411444e-14
 20
2478.5
 30
2844.5
 11
22.25
 21
2478.5
 31
2838.5381304684074
  0
LINE
  8
\U+0410\U+041A\U+0421\U+041E_3D_\U+0410\U+0420\U+041C\U+0410\U+0422\U+0423\U+0420\U+0410
 10
22.25
 20
2421.5
 30
2838.5381304684074
 11
38.53813046840751
 21
2421.5
 31
2822.25
  0
LINE
  8
\U+0410\U+041A\U+0421\U+041E_3D_\U+0410\U+0420\U+041C\U+0410\U+0422\U+0423\U+0420\U+0410
 10
22.25
 20
2478.5
 30
2838.5381304684074
 11
38.53813046840751
 21
2478.5
 31
2822.25
  0
LINE
  8
\U+0410\U+041A\U+0421\U+041E_3D_\U+0410\U+0420\U+041C\U+0410\U+0422\U+0423\U+0420\U+0410
 10
38.53813046840751
 20
2421.5
 30
2822.25
 11
44.5
 21
2421.5
 31
2800.0
  0
LINE
  8
\U+0410\U+041A\U+0421\U+041E_3D_\U+0410\U+0420\U+041C\U+0410\U+0422\U+0423\U+0420\U+0410
 10
38.53813046840751
 20
2478.5
 30
2822.25
 11
44.5
 21
2478.5
 31
2800.0
  0
LINE
  8
\U+0410\U+041A\U+0421\U+041E_3D_\U+0410\U+0420\U+041C\U+0410\U+0422\U+0423\U+0420\U+0410
 10
44.5
 20
2421.5
 30
2800.0
 11
0.0
 21
2450.0
 31
2800.0
  0
LINE
  8
\U+0410\U+041A\U+0421\U+041E_3D_\U+0410\U+0420\U+041C\U+0410\U+0422\U+0423\U+0420\U+0410
 10
44.5
 20
2478.5
 30
2800.0
 11
0.0
 21
2450.0
 31
2800.0
  0
LINE
  8
\U+0410\U+041A\U+0421\U+041E_3D_\U+0410\U+0420\U+041C\U+0410\U+0422\U+0423\U+0420\U+0410
 10
38.53813046840752
 20
2421.5
 30
2777.75
 11
0.0
 21
2450.0
 31
2800.0
  0
LINE
  8
\U+0410\U+041A\U+0421\U+041E_3D_\U+0410\U+0420\U+041C\U+0410\U+0422\U+0423\U+0420\U+0410
 10
38.53813046840752
 20
2478.5
 30
2777.75
 11
0.0
 21
2450.0
 31
2800.0
  0
LINE
  8
\U+0410\U+041A\U+0421\U+041E_3D_\U+0410\U+0420\U+041C\U+0410\U+0422\U+0423\U+0420\U+0410
 10
22.250000000000007
 20
2421.5
 30
2761.4618695315926
 11
0.0
 21
2450.0
 31
2800.0
  0
LINE
  8
\U+0410\U+041A\U+0421\U+041E_3D_\U+0410\U+0420\U+041C\U+0410\U+0422\U+0423\U+0420\U+0410
 10
22.250000000000007
 20
2478.5
 30
2761.4618695315926
 11
0.0
 21
2450.0
 31
2800.0
  0
LINE
  8
\U+0410\U+041A\U+0421\U+041E_3D_\U+0410\U+0420\U+041C\U+0410\U+0422\U+0423\U+0420\U+0410
 10
5.449678256205722e-15
 20
2421.5
 30
2755.5
 11
0.0
 21
2450.0
 31
2800.0
  0
LINE
  8
\U+0410\U+041A\U+0421\U+041E_3D_\U+0410\U+0420\U+041C\U+0410\U+0422\U+0423\U+0420\U+0410
 10
5.449678256205722e-15
 20
2478.5
 30
2755.5
 11
0.0
 21
2450.0
 31
2800.0
  0
LINE
  8
\U+0410\U+041A\U+0421\U+041E_3D_\U+0410\U+0420\U+041C\U+0410\U+0422\U+0423\U+0420\U+0410
 10
-22.249999999999986
 20
2421.5
 30
2761.4618695315926
 11
0.0
 21
2450.0
 31
2800.0
  0
LINE
  8
\U+0410\U+041A\U+0421\U+041E_3D_\U+0410\U+0420\U+041C\U+0410\U+0422\U+0423\U+0420\U+0410
 10
-22.249999999999986
 20
2478.5
 30
2761.4618695315926
 11
0.0
 21
2450.0
 31
2800.0
  0
LINE
  8
\U+0410\U+041A\U+0421\U+041E_3D_\U+0410\U+0420\U+041C\U+0410\U+0422\U+0423\U+0420\U+0410
 10
-38.53813046840752
 20
2421.5
 30
2777.75
 11
0.0
 21
2450.0
 31
2800.0
  0
LINE
  8
\U+0410\U+041A\U+0421\U+041E_3D_\U+0410\U+0420\U+041C\U+0410\U+0422\U+0423\U+0420\U+0410
 10
-38.53813046840752
 20
2478.5
 30
2777.75
 11
0.0
 21
2450.0
 31
2800.0
  0
LINE
  8
\U+0410\U+041A\U+0421\U+041E_3D_\U+0410\U+0420\U+041C\U+0410\U+0422\U+0423\U+0420\U+0410
 10
-44.5
 20
2421.5
 30
2800.0
 11
0.0
 21
2450.0
 31
2800.0
  0
LINE
  8
\U+0410\U+041A\U+0421\U+041E_3D_\U+0410\U+0420\U+041C\U+0410\U+0422\U+0423\U+0420\U+0410
 10
-44.5
 20
2478.5
 30
2800.0
 11
0.0
 21
2450.0
 31
2800.0
  0
LINE
  8
\U+0410\U+041A\U+0421\U+041E_3D_\U+0410\U+0420\U+041C\U+0410\U+0422\U+0423\U+0420\U+0410
 10
-38.53813046840753
 20
2421.5
 30
2822.25
 11
0.0
 21
2450.0
 31
2800.0
  0
LINE
  8
\U+0410\U+041A\U+0421\U+041E_3D_\U+0410\U+0420\U+041C\U+0410\U+0422\U+0423\U+0420\U+0410
 10
-38.53813046840753
 20
2478.5
 30
2822.25
 11
0.0
 21
2450.0
 31
2800.0
  0
LINE
  8
\U+0410\U+041A\U+0421\U+041E_3D_\U+0410\U+0420\U+041C\U+0410\U+0422\U+0423\U+0420\U+0410
 10
-22.250000000000025
 20
2421.5
 30
2838.5381304684074
 11
0.0
 21
2450.0
 31
2800.0
  0
LINE
  8
\U+0410\U+041A\U+0421\U+041E_3D_\U+0410\U+0420\U+041C\U+0410\U+0422\U+0423\U+0420\U+0410
 10
-22.250000000000025
 20
2478.5
 30
2838.5381304684074
 11
0.0
 21
2450.0
 31
2800.0
  0
LINE
  8
\U+0410\U+041A\U+0421\U+041E_3D_\U+0410\U+0420\U+041C\U+0410\U+0422\U+0423\U+0420\U+0410
 10
-1.0899356512411444e-14
 20
2421.5
 30
2844.5
 11
0.0
 21
2450.0
 31
2800.0
  0
LINE
  8
\U+0410\U+041A\U+0421\U+041E_3D_\U+0410\U+0420\U+041C\U+0410\U+0422\U+0423\U+0420\U+0410
 10
-1.0899356512411444e-14
 20
2478.5
 30
2844.5
 11
0.0
 21
2450.0
 31
2800.0
  0
LINE
  8
\U+0410\U+041A\U+0421\U+041E_3D_\U+0410\U+0420\U+041C\U+0410\U+0422\U+0423\U+0420\U+0410
 10
22.25
 20
2421.5
 30
2838.5381304684074
 11
0.0
 21
2450.0
 31
2800.0
  0
LINE
  8
\U+0410\U+041A\U+0421\U+041E_3D_\U+0410\U+0420\U+041C\U+0410\U+0422\U+0423\U+0420\U+0410
 10
22.25
 20
2478.5
 30
2838.5381304684074
 11
0.0
 21
2450.0
 31
2800.0
  0
LINE
  8
\U+0410\U+041A\U+0421\U+041E_3D_\U+0410\U+0420\U+041C\U+0410\U+0422\U+0423\U+0420\U+0410
 10
38.53813046840751
 20
2421.5
 30
2822.25
 11
0.0
 21
2450.0
 31
2800.0
  0
LINE
  8
\U+0410\U+041A\U+0421\U+041E_3D_\U+0410\U+0420\U+041C\U+0410\U+0422\U+0423\U+0420\U+0410
 10
38.53813046840751
 20
2478.5
 30
2822.25
 11
0.0
 21
2450.0
 31
2800.0
  0
LINE
  8
\U+0410\U+041A\U+0421\U+041E_3D_\U+0410\U+0420\U+041C\U+0410\U+0422\U+0423\U+0420\U+0410
 10
0.0
 20
2450.0
 30
2800.0
 11
97.9
 21
2450.0
 31
2800.0
  0
LINE
  8
\U+0410\U+041A\U+0421\U+041E_3D_\U+0410\U+0420\U+041C\U+0410\U+0422\U+0423\U+0420\U+0410
 10
97.9
 20
2512.3
 30
2800.0
 11
97.9
 21
2503.9533826557704
 31
2768.85
  0
LINE
  8
\U+0410\U+041A\U+0421\U+041E_3D_\U+0410\U+0420\U+041C\U+0410\U+0422\U+0423\U+0420\U+0410
 10
97.9
 20
2503.9533826557704
 30
2768.85
 11
97.9
 21
2481.15
 31
2746.0466173442296
  0
LINE
  8
\U+0410\U+041A\U+0421\U+041E_3D_\U+0410\U+0420\U+041C\U+0410\U+0422\U+0423\U+0420\U+0410
 10
97.9
 20
2481.15
 30
2746.0466173442296
 11
97.9
 21
2450.0
 31
2737.7
  0
LINE
  8
\U+0410\U+041A\U+0421\U+041E_3D_\U+0410\U+0420\U+041C\U+0410\U+0422\U+0423\U+0420\U+0410
 10
97.9
 20
2450.0
 30
2737.7
 11
97.9
 21
2418.85
 31
2746.0466173442296
  0
LINE
  8
\U+0410\U+041A\U+0421\U+041E_3D_\U+0410\U+0420\U+041C\U+0410\U+0422\U+0423\U+0420\U+0410
 10
97.9
 20
2418.85
 30
2746.0466173442296
 11
97.9
 21
2396.0466173442296
 31
2768.85
  0
LINE
  8
\U+0410\U+041A\U+0421\U+041E_3D_\U+0410\U+0420\U+041C\U+0410\U+0422\U+0423\U+0420\U+0410
 10
97.9
 20
2396.0466173442296
 30
2768.85
 11
97.9
 21
2387.7
 31
2800.0
  0
LINE
  8
\U+0410\U+041A\U+0421\U+041E_3D_\U+0410\U+0420\U+041C\U+0410\U+0422\U+0423\U+0420\U+0410
 10
97.9
 20
2387.7
 30
2800.0
 11
97.9
 21
2396.0466173442296
 31
2831.15
  0
LINE
  8
\U+0410\U+041A\U+0421\U+041E_3D_\U+0410\U+0420\U+041C\U+0410\U+0422\U+0423\U+0420\U+0410
 10
97.9
 20
2396.0466173442296
 30
2831.15
 11
97.9
 21
2418.85
 31
2853.9533826557704
  0
LINE
  8
\U+0410\U+041A\U+0421\U+041E_3D_\U+0410\U+0420\U+041C\U+0410\U+0422\U+0423\U+0420\U+0410
 10
97.9
 20
2418.85
 30
2853.9533826557704
 11
97.9
 21
2450.0
 31
2862.3
  0
LINE
  8
\U+0410\U+041A\U+0421\U+041E_3D_\U+0410\U+0420\U+041C\U+0410\U+0422\U+0423\U+0420\U+0410
 10
97.9
 20
2450.0
 30
2862.3
 11
97.9
 21
2481.15
 31
2853.9533826557704
  0
LINE
  8
\U+0410\U+041A\U+0421\U+041E_3D_\U+0410\U+0420\U+041C\U+0410\U+0422\U+0423\U+0420\U+0410
 10
97.9
 20
2481.15
 30
2853.9533826557704
 11
97.9
 21
2503.9533826557704
 31
2831.15
  0
LINE
  8
\U+0410\U+041A\U+0421\U+041E_3D_\U+0410\U+0420\U+041C\U+0410\U+0422\U+0423\U+0420\U+0410
 10
97.9
 20
2503.9533826557704
 30
2831.15
 11
97.9
 21
2512.3
 31
2800.0
  0
LINE
  8
\U+0410\U+041A\U+0421\U+041E_3D_\U+0410\U+0420\U+041C\U+0410\U+0422\U+0423\U+0420\U+0410
 10
97.9
 20
2450.0
 30
2800.0
 11
97.9
 21
2512.3
 31
2800.0
  0
LINE
  8
\U+0410\U+041A\U+0421\U+041E_3D_\U+0410\U+0420\U+041C\U+0410\U+0422\U+0423\U+0420\U+0410
 10
97.9
 20
2450.0
 30
2800.0
 11
97.9
 21
2450.0
 31
2737.7
  0
LINE
  8
\U+0410\U+041A\U+0421\U+041E_3D_\U+0410\U+0420\U+041C\U+0410\U+0422\U+0423\U+0420\U+0410
 10
97.9
 20
2450.0
 30
2800.0
 11
97.9
 21
2387.7
 31
2800.0
  0
LINE
  8
\U+0410\U+041A\U+0421\U+041E_3D_\U+0410\U+0420\U+041C\U+0410\U+0422\U+0423\U+0420\U+0410
 10
97.9
 20
2450.0
 30
2800.0
 11
97.9
 21
2450.0
 31
2862.3
  0
TEXT
  8
\U+0410\U+041A\U+0421\U+041E_\U+0410\U+0420\U+041C\U+0410\U+0422\U+0423\U+0420\U+0410
 10
0.0
 20
2450.0
 30
2900.0
 40
70.0
  1
\U+0417\U+0430\U+0442\U+0432\U+043E\U+0440 \U+0434\U+0438\U+0441\U+043A\U+043E\U+0432\U+044B\U+0439 \U+00AB\U+0431\U+0430\U+0442\U+0442\U+0435\U+0440\U+0444\U+043B\U+044F\U+0439\U+00BB \U+0414\U+044380
 72
0
 11
0.0
 21
2450.0
 31
2900.0
  0
LINE
  8
\U+0410\U+041A\U+0421\U+041E_3D_\U+0410\U+0420\U+041C\U+0410\U+0422\U+0423\U+0420\U+0410
 10
2028.5
 20
3500.0
 30
1750.0
 11
2024.6817240078565
 21
3485.75
 31
1750.0
  0
LINE
  8
\U+0410\U+041A\U+0421\U+041E_3D_\U+0410\U+0420\U+041C\U+0410\U+0422\U+0423\U+0420\U+0410
 10
2028.5
 20
3500.0
 30
1650.0
 11
2024.6817240078565
 21
3485.75
 31
1650.0
  0
LINE
  8
\U+0410\U+041A\U+0421\U+041E_3D_\U+0410\U+0420\U+041C\U+0410\U+0422\U+0423\U+0420\U+0410
 10
2024.6817240078565
 20
3485.75
 30
1750.0
 11
2014.25
 21
3475.3182759921433
 31
1750.0
  0
LINE
  8
\U+0410\U+041A\U+0421\U+041E_3D_\U+0410\U+0420\U+041C\U+0410\U+0422\U+0423\U+0420\U+0410
 10
2024.6817240078565
 20
3485.75
 30
1650.0
 11
2014.25
 21
3475.3182759921433
 31
1650.0
  0
LINE
  8
\U+0410\U+041A\U+0421\U+041E_3D_\U+0410\U+0420\U+041C\U+0410\U+0422\U+0423\U+0420\U+0410
 10
2014.25
 20
3475.3182759921433
 30
1750.0
 11
2000.0
 21
3471.5
 31
1750.0
  0
LINE
  8
\U+0410\U+041A\U+0421\U+041E_3D_\U+0410\U+0420\U+041C\U+0410\U+0422\U+0423\U+0420\U+0410
 10
2014.25
 20
3475.3182759921433
 30
1650.0
 11
2000.0
 21
3471.5
 31
1650.0
  0
LINE
  8
\U+0410\U+041A\U+0421\U+041E_3D_\U+0410\U+0420\U+041C\U+0410\U+0422\U+0423\U+0420\U+0410
 10
2000.0
 20
3471.5
 30
1750.0
 11
1985.75
 21
3475.3182759921433
 31
1750.0
  0
LINE
  8
\U+0410\U+041A\U+0421\U+041E_3D_\U+0410\U+0420\U+041C\U+0410\U+0422\U+0423\U+0420\U+0410
 10
2000.0
 20
3471.5
 30
1650.0
 11
1985.75
 21
3475.3182759921433
 31
1650.0
  0
LINE
  8
\U+0410\U+041A\U+0421\U+041E_3D_\U+0410\U+0420\U+041C\U+0410\U+0422\U+0423\U+0420\U+0410
 10
1985.75
 20
3475.3182759921433
 30
1750.0
 11
1975.3182759921435
 21
3485.75
 31
1750.0
  0
LINE
  8
\U+0410\U+041A\U+0421\U+041E_3D_\U+0410\U+0420\U+041C\U+0410\U+0422\U+0423\U+0420\U+0410
 10
1985.75
 20
3475.3182759921433
 30
1650.0
 11
1975.3182759921435
 21
3485.75
 31
1650.0
  0
LINE
  8
\U+0410\U+041A\U+0421\U+041E_3D_\U+0410\U+0420\U+041C\U+0410\U+0422\U+0423\U+0420\U+0410
 10
1975.3182759921435
 20
3485.75
 30
1750.0
 11
1971.5
 21
3500.0
 31
1750.0
  0
LINE
  8
\U+0410\U+041A\U+0421\U+041E_3D_\U+0410\U+0420\U+041C\U+0410\U+0422\U+0423\U+0420\U+0410
 10
1975.3182759921435
 20
3485.75
 30
1650.0
 11
1971.5
 21
3500.0
 31
1650.0
  0
LINE
  8
\U+0410\U+041A\U+0421\U+041E_3D_\U+0410\U+0420\U+041C\U+0410\U+0422\U+0423\U+0420\U+0410
 10
1971.5
 20
3500.0
 30
1750.0
 11
1975.3182759921435
 21
3514.25
 31
1750.0
  0
LINE
  8
\U+0410\U+041A\U+0421\U+041E_3D_\U+0410\U+0420\U+041C\U+0410\U+0422\U+0423\U+0420\U+0410
 10
1971.5
 20
3500.0
 30
1650.0
 11
1975.3182759921435
 21
3514.25
 31
1650.0
  0
LINE
  8
\U+0410\U+041A\U+0421\U+041E_3D_\U+0410\U+0420\U+041C\U+0410\U+0422\U+0423\U+0420\U+0410
 10
1975.3182759921435
 20
3514.25
 30
1750.0
 11
1985.75
 21
3524.6817240078567
 31
1750.0
  0
LINE
  8
\U+0410\U+041A\U+0421\U+041E_3D_\U+0410\U+0420\U+041C\U+0410\U+0422\U+0423\U+0420\U+0410
 10
1975.3182759921435
 20
3514.25
 30
1650.0
 11
1985.75
 21
3524.6817240078567
 31
1650.0
  0
LINE
  8
\U+0410\U+041A\U+0421\U+041E_3D_\U+0410\U+0420\U+041C\U+0410\U+0422\U+0423\U+0420\U+0410
 10
1985.75
 20
3524.6817240078567
 30
1750.0
 11
2000.0
 21
3528.5
 31
1750.0
  0
LINE
  8
\U+0410\U+041A\U+0421\U+041E_3D_\U+0410\U+0420\U+041C\U+0410\U+0422\U+0423\U+0420\U+0410
 10
1985.75
 20
3524.6817240078567
 30
1650.0
 11
2000.0
 21
3528.5
 31
1650.0
  0
LINE
  8
\U+0410\U+041A\U+0421\U+041E_3D_\U+0410\U+0420\U+041C\U+0410\U+0422\U+0423\U+0420\U+0410
 10
2000.0
 20
3528.5
 30
1750.0
 11
2014.25
 21
3524.6817240078567
 31
1750.0
  0
LINE
  8
\U+0410\U+041A\U+0421\U+041E_3D_\U+0410\U+0420\U+041C\U+0410\U+0422\U+0423\U+0420\U+0410
 10
2000.0
 20
3528.5
 30
1650.0
 11
2014.25
 21
3524.6817240078567
 31
1650.0
  0
LINE
  8
\U+0410\U+041A\U+0421\U+041E_3D_\U+0410\U+0420\U+041C\U+0410\U+0422\U+0423\U+0420\U+0410
 10
2014.25
 20
3524.6817240078567
 30
1750.0
 11
2024.6817240078565
 21
3514.25
 31
1750.0
  0
LINE
  8
\U+0410\U+041A\U+0421\U+041E_3D_\U+0410\U+0420\U+041C\U+0410\U+0422\U+0423\U+0420\U+0410
 10
2014.25
 20
3524.6817240078567
 30
1650.0
 11
2024.6817240078565
 21
3514.25
 31
1650.0
  0
LINE
  8
\U+0410\U+041A\U+0421\U+041E_3D_\U+0410\U+0420\U+041C\U+0410\U+0422\U+0423\U+0420\U+0410
 10
2024.6817240078565
 20
3514.25
 30
1750.0
 11
2028.5
 21
3500.0
 31
1750.0
  0
LINE
  8
\U+0410\U+041A\U+0421\U+041E_3D_\U+0410\U+0420\U+041C\U+0410\U+0422\U+0423\U+0420\U+0410
 10
2024.6817240078565
 20
3514.25
 30
1650.0
 11
2028.5
 21
3500.0
 31
1650.0
  0
LINE
  8
\U+0410\U+041A\U+0421\U+041E_3D_\U+0410\U+0420\U+041C\U+0410\U+0422\U+0423\U+0420\U+0410
 10
2028.5
 20
3500.0
 30
1750.0
 11
2000.0
 21
3500.0
 31
1700.0
  0
LINE
  8
\U+0410\U+041A\U+0421\U+041E_3D_\U+0410\U+0420\U+041C\U+0410\U+0422\U+0423\U+0420\U+0410
 10
2028.5
 20
3500.0
 30
1650.0
 11
2000.0
 21
3500.0
 31
1700.0
  0
LINE
  8
\U+0410\U+041A\U+0421\U+041E_3D_\U+0410\U+0420\U+041C\U+0410\U+0422\U+0423\U+0420\U+0410
 10
2024.6817240078565
 20
3485.75
 30
1750.0
 11
2000.0
 21
3500.0
 31
1700.0
  0
LINE
  8
\U+0410\U+041A\U+0421\U+041E_3D_\U+0410\U+0420\U+041C\U+0410\U+0422\U+0423\U+0420\U+0410
 10
2024.6817240078565
 20
3485.75
 30
1650.0
 11
2000.0
 21
3500.0
 31
1700.0
  0
LINE
  8
\U+0410\U+041A\U+0421\U+041E_3D_\U+0410\U+0420\U+041C\U+0410\U+0422\U+0423\U+0420\U+0410
 10
2014.25
 20
3475.3182759921433
 30
1750.0
 11
2000.0
 21
3500.0
 31
1700.0
  0
LINE
  8
\U+0410\U+041A\U+0421\U+041E_3D_\U+0410\U+0420\U+041C\U+0410\U+0422\U+0423\U+0420\U+0410
 10
2014.25
 20
3475.3182759921433
 30
1650.0
 11
2000.0
 21
3500.0
 31
1700.0
  0
LINE
  8
\U+0410\U+041A\U+0421\U+041E_3D_\U+0410\U+0420\U+041C\U+0410\U+0422\U+0423\U+0420\U+0410
 10
2000.0
 20
3471.5
 30
1750.0
 11
2000.0
 21
3500.0
 31
1700.0
  0
LINE
  8
\U+0410\U+041A\U+0421\U+041E_3D_\U+0410\U+0420\U+041C\U+0410\U+0422\U+0423\U+0420\U+0410
 10
2000.0
 20
3471.5
 30
1650.0
 11
2000.0
 21
3500.0
 31
1700.0
  0
LINE
  8
\U+0410\U+041A\U+0421\U+041E_3D_\U+0410\U+0420\U+041C\U+0410\U+0422\U+0423\U+0420\U+0410
 10
1985.75
 20
3475.3182759921433
 30
1750.0
 11
2000.0
 21
3500.0
 31
1700.0
  0
LINE
  8
\U+0410\U+041A\U+0421\U+041E_3D_\U+0410\U+0420\U+041C\U+0410\U+0422\U+0423\U+0420\U+0410
 10
1985.75
 20
3475.3182759921433
 30
1650.0
 11
2000.0
 21
3500.0
 31
1700.0
  0
LINE
  8
\U+0410\U+041A\U+0421\U+041E_3D_\U+0410\U+0420\U+041C\U+0410\U+0422\U+0423\U+0420\U+0410
 10
1975.3182759921435
 20
3485.75
 30
1750.0
 11
2000.0
 21
3500.0
 31
1700.0
  0
LINE
  8
\U+0410\U+041A\U+0421\U+041E_3D_\U+0410\U+0420\U+041C\U+0410\U+0422\U+0423\U+0420\U+0410
 10
1975.3182759921435
 20
3485.75
 30
1650.0
 11
2000.0
 21
3500.0
 31
1700.0
  0
LINE
  8
\U+0410\U+041A\U+0421\U+041E_3D_\U+0410\U+0420\U+041C\U+0410\U+0422\U+0423\U+0420\U+0410
 10
1971.5
 20
3500.0
 30
1750.0
 11
2000.0
 21
3500.0
 31
1700.0
  0
LINE
  8
\U+0410\U+041A\U+0421\U+041E_3D_\U+0410\U+0420\U+041C\U+0410\U+0422\U+0423\U+0420\U+0410
 10
1971.5
 20
3500.0
 30
1650.0
 11
2000.0
 21
3500.0
 31
1700.0
  0
LINE
  8
\U+0410\U+041A\U+0421\U+041E_3D_\U+0410\U+0420\U+041C\U+0410\U+0422\U+0423\U+0420\U+0410
 10
1975.3182759921435
 20
3514.25
 30
1750.0
 11
2000.0
 21
3500.0
 31
1700.0
  0
LINE
  8
\U+0410\U+041A\U+0421\U+041E_3D_\U+0410\U+0420\U+041C\U+0410\U+0422\U+0423\U+0420\U+0410
 10
1975.3182759921435
 20
3514.25
 30
1650.0
 11
2000.0
 21
3500.0
 31
1700.0
  0
LINE
  8
\U+0410\U+041A\U+0421\U+041E_3D_\U+0410\U+0420\U+041C\U+0410\U+0422\U+0423\U+0420\U+0410
 10
1985.75
 20
3524.6817240078567
 30
1750.0
 11
2000.0
 21
3500.0
 31
1700.0
  0
LINE
  8
\U+0410\U+041A\U+0421\U+041E_3D_\U+0410\U+0420\U+041C\U+0410\U+0422\U+0423\U+0420\U+0410
 10
1985.75
 20
3524.6817240078567
 30
1650.0
 11
2000.0
 21
3500.0
 31
1700.0
  0
LINE
  8
\U+0410\U+041A\U+0421\U+041E_3D_\U+0410\U+0420\U+041C\U+0410\U+0422\U+0423\U+0420\U+0410
 10
2000.0
 20
3528.5
 30
1750.0
 11
2000.0
 21
3500.0
 31
1700.0
  0
LINE
  8
\U+0410\U+041A\U+0421\U+041E_3D_\U+0410\U+0420\U+041C\U+0410\U+0422\U+0423\U+0420\U+0410
 10
2000.0
 20
3528.5
 30
1650.0
 11
2000.0
 21
3500.0
 31
1700.0
  0
LINE
  8
\U+0410\U+041A\U+0421\U+041E_3D_\U+0410\U+0420\U+041C\U+0410\U+0422\U+0423\U+0420\U+0410
 10
2014.25
 20
3524.6817240078567
 30
1750.0
 11
2000.0
 21
3500.0
 31
1700.0
  0
LINE
  8
\U+0410\U+041A\U+0421\U+041E_3D_\U+0410\U+0420\U+041C\U+0410\U+0422\U+0423\U+0420\U+0410
 10
2014.25
 20
3524.6817240078567
 30
1650.0
 11
2000.0
 21
3500.0
 31
1700.0
  0
LINE
  8
\U+0410\U+041A\U+0421\U+041E_3D_\U+0410\U+0420\U+041C\U+0410\U+0422\U+0423\U+0420\U+0410
 10
2024.6817240078565
 20
3514.25
 30
1750.0
 11
2000.0
 21
3500.0
 31
1700.0
  0
LINE
  8
\U+0410\U+041A\U+0421\U+041E_3D_\U+0410\U+0420\U+041C\U+0410\U+0422\U+0423\U+0420\U+0410
 10
2024.6817240078565
 20
3514.25
 30
1650.0
 11
2000.0
 21
3500.0
 31
1700.0
  0
LINE
  8
\U+0410\U+041A\U+0421\U+041E_3D_\U+0410\U+0420\U+041C\U+0410\U+0422\U+0423\U+0420\U+0410
 10
2000.0
 20
3500.0
 30
1700.0
 11
2062.7
 21
3500.0
 31
1700.0
  0
LINE
  8
\U+0410\U+041A\U+0421\U+041E_3D_\U+0410\U+0420\U+041C\U+0410\U+0422\U+0423\U+0420\U+0410
 10
2062.7
 20
3500.0
 30
1660.1
 11
2062.7
 21
3480.05
 31
1665.445586389001
  0
LINE
  8
\U+0410\U+041A\U+0421\U+041E_3D_\U+0410\U+0420\U+041C\U+0410\U+0422\U+0423\U+0420\U+0410
 10
2062.7
 20
3480.05
 30
1665.445586389001
 11
2062.7
 21
3465.4455863890007
 31
1680.05
  0
LINE
  8
\U+0410\U+041A\U+0421\U+041E_3D_\U+0410\U+0420\U+041C\U+0410\U+0422\U+0423\U+0420\U+0410
 10
2062.7
 20
3465.4455863890007
 30
1680.05
 11
2062.7
 21
3460.1
 31
1700.0
  0
LINE
  8
\U+0410\U+041A\U+0421\U+041E_3D_\U+0410\U+0420\U+041C\U+0410\U+0422\U+0423\U+0420\U+0410
 10
2062.7
 20
3460.1
 30
1700.0
 11
2062.7
 21
3465.4455863890007
 31
1719.95
  0
LINE
  8
\U+0410\U+041A\U+0421\U+041E_3D_\U+0410\U+0420\U+041C\U+0410\U+0422\U+0423\U+0420\U+0410
 10
2062.7
 20
3465.4455863890007
 30
1719.95
 11
2062.7
 21
3480.05
 31
1734.554413610999
  0
LINE
  8
\U+0410\U+041A\U+0421\U+041E_3D_\U+0410\U+0420\U+041C\U+0410\U+0422\U+0423\U+0420\U+0410
 10
2062.7
 20
3480.05
 30
1734.554413610999
 11
2062.7
 21
3500.0
 31
1739.9
  0
LINE
  8
\U+0410\U+041A\U+0421\U+041E_3D_\U+0410\U+0420\U+041C\U+0410\U+0422\U+0423\U+0420\U+0410
 10
2062.7
 20
3500.0
 30
1739.9
 11
2062.7
 21
3519.95
 31
1734.554413610999
  0
LINE
  8
\U+0410\U+041A\U+0421\U+041E_3D_\U+0410\U+0420\U+041C\U+0410\U+0422\U+0423\U+0420\U+0410
 10
2062.7
 20
3519.95
 30
1734.554413610999
 11
2062.7
 21
3534.5544136109993
 31
1719.95
  0
LINE
  8
\U+0410\U+041A\U+0421\U+041E_3D_\U+0410\U+0420\U+041C\U+0410\U+0422\U+0423\U+0420\U+0410
 10
2062.7
 20
3534.5544136109993
 30
1719.95
 11
2062.7
 21
3539.9
 31
1700.0
  0
LINE
  8
\U+0410\U+041A\U+0421\U+041E_3D_\U+0410\U+0420\U+041C\U+0410\U+0422\U+0423\U+0420\U+0410
 10
2062.7
 20
3539.9
 30
1700.0
 11
2062.7
 21
3534.5544136109993
 31
1680.05
  0
LINE
  8
\U+0410\U+041A\U+0421\U+041E_3D_\U+0410\U+0420\U+041C\U+0410\U+0422\U+0423\U+0420\U+0410
 10
2062.7
 20
3534.5544136109993
 30
1680.05
 11
2062.7
 21
3519.95
 31
1665.445586389001
  0
LINE
  8
\U+0410\U+041A\U+0421\U+041E_3D_\U+0410\U+0420\U+041C\U+0410\U+0422\U+0423\U+0420\U+0410
 10
2062.7
 20
3519.95
 30
1665.445586389001
 11
2062.7
 21
3500.0
 31
1660.1
  0
LINE
  8
\U+0410\U+041A\U+0421\U+041E_3D_\U+0410\U+0420\U+041C\U+0410\U+0422\U+0423\U+0420\U+0410
 10
2062.7
 20
3500.0
 30
1700.0
 11
2062.7
 21
3500.0
 31
1660.1
  0
LINE
  8
\U+0410\U+041A\U+0421\U+041E_3D_\U+0410\U+0420\U+041C\U+0410\U+0422\U+0423\U+0420\U+0410
 10
2062.7
 20
3500.0
 30
1700.0
 11
2062.7
 21
3460.1
 31
1700.0
  0
LINE
  8
\U+0410\U+041A\U+0421\U+041E_3D_\U+0410\U+0420\U+041C\U+0410\U+0422\U+0423\U+0420\U+0410
 10
2062.7
 20
3500.0
 30
1700.0
 11
2062.7
 21
3500.0
 31
1739.9
  0
LINE
  8
\U+0410\U+041A\U+0421\U+041E_3D_\U+0410\U+0420\U+041C\U+0410\U+0422\U+0423\U+0420\U+0410
 10
2062.7
 20
3500.0
 30
1700.0
 11
2062.7
 21
3539.9
 31
1700.0
  0
TEXT
  8
\U+0410\U+041A\U+0421\U+041E_\U+0410\U+0420\U+041C\U+0410\U+0422\U+0423\U+0420\U+0410
 10
2000.0
 20
3500.0
 30
1800.0
 40
70.0
  1
\U+041A\U+0440\U+0430\U+043D \U+0448\U+0430\U+0440\U+043E\U+0432\U+043E\U+0439 \U+0414\U+044350
 72
0
 11
2000.0
 21
3500.0
 31
1800.0
  0
TEXT
  8
\U+0410\U+041A\U+0421\U+041E_\U+041E\U+0422\U+041C\U+0415\U+0422\U+041A\U+0418
 10
0.0
 20
0.0
 30
30.0
 40
50.0
  1
0.000
 72
0
 11
0.0
 21
0.0
 31
30.0
  0
TEXT
  8
\U+0410\U+041A\U+0421\U+041E_\U+041E\U+0422\U+041C\U+0415\U+0422\U+041A\U+0418
 10
0.0
 20
0.0
 30
2830.0
 40
50.0
  1
+2.800
 72
0
 11
0.0
 21
0.0
 31
2830.0
  0
TEXT
  8
\U+0410\U+041A\U+0421\U+041E_\U+041E\U+0422\U+041C\U+0415\U+0422\U+041A\U+0418
 10
0.0
 20
3500.0
 30
2830.0
 40
50.0
  1
+2.800
 72
0
 11
0.0
 21
3500.0
 31
2830.0
  0
TEXT
  8
\U+0410\U+041A\U+0421\U+041E_\U+041E\U+0422\U+041C\U+0415\U+0422\U+041A\U+0418
 10
2000.0
 20
3500.0
 30
2830.0
 40
50.0
  1
+2.800
 72
0
 11
2000.0
 21
3500.0
 31
2830.0
  0
TEXT
  8
\U+0410\U+041A\U+0421\U+041E_\U+041E\U+0422\U+041C\U+0415\U+0422\U+041A\U+0418
 10
2000.0
 20
3500.0
 30
630.0
 40
50.0
  1
+0.600
 72
0
 11
2000.0
 21
3500.0
 31
630.0
  0
TEXT
  8
\U+0410\U+041A\U+0421\U+041E_\U+041E\U+0422\U+041C\U+0415\U+0422\U+041A\U+0418
 10
1000.0
 20
3500.0
 30
2830.0
 40
50.0
  1
+2.800
 72
0
 11
1000.0
 21
3500.0
 31
2830.0
  0
LINE
  8
\U+0410\U+041A\U+0421\U+041E_3D_\U+041F\U+0415\U+0420\U+0415\U+0425\U+041E\U+0414\U+042B
 10
960.0
 20
3500.0
 30
2828.5
 11
960.0
 21
3485.75
 31
2824.6817240078567
  0
LINE
  8
\U+0410\U+041A\U+0421\U+041E_3D_\U+041F\U+0415\U+0420\U+0415\U+0425\U+041E\U+0414\U+042B
 10
1040.0
 20
3500.0
 30
2819.0
 11
1040.0
 21
3490.5
 31
2816.4544826719043
  0
LINE
  8
\U+0410\U+041A\U+0421\U+041E_3D_\U+041F\U+0415\U+0420\U+0415\U+0425\U+041E\U+0414\U+042B
 10
960.0
 20
3485.75
 30
2824.6817240078567
 11
960.0
 21
3475.3182759921433
 31
2814.25
  0
LINE
  8
\U+0410\U+041A\U+0421\U+041E_3D_\U+041F\U+0415\U+0420\U+0415\U+0425\U+041E\U+0414\U+042B
 10
1040.0
 20
3490.5
 30
2816.4544826719043
 11
1040.0
 21
3483.5455173280957
 31
2809.5
  0
LINE
  8
\U+0410\U+041A\U+0421\U+041E_3D_\U+041F\U+0415\U+0420\U+0415\U+0425\U+041E\U+0414\U+042B
 10
960.0
 20
3475.3182759921433
 30
2814.25
 11
960.0
 21
3471.5
 31
2800.0
  0
LINE
  8
\U+0410\U+041A\U+0421\U+041E_3D_\U+041F\U+0415\U+0420\U+0415\U+0425\U+041E\U+0414\U+042B
 10
1040.0
 20
3483.5455173280957
 30
2809.5
 11
1040.0
 21
3481.0
 31
2800.0
  0
LINE
  8
\U+0410\U+041A\U+0421\U+041E_3D_\U+041F\U+0415\U+0420\U+0415\U+0425\U+041E\U+0414\U+042B
 10
960.0
 20
3471.5
 30
2800.0
 11
960.0
 21
3475.3182759921433
 31
2785.75
  0
LINE
  8
\U+0410\U+041A\U+0421\U+041E_3D_\U+041F\U+0415\U+0420\U+0415\U+0425\U+041E\U+0414\U+042B
 10
1040.0
 20
3481.0
 30
2800.0
 11
1040.0
 21
3483.5455173280957
 31
2790.5
  0
LINE
  8
\U+0410\U+041A\U+0421\U+041E_3D_\U+041F\U+0415\U+0420\U+0415\U+0425\U+041E\U+0414\U+042B
 10
960.0
 20
3475.3182759921433
 30
2785.75
 11
960.0
 21
3485.75
 31
2775.3182759921433
  0
LINE
  8
\U+0410\U+041A\U+0421\U+041E_3D_\U+041F\U+0415\U+0420\U+0415\U+0425\U+041E\U+0414\U+042B
 10
1040.0
 20
3483.5455173280957
 30
2790.5
 11
1040.0
 21
3490.5
 31
2783.5455173280957
  0
LINE
  8
\U+0410\U+041A\U+0421\U+041E_3D_\U+041F\U+0415\U+0420\U+0415\U+0425\U+041E\U+0414\U+042B
 10
960.0
 20
3485.75
 30
2775.3182759921433
 11
960.0
 21
3500.0
 31
2771.5
  0
LINE
  8
\U+0410\U+041A\U+0421\U+041E_3D_\U+041F\U+0415\U+0420\U+0415\U+0425\U+041E\U+0414\U+042B
 10
1040.0
 20
3490.5
 30
2783.5455173280957
 11
1040.0
 21
3500.0
 31
2781.0
  0
LINE
  8
\U+0410\U+041A\U+0421\U+041E_3D_\U+041F\U+0415\U+0420\U+0415\U+0425\U+041E\U+0414\U+042B
 10
960.0
 20
3500.0
 30
2771.5
 11
960.0
 21
3514.25
 31
2775.3182759921433
  0
LINE
  8
\U+0410\U+041A\U+0421\U+041E_3D_\U+041F\U+0415\U+0420\U+0415\U+0425\U+041E\U+0414\U+042B
 10
1040.0
 20
3500.0
 30
2781.0
 11
1040.0
 21
3509.5
 31
2783.5455173280957
  0
LINE
  8
\U+0410\U+041A\U+0421\U+041E_3D_\U+041F\U+0415\U+0420\U+0415\U+0425\U+041E\U+0414\U+042B
 10
960.0
 20
3514.25
 30
2775.3182759921433
 11
960.0
 21
3524.6817240078567
 31
2785.75
  0
LINE
  8
\U+0410\U+041A\U+0421\U+041E_3D_\U+041F\U+0415\U+0420\U+0415\U+0425\U+041E\U+0414\U+042B
 10
1040.0
 20
3509.5
 30
2783.5455173280957
 11
1040.0
 21
3516.4544826719043
 31
2790.5
  0
LINE
  8
\U+0410\U+041A\U+0421\U+041E_3D_\U+041F\U+0415\U+0420\U+0415\U+0425\U+041E\U+0414\U+042B
 10
960.0
 20
3524.6817240078567
 30
2785.75
 11
960.0
 21
3528.5
 31
2800.0
  0
LINE
  8
\U+0410\U+041A\U+0421\U+041E_3D_\U+041F\U+0415\U+0420\U+0415\U+0425\U+041E\U+0414\U+042B
 10
1040.0
 20
3516.4544826719043
 30
2790.5
 11
1040.0
 21
3519.0
 31
2800.0
  0
LINE
  8
\U+0410\U+041A\U+0421\U+041E_3D_\U+041F\U+0415\U+0420\U+0415\U+0425\U+041E\U+0414\U+042B
 10
960.0
 20
3528.5
 30
2800.0
 11
960.0
 21
3524.6817240078567
 31
2814.25
  0
LINE
  8
\U+0410\U+041A\U+0421\U+041E_3D_\U+041F\U+0415\U+0420\U+0415\U+0425\U+041E\U+0414\U+042B
 10
1040.0
 20
3519.0
 30
2800.0
 11
1040.0
 21
3516.4544826719043
 31
2809.5
  0
LINE
  8
\U+0410\U+041A\U+0421\U+041E_3D_\U+041F\U+0415\U+0420\U+0415\U+0425\U+041E\U+0414\U+042B
 10
960.0
 20
3524.6817240078567
 30
2814.25
 11
960.0
 21
3514.25
 31
2824.6817240078567
  0
LINE
  8
\U+0410\U+041A\U+0421\U+041E_3D_\U+041F\U+0415\U+0420\U+0415\U+0425\U+041E\U+0414\U+042B
 10
1040.0
 20
3516.4544826719043
 30
2809.5
 11
1040.0
 21
3509.5
 31
2816.4544826719043
  0
LINE
  8
\U+0410\U+041A\U+0421\U+041E_3D_\U+041F\U+0415\U+0420\U+0415\U+0425\U+041E\U+0414\U+042B
 10
960.0
 20
3514.25
 30
2824.6817240078567
 11
960.0
 21
3500.0
 31
2828.5
  0
LINE
  8
\U+0410\U+041A\U+0421\U+041E_3D_\U+041F\U+0415\U+0420\U+0415\U+0425\U+041E\U+0414\U+042B
 10
1040.0
 20
3509.5
 30
2816.4544826719043
 11
1040.0
 21
3500.0
 31
2819.0
  0
LINE
  8
\U+0410\U+041A\U+0421\U+041E_3D_\U+041F\U+0415\U+0420\U+0415\U+0425\U+041E\U+0414\U+042B
 10
960.0
 20
3500.0
 30
2828.5
 11
1040.0
 21
3500.0
 31
2819.0
  0
LINE
  8
\U+0410\U+041A\U+0421\U+041E_3D_\U+041F\U+0415\U+0420\U+0415\U+0425\U+041E\U+0414\U+042B
 10
960.0
 20
3485.75
 30
2824.6817240078567
 11
1040.0
 21
3490.5
 31
2816.4544826719043
  0
LINE
  8
\U+0410\U+041A\U+0421\U+041E_3D_\U+041F\U+0415\U+0420\U+0415\U+0425\U+041E\U+0414\U+042B
 10
960.0
 20
3475.3182759921433
 30
2814.25
 11
1040.0
 21
3483.5455173280957
 31
2809.5
  0
LINE
  8
\U+0410\U+041A\U+0421\U+041E_3D_\U+041F\U+0415\U+0420\U+0415\U+0425\U+041E\U+0414\U+042B
 10
960.0
 20
3471.5
 30
2800.0
 11
1040.0
 21
3481.0
 31
2800.0
  0
LINE
  8
\U+0410\U+041A\U+0421\U+041E_3D_\U+041F\U+0415\U+0420\U+0415\U+0425\U+041E\U+0414\U+042B
 10
960.0
 20
3475.3182759921433
 30
2785.75
 11
1040.0
 21
3483.5455173280957
 31
2790.5
  0
LINE
  8
\U+0410\U+041A\U+0421\U+041E_3D_\U+041F\U+0415\U+0420\U+0415\U+0425\U+041E\U+0414\U+042B
 10
960.0
 20
3485.75
 30
2775.3182759921433
 11
1040.0
 21
3490.5
 31
2783.5455173280957
  0
LINE
  8
\U+0410\U+041A\U+0421\U+041E_3D_\U+041F\U+0415\U+0420\U+0415\U+0425\U+041E\U+0414\U+042B
 10
960.0
 20
3500.0
 30
2771.5
 11
1040.0
 21
3500.0
 31
2781.0
  0
LINE
  8
\U+0410\U+041A\U+0421\U+041E_3D_\U+041F\U+0415\U+0420\U+0415\U+0425\U+041E\U+0414\U+042B
 10
960.0
 20
3514.25
 30
2775.3182759921433
 11
1040.0
 21
3509.5
 31
2783.5455173280957
  0
LINE
  8
\U+0410\U+041A\U+0421\U+041E_3D_\U+041F\U+0415\U+0420\U+0415\U+0425\U+041E\U+0414\U+042B
 10
960.0
 20
3524.6817240078567
 30
2785.75
 11
1040.0
 21
3516.4544826719043
 31
2790.5
  0
LINE
  8
\U+0410\U+041A\U+0421\U+041E_3D_\U+041F\U+0415\U+0420\U+0415\U+0425\U+041E\U+0414\U+042B
 10
960.0
 20
3528.5
 30
2800.0
 11
1040.0
 21
3519.0
 31
2800.0
  0
LINE
  8
\U+0410\U+041A\U+0421\U+041E_3D_\U+041F\U+0415\U+0420\U+0415\U+0425\U+041E\U+0414\U+042B
 10
960.0
 20
3524.6817240078567
 30
2814.25
 11
1040.0
 21
3516.4544826719043
 31
2809.5
  0
LINE
  8
\U+0410\U+041A\U+0421\U+041E_3D_\U+041F\U+0415\U+0420\U+0415\U+0425\U+041E\U+0414\U+042B
 10
960.0
 20
3514.25
 30
2824.6817240078567
 11
1040.0
 21
3509.5
 31
2816.4544826719043
  0
POINT
  8
\U+0410\U+041A\U+0421\U+041E_\U+041F\U+0415\U+0420\U+0415\U+0425\U+041E\U+0414\U+042B
 10
1000.0
 20
3500.0
 30
2800.0
  0
TEXT
  8
\U+0410\U+041A\U+0421\U+041E_\U+041F\U+0415\U+0420\U+0415\U+0425\U+041E\U+0414\U+042B_\U+0422\U+0415\U+041A\U+0421\U+0422
 10
1000.0
 20
3500.0
 30
2880.0
 40
50.0
  1
\U+041F\U+0435\U+0440\U+0435\U+0445\U+043E\U+0434 \U+043A\U+043E\U+043D\U+0446. \U+0414\U+044350x\U+0414\U+044332
 72
0
 11
1000.0
 21
3500.0
 31
2880.0
  0
INSERT
  8
\U+0410\U+041A\U+0421\U+041E_\U+0412\U+042B\U+041D\U+041E\U+0421\U+041A\U+0418
  2
CALLOUT_SHELF_1
 10
0.000
 20
1400.000
 30
0.000
210
0.707107
220
-0.707107
230
0.000000
  0
INSERT
  8
\U+0410\U+041A\U+0421\U+041E_\U+0412\U+042B\U+041D\U+041E\U+0421\U+041A\U+0418
  2
CALLOUT_SHELF_2
 10
1237.437
 20
2800.000
 30
-1237.437
210
0.707107
220
-0.707107
230
0.000000
  0
INSERT
  8
\U+0410\U+041A\U+0421\U+041E_\U+0412\U+042B\U+041D\U+041E\U+0421\U+041A\U+0418
  2
CALLOUT_SHELF_3
 10
3889.087
 20
1700.000
 30
-1060.660
210
0.707107
220
-0.707107
230
0.000000
  0
INSERT
  8
\U+0410\U+041A\U+0421\U+041E_\U+0412\U+042B\U+041D\U+041E\U+0421\U+041A\U+0418
  2
CALLOUT_SHELF_4
 10
2828.427
 20
2800.000
 30
-2121.320
210
0.707107
220
-0.707107
230
0.000000
  0
INSERT
  8
\U+0410\U+041A\U+0421\U+041E_\U+0412\U+042B\U+041D\U+041E\U+0421\U+041A\U+0418
  2
CALLOUT_SHELF_5
 10
3535.534
 20
2800.000
 30
-1414.214
210
0.707107
220
-0.707107
230
0.000000
  0
ENDSEC
  0
EOF
