  0
SECTION
  2
HEADER
  9
$ACADVER
  1
AC1015
  9
$INSUNITS
 70
4
  0
ENDSEC
  0
SECTION
  2
TABLES
  0
TABLE
  2
LTYPE
 70
2
  0
LTYPE
  2
CONTINUOUS
 70
0
  3
Solid line
 72
65
 73
0
 40
0.0
  0
LTYPE
  2
DASHDOT
 70
0
  3
Dash dot
 72
65
 73
4
 40
19.05
 49
12.7
 49
-3.175
 49
0.0
 49
-3.175
  0
ENDTAB
  0
TABLE
  2
LAYER
 70
26
  0
LAYER
  2
0
 70
0
 62
7
  6
CONTINUOUS
  0
LAYER
  2
АКСО_ОТМЕТКИ
 70
0
 62
2
  6
CONTINUOUS
  0
LAYER
  2
АКСО_ОТМЕТКИ_ТЕКСТ
 70
0
 62
7
  6
CONTINUOUS
  0
LAYER
  2
АКСО_СВАРКА
 70
0
 62
1
  6
CONTINUOUS
  0
LAYER
  2
АКСО_СВАРКА_ВЫНОСКИ
 70
0
 62
1
  6
CONTINUOUS
  0
LAYER
  2
АКСО_СВАРКА_ТЕКСТ
 70
0
 62
7
  6
CONTINUOUS
  0
LAYER
  2
АКСО_АРМАТУРА
 70
0
 62
3
  6
CONTINUOUS
  0
LAYER
  2
АКСО_ДИАМЕТРЫ
 70
0
 62
4
  6
CONTINUOUS
  0
LAYER
  2
АКСО_УКЛОНЫ
 70
0
 62
30
  6
CONTINUOUS
  0
LAYER
  2
АКСО_ПЕРЕХОДЫ
 70
0
 62
5
  6
CONTINUOUS
  0
LAYER
  2
АКСО_ПЕРЕХОДЫ_ТЕКСТ
 70
0
 62
7
  6
CONTINUOUS
  0
LAYER
  2
АКСО_ФЛАНЦЫ
 70
0
 62
6
  6
CONTINUOUS
  0
LAYER
  2
АКСО_ФЛАНЦЫ_ТЕКСТ
 70
0
 62
7
  6
CONTINUOUS
  0
LAYER
  2
АКСО_ВРЕЗКИ
 70
0
 62
1
  6
CONTINUOUS
  0
LAYER
  2
АКСО_ОСИ
 70
0
 62
8
  6
DASHDOT
  0
LAYER
  2
АКСО_ОСИ_ТЕКСТ
 70
0
 62
7
  6
CONTINUOUS
  0
LAYER
  2
АКСО_ВЫНОСКИ
 70
0
 62
7
  6
CONTINUOUS
  0
LAYER
  2
АКСО_ВЫНОСКИ_ТЕКСТ
 70
0
 62
4
  6
CONTINUOUS
  0
LAYER
  2
АКСО_В1
 70
0
 62
5
  6
CONTINUOUS
  0
LAYER
  2
АКСО_Т3
 70
0
 62
1
  6
CONTINUOUS
  0
LAYER
  2
АКСО_Т4
 70
0
 62
30
  6
CONTINUOUS
  0
LAYER
  2
АКСО_К1
 70
0
 62
130
  6
CONTINUOUS
  0
LAYER
  2
АКСО_О1
 70
0
 62
6
  6
CONTINUOUS
  0
LAYER
  2
АКСО_О2
 70
0
 62
4
  6
CONTINUOUS
  0
LAYER
  2
АКСО_ТХ
 70
0
 62
3
  6
CONTINUOUS
  0
LAYER
  2
АКСО_ТС
 70
0
 62
1
  6
CONTINUOUS
  0
ENDTAB
  0
ENDSEC
  0
SECTION
  2
BLOCKS
  0
ENDSEC
  0
SECTION
  2
ENTITIES
  0
LINE
  8
АКСО_В1
 10
0.0
 20
0.0
 30
0.0
 11
0.0
 21
0.0
 31
2800.0
  0
TEXT
  8
АКСО_ДИАМЕТРЫ
 10
0.0
 20
0.0
 30
1450.0
 40
60.0
  1
⌀89×3.5
 50
0.0
  0
LINE
  8
АКСО_В1
 10
0.0
 20
0.0
 30
2800.0
 11
0.0
 21
3500.0
 31
2800.0
  0
TEXT
  8
АКСО_ДИАМЕТРЫ
 10
0.0
 20
1750.0
 30
2850.0
 40
60.0
  1
⌀89×3.5
 50
0.0
  0
LINE
  8
АКСО_В1
 10
2000.0
 20
3500.0
 30
2800.0
 11
2000.0
 21
3500.0
 31
600.0
  0
TEXT
  8
АКСО_ДИАМЕТРЫ
 10
2000.0
 20
3500.0
 30
1750.0
 40
60.0
  1
⌀57×3.5
 50
0.0
  0
LINE
  8
АКСО_В1
 10
0.0
 20
3500.0
 30
2800.0
 11
1000.0
 21
3500.0
 31
2800.0
  0
TEXT
  8
АКСО_ДИАМЕТРЫ
 10
500.0
 20
3500.0
 30
2850.0
 40
60.0
  1
⌀57×3.5
 50
0.0
  0
LINE
  8
АКСО_В1
 10
1000.0
 20
3500.0
 30
2800.0
 11
2000.0
 21
3500.0
 31
2800.0
  0
TEXT
  8
АКСО_ДИАМЕТРЫ
 10
1500.0
 20
3500.0
 30
2850.0
 40
60.0
  1
⌀38×3.5
 50
0.0
  0
POINT
  8
АКСО_СВАРКА
 10
0.0
 20
964.9999999999999
 30
2800.0
  0
TEXT
  8
АКСО_СВАРКА_ТЕКСТ
 10
0.0
 20
964.9999999999999
 30
2880.0
 40
50.0
  1
№1 (ИВ-01)
 50
0.0
  0
POINT
  8
АКСО_СВАРКА
 10
0.0
 20
1135.0
 30
2800.0
  0
TEXT
  8
АКСО_СВАРКА_ТЕКСТ
 10
0.0
 20
1135.0
 30
2880.0
 40
50.0
  1
№2 (ИВ-01)
 50
0.0
  0
POINT
  8
АКСО_СВАРКА
 10
0.0
 20
2421.5
 30
2800.0
  0
TEXT
  8
АКСО_СВАРКА_ТЕКСТ
 10
0.0
 20
2421.5
 30
2880.0
 40
50.0
  1
№3 (ИВ-01)
 50
0.0
  0
POINT
  8
АКСО_СВАРКА
 10
0.0
 20
2478.4999999999995
 30
2800.0
  0
TEXT
  8
АКСО_СВАРКА_ТЕКСТ
 10
0.0
 20
2478.4999999999995
 30
2880.0
 40
50.0
  1
№4 (ИВ-01)
 50
0.0
  0
POINT
  8
АКСО_СВАРКА
 10
2000.0
 20
3500.0
 30
1750.0
  0
TEXT
  8
АКСО_СВАРКА_ТЕКСТ
 10
2000.0
 20
3500.0
 30
1830.0
 40
50.0
  1
№5 (ИВ-01)
 50
0.0
  0
POINT
  8
АКСО_СВАРКА
 10
2000.0
 20
3500.0
 30
1650.0
  0
TEXT
  8
АКСО_СВАРКА_ТЕКСТ
 10
2000.0
 20
3500.0
 30
1730.0
 40
50.0
  1
№6 (ИВ-01)
 50
0.0
  0
POINT
  8
АКСО_СВАРКА
 10
1000.0
 20
3500.0
 30
2800.0
  0
TEXT
  8
АКСО_СВАРКА_ТЕКСТ
 10
1000.0
 20
3500.0
 30
2880.0
 40
50.0
  1
№7 (ИВ-01)
 50
0.0
  0
POINT
  8
АКСО_СВАРКА
 10
1000.0
 20
3500.0
 30
2800.0
  0
TEXT
  8
АКСО_СВАРКА_ТЕКСТ
 10
1000.0
 20
3500.0
 30
2880.0
 40
50.0
  1
№8 (ИВ-01)
 50
0.0
  0
TEXT
  8
АКСО_АРМАТУРА
 10
0.0
 20
1050.0
 30
2900.0
 40
70.0
  1
Задвижка клиновая Ду80
 50
0.0
  0
TEXT
  8
АКСО_АРМАТУРА
 10
0.0
 20
2450.0
 30
2900.0
 40
70.0
  1
Затвор дисковый «баттерфляй» Ду80
 50
0.0
  0
TEXT
  8
АКСО_АРМАТУРА
 10
2000.0
 20
3500.0
 30
1800.0
 40
70.0
  1
Кран шаровой Ду50
 50
0.0
  0
TEXT
  8
АКСО_ОТМЕТКИ
 10
0.0
 20
0.0
 30
30.0
 40
50.0
  1
0.000
 50
0.0
  0
TEXT
  8
АКСО_ОТМЕТКИ
 10
0.0
 20
0.0
 30
2830.0
 40
50.0
  1
+2.800
 50
0.0
  0
TEXT
  8
АКСО_ОТМЕТКИ
 10
0.0
 20
3500.0
 30
2830.0
 40
50.0
  1
+2.800
 50
0.0
  0
TEXT
  8
АКСО_ОТМЕТКИ
 10
2000.0
 20
3500.0
 30
2830.0
 40
50.0
  1
+2.800
 50
0.0
  0
TEXT
  8
АКСО_ОТМЕТКИ
 10
2000.0
 20
3500.0
 30
630.0
 40
50.0
  1
+0.600
 50
0.0
  0
TEXT
  8
АКСО_ОТМЕТКИ
 10
1000.0
 20
3500.0
 30
2830.0
 40
50.0
  1
+2.800
 50
0.0
  0
POINT
  8
АКСО_ПЕРЕХОДЫ
 10
1000.0
 20
3500.0
 30
2800.0
  0
TEXT
  8
АКСО_ПЕРЕХОДЫ_ТЕКСТ
 10
1000.0
 20
3500.0
 30
2880.0
 40
50.0
  1
Переход конц. Ду50xДу32
 50
0.0
  0
ENDSEC
  0
EOF
