  0
SECTION
  2
HEADER
  9
$ACADVER
  1
AC1009
  0
ENDSEC
  0
SECTION
  2
TABLES
  0
TABLE
  2
LTYPE
 70
2
  0
LTYPE
  2
CONTINUOUS
 70
0
  3
Solid line
 72
65
 73
0
 40
0.0
  0
LTYPE
  2
DASHDOT
 70
0
  3
Dash dot
 72
65
 73
4
 40
19.05
 49
12.7
 49
-3.175
 49
0.0
 49
-3.175
  0
ENDTAB
  0
TABLE
  2
STYLE
 70
1
  0
STYLE
  2
STANDARD
 70
0
 40
0.0
 41
1.0
 50
0.0
 71
0
 42
2.5
  3
arial.ttf
  4

  0
ENDTAB
  0
TABLE
  2
LAYER
 70
30
  0
LAYER
  2
0
 70
0
 62
7
  6
CONTINUOUS
  0
LAYER
  2
\U+0410\U+041A\U+0421\U+041E_\U+0422\U+0420\U+0423\U+0411\U+042B
 70
0
 62
7
  6
CONTINUOUS
  0
LAYER
  2
\U+0410\U+041A\U+0421\U+041E_\U+041E\U+0422\U+041C\U+0415\U+0422\U+041A\U+0418
 70
0
 62
2
  6
CONTINUOUS
  0
LAYER
  2
\U+0410\U+041A\U+0421\U+041E_\U+041E\U+0422\U+041C\U+0415\U+0422\U+041A\U+0418_\U+0422\U+0415\U+041A\U+0421\U+0422
 70
0
 62
7
  6
CONTINUOUS
  0
LAYER
  2
\U+0410\U+041A\U+0421\U+041E_\U+0421\U+0412\U+0410\U+0420\U+041A\U+0410
 70
0
 62
1
  6
CONTINUOUS
  0
LAYER
  2
\U+0410\U+041A\U+0421\U+041E_\U+0421\U+0412\U+0410\U+0420\U+041A\U+0410_\U+0412\U+042B\U+041D\U+041E\U+0421\U+041A\U+0418
 70
0
 62
1
  6
CONTINUOUS
  0
LAYER
  2
\U+0410\U+041A\U+0421\U+041E_\U+0421\U+0412\U+0410\U+0420\U+041A\U+0410_\U+0422\U+0415\U+041A\U+0421\U+0422
 70
0
 62
7
  6
CONTINUOUS
  0
LAYER
  2
\U+0410\U+041A\U+0421\U+041E_\U+0410\U+0420\U+041C\U+0410\U+0422\U+0423\U+0420\U+0410
 70
0
 62
3
  6
CONTINUOUS
  0
LAYER
  2
\U+0410\U+041A\U+0421\U+041E_\U+0414\U+0418\U+0410\U+041C\U+0415\U+0422\U+0420\U+042B
 70
0
 62
4
  6
CONTINUOUS
  0
LAYER
  2
\U+0410\U+041A\U+0421\U+041E_\U+0423\U+041A\U+041B\U+041E\U+041D\U+042B
 70
0
 62
30
  6
CONTINUOUS
  0
LAYER
  2
\U+0410\U+041A\U+0421\U+041E_\U+041F\U+0415\U+0420\U+0415\U+0425\U+041E\U+0414\U+042B
 70
0
 62
5
  6
CONTINUOUS
  0
LAYER
  2
\U+0410\U+041A\U+0421\U+041E_\U+041F\U+0415\U+0420\U+0415\U+0425\U+041E\U+0414\U+042B_\U+0422\U+0415\U+041A\U+0421\U+0422
 70
0
 62
7
  6
CONTINUOUS
  0
LAYER
  2
\U+0410\U+041A\U+0421\U+041E_\U+0424\U+041B\U+0410\U+041D\U+0426\U+042B
 70
0
 62
6
  6
CONTINUOUS
  0
LAYER
  2
\U+0410\U+041A\U+0421\U+041E_\U+0424\U+041B\U+0410\U+041D\U+0426\U+042B_\U+0422\U+0415\U+041A\U+0421\U+0422
 70
0
 62
7
  6
CONTINUOUS
  0
LAYER
  2
\U+0410\U+041A\U+0421\U+041E_\U+0412\U+0420\U+0415\U+0417\U+041A\U+0418
 70
0
 62
1
  6
CONTINUOUS
  0
LAYER
  2
\U+0410\U+041A\U+0421\U+041E_\U+041E\U+0421\U+0418
 70
0
 62
8
  6
DASHDOT
  0
LAYER
  2
\U+0410\U+041A\U+0421\U+041E_\U+041E\U+0421\U+0418_\U+0422\U+0415\U+041A\U+0421\U+0422
 70
0
 62
7
  6
CONTINUOUS
  0
LAYER
  2
\U+0410\U+041A\U+0421\U+041E_\U+0412\U+0421\U+041F\U+041E\U+041C\U+041E\U+0413\U+0410\U+0422\U+0415\U+041B\U+042C\U+041D\U+042B\U+0415
 70
0
 62
4
  6
DASHDOT
  0
LAYER
  2
\U+0410\U+041A\U+0421\U+041E_\U+0420\U+0410\U+0417\U+041C\U+0415\U+0420\U+042B
 70
0
 62
3
  6
CONTINUOUS
  0
LAYER
  2
\U+0410\U+041A\U+0421\U+041E_\U+0420\U+0410\U+0417\U+041C\U+0415\U+0420\U+042B_\U+0422\U+0415\U+041A\U+0421\U+0422
 70
0
 62
7
  6
CONTINUOUS
  0
LAYER
  2
\U+0410\U+041A\U+0421\U+041E_\U+0412\U+042B\U+041D\U+041E\U+0421\U+041A\U+0418
 70
0
 62
7
  6
CONTINUOUS
  0
LAYER
  2
\U+0410\U+041A\U+0421\U+041E_\U+0412\U+042B\U+041D\U+041E\U+0421\U+041A\U+0418_\U+0422\U+0415\U+041A\U+0421\U+0422
 70
0
 62
4
  6
CONTINUOUS
  0
LAYER
  2
\U+0410\U+041A\U+0421\U+041E_\U+04121
 70
0
 62
5
  6
CONTINUOUS
  0
LAYER
  2
\U+0410\U+041A\U+0421\U+041E_\U+04223
 70
0
 62
1
  6
CONTINUOUS
  0
LAYER
  2
\U+0410\U+041A\U+0421\U+041E_\U+04224
 70
0
 62
30
  6
CONTINUOUS
  0
LAYER
  2
\U+0410\U+041A\U+0421\U+041E_\U+041A1
 70
0
 62
130
  6
CONTINUOUS
  0
LAYER
  2
\U+0410\U+041A\U+0421\U+041E_\U+041E1
 70
0
 62
6
  6
CONTINUOUS
  0
LAYER
  2
\U+0410\U+041A\U+0421\U+041E_\U+041E2
 70
0
 62
4
  6
CONTINUOUS
  0
LAYER
  2
\U+0410\U+041A\U+0421\U+041E_\U+0422\U+0425
 70
0
 62
3
  6
CONTINUOUS
  0
LAYER
  2
\U+0410\U+041A\U+0421\U+041E_\U+0422\U+0421
 70
0
 62
1
  6
CONTINUOUS
  0
ENDTAB
  0
ENDSEC
  0
SECTION
  2
BLOCKS
  0
BLOCK
  8
0
  2
CALLOUT_SHELF_1
 70
0
 10
0.0
 20
0.0
 30
0.0
  3
CALLOUT_SHELF_1
  0
CIRCLE
  8
\U+0410\U+041A\U+0421\U+041E_\U+0412\U+042B\U+041D\U+041E\U+0421\U+041A\U+0418
 10
0.0
 20
0.0
 30
0.0
 40
12.0
  0
LINE
  8
\U+0410\U+041A\U+0421\U+041E_\U+0412\U+042B\U+041D\U+041E\U+0421\U+041A\U+0418
 10
0.0
 20
0.0
 30
0.0
 11
173.2
 21
180.0
 31
0.0
  0
LINE
  8
\U+0410\U+041A\U+0421\U+041E_\U+0412\U+042B\U+041D\U+041E\U+0421\U+041A\U+0418
 10
173.2
 20
180.0
 30
0.0
 11
733.2
 21
180.0
 31
0.0
  0
TEXT
  8
\U+0410\U+041A\U+0421\U+041E_\U+0412\U+042B\U+041D\U+041E\U+0421\U+041A\U+0418_\U+0422\U+0415\U+041A\U+0421\U+0422
 10
183.2
 20
195.0
 30
0.0
 40
45.0
  1
\U+00D880x3.5 \U+0421\U+0442\U+0430\U+043B\U+044C 20
  0
ENDBLK
  8
0
  0
BLOCK
  8
0
  2
CALLOUT_SHELF_2
 70
0
 10
0.0
 20
0.0
 30
0.0
  3
CALLOUT_SHELF_2
  0
CIRCLE
  8
\U+0410\U+041A\U+0421\U+041E_\U+0412\U+042B\U+041D\U+041E\U+0421\U+041A\U+0418
 10
0.0
 20
0.0
 30
0.0
 40
12.0
  0
LINE
  8
\U+0410\U+041A\U+0421\U+041E_\U+0412\U+042B\U+041D\U+041E\U+0421\U+041A\U+0418
 10
0.0
 20
0.0
 30
0.0
 11
173.2
 21
180.0
 31
0.0
  0
LINE
  8
\U+0410\U+041A\U+0421\U+041E_\U+0412\U+042B\U+041D\U+041E\U+0421\U+041A\U+0418
 10
173.2
 20
180.0
 30
0.0
 11
733.2
 21
180.0
 31
0.0
  0
TEXT
  8
\U+0410\U+041A\U+0421\U+041E_\U+0412\U+042B\U+041D\U+041E\U+0421\U+041A\U+0418_\U+0422\U+0415\U+041A\U+0421\U+0422
 10
183.2
 20
195.0
 30
0.0
 40
45.0
  1
\U+00D880x3.5 \U+0421\U+0442\U+0430\U+043B\U+044C 20
  0
ENDBLK
  8
0
  0
BLOCK
  8
0
  2
CALLOUT_SHELF_3
 70
0
 10
0.0
 20
0.0
 30
0.0
  3
CALLOUT_SHELF_3
  0
CIRCLE
  8
\U+0410\U+041A\U+0421\U+041E_\U+0412\U+042B\U+041D\U+041E\U+0421\U+041A\U+0418
 10
0.0
 20
0.0
 30
0.0
 40
12.0
  0
LINE
  8
\U+0410\U+041A\U+0421\U+041E_\U+0412\U+042B\U+041D\U+041E\U+0421\U+041A\U+0418
 10
0.0
 20
0.0
 30
0.0
 11
173.2
 21
180.0
 31
0.0
  0
LINE
  8
\U+0410\U+041A\U+0421\U+041E_\U+0412\U+042B\U+041D\U+041E\U+0421\U+041A\U+0418
 10
173.2
 20
180.0
 30
0.0
 11
733.2
 21
180.0
 31
0.0
  0
TEXT
  8
\U+0410\U+041A\U+0421\U+041E_\U+0412\U+042B\U+041D\U+041E\U+0421\U+041A\U+0418_\U+0422\U+0415\U+041A\U+0421\U+0422
 10
183.2
 20
195.0
 30
0.0
 40
45.0
  1
\U+00D850x3.5 \U+0421\U+0442\U+0430\U+043B\U+044C 20
  0
ENDBLK
  8
0
  0
BLOCK
  8
0
  2
CALLOUT_SHELF_4
 70
0
 10
0.0
 20
0.0
 30
0.0
  3
CALLOUT_SHELF_4
  0
CIRCLE
  8
\U+0410\U+041A\U+0421\U+041E_\U+0412\U+042B\U+041D\U+041E\U+0421\U+041A\U+0418
 10
0.0
 20
0.0
 30
0.0
 40
12.0
  0
LINE
  8
\U+0410\U+041A\U+0421\U+041E_\U+0412\U+042B\U+041D\U+041E\U+0421\U+041A\U+0418
 10
0.0
 20
0.0
 30
0.0
 11
173.2
 21
180.0
 31
0.0
  0
LINE
  8
\U+0410\U+041A\U+0421\U+041E_\U+0412\U+042B\U+041D\U+041E\U+0421\U+041A\U+0418
 10
173.2
 20
180.0
 30
0.0
 11
733.2
 21
180.0
 31
0.0
  0
TEXT
  8
\U+0410\U+041A\U+0421\U+041E_\U+0412\U+042B\U+041D\U+041E\U+0421\U+041A\U+0418_\U+0422\U+0415\U+041A\U+0421\U+0422
 10
183.2
 20
195.0
 30
0.0
 40
45.0
  1
\U+00D850x3.5 \U+0421\U+0442\U+0430\U+043B\U+044C 20
  0
ENDBLK
  8
0
  0
BLOCK
  8
0
  2
CALLOUT_SHELF_5
 70
0
 10
0.0
 20
0.0
 30
0.0
  3
CALLOUT_SHELF_5
  0
CIRCLE
  8
\U+0410\U+041A\U+0421\U+041E_\U+0412\U+042B\U+041D\U+041E\U+0421\U+041A\U+0418
 10
0.0
 20
0.0
 30
0.0
 40
12.0
  0
LINE
  8
\U+0410\U+041A\U+0421\U+041E_\U+0412\U+042B\U+041D\U+041E\U+0421\U+041A\U+0418
 10
0.0
 20
0.0
 30
0.0
 11
173.2
 21
180.0
 31
0.0
  0
LINE
  8
\U+0410\U+041A\U+0421\U+041E_\U+0412\U+042B\U+041D\U+041E\U+0421\U+041A\U+0418
 10
173.2
 20
180.0
 30
0.0
 11
733.2
 21
180.0
 31
0.0
  0
TEXT
  8
\U+0410\U+041A\U+0421\U+041E_\U+0412\U+042B\U+041D\U+041E\U+0421\U+041A\U+0418_\U+0422\U+0415\U+041A\U+0421\U+0422
 10
183.2
 20
195.0
 30
0.0
 40
45.0
  1
\U+00D832x3.5 \U+0421\U+0442\U+0430\U+043B\U+044C 20
  0
ENDBLK
  8
0
  0
ENDSEC
  0
SECTION
  2
ENTITIES
  0
LINE
  8
\U+0410\U+041A\U+0421\U+041E_\U+04121
 10
0.0
 20
0.0
 30
0.0
 11
0.0
 21
0.0
 31
2800.0
  0
TEXT
  8
\U+0410\U+041A\U+0421\U+041E_\U+0414\U+0418\U+0410\U+041C\U+0415\U+0422\U+0420\U+042B
 10
0.0
 20
0.0
 30
1450.0
 40
60.0
  1
\U+230089\U+00D73.5
 72
0
 11
0.0
 21
0.0
 31
1450.0
  0
LINE
  8
\U+0410\U+041A\U+0421\U+041E_\U+04121
 10
0.0
 20
0.0
 30
2800.0
 11
0.0
 21
3500.0
 31
2800.0
  0
TEXT
  8
\U+0410\U+041A\U+0421\U+041E_\U+0414\U+0418\U+0410\U+041C\U+0415\U+0422\U+0420\U+042B
 10
0.0
 20
1750.0
 30
2850.0
 40
60.0
  1
\U+230089\U+00D73.5
 72
0
 11
0.0
 21
1750.0
 31
2850.0
  0
LINE
  8
\U+0410\U+041A\U+0421\U+041E_\U+04121
 10
2000.0
 20
3500.0
 30
2800.0
 11
2000.0
 21
3500.0
 31
600.0
  0
TEXT
  8
\U+0410\U+041A\U+0421\U+041E_\U+0414\U+0418\U+0410\U+041C\U+0415\U+0422\U+0420\U+042B
 10
2000.0
 20
3500.0
 30
1750.0
 40
60.0
  1
\U+230057\U+00D73.5
 72
0
 11
2000.0
 21
3500.0
 31
1750.0
  0
LINE
  8
\U+0410\U+041A\U+0421\U+041E_\U+04121
 10
0.0
 20
3500.0
 30
2800.0
 11
1000.0
 21
3500.0
 31
2800.0
  0
TEXT
  8
\U+0410\U+041A\U+0421\U+041E_\U+0414\U+0418\U+0410\U+041C\U+0415\U+0422\U+0420\U+042B
 10
500.0
 20
3500.0
 30
2850.0
 40
60.0
  1
\U+230057\U+00D73.5
 72
0
 11
500.0
 21
3500.0
 31
2850.0
  0
LINE
  8
\U+0410\U+041A\U+0421\U+041E_\U+04121
 10
1000.0
 20
3500.0
 30
2800.0
 11
2000.0
 21
3500.0
 31
2800.0
  0
TEXT
  8
\U+0410\U+041A\U+0421\U+041E_\U+0414\U+0418\U+0410\U+041C\U+0415\U+0422\U+0420\U+042B
 10
1500.0
 20
3500.0
 30
2850.0
 40
60.0
  1
\U+230038\U+00D73.5
 72
0
 11
1500.0
 21
3500.0
 31
2850.0
  0
POINT
  8
\U+0410\U+041A\U+0421\U+041E_\U+0421\U+0412\U+0410\U+0420\U+041A\U+0410
 10
0.0
 20
964.9999999999999
 30
2800.0
  0
TEXT
  8
\U+0410\U+041A\U+0421\U+041E_\U+0421\U+0412\U+0410\U+0420\U+041A\U+0410_\U+0422\U+0415\U+041A\U+0421\U+0422
 10
0.0
 20
964.9999999999999
 30
2880.0
 40
50.0
  1
\U+21161 (\U+0418\U+0412-01)
 72
0
 11
0.0
 21
964.9999999999999
 31
2880.0
  0
POINT
  8
\U+0410\U+041A\U+0421\U+041E_\U+0421\U+0412\U+0410\U+0420\U+041A\U+0410
 10
0.0
 20
1135.0
 30
2800.0
  0
TEXT
  8
\U+0410\U+041A\U+0421\U+041E_\U+0421\U+0412\U+0410\U+0420\U+041A\U+0410_\U+0422\U+0415\U+041A\U+0421\U+0422
 10
0.0
 20
1135.0
 30
2880.0
 40
50.0
  1
\U+21162 (\U+0418\U+0412-01)
 72
0
 11
0.0
 21
1135.0
 31
2880.0
  0
POINT
  8
\U+0410\U+041A\U+0421\U+041E_\U+0421\U+0412\U+0410\U+0420\U+041A\U+0410
 10
0.0
 20
2421.5
 30
2800.0
  0
TEXT
  8
\U+0410\U+041A\U+0421\U+041E_\U+0421\U+0412\U+0410\U+0420\U+041A\U+0410_\U+0422\U+0415\U+041A\U+0421\U+0422
 10
0.0
 20
2421.5
 30
2880.0
 40
50.0
  1
\U+21163 (\U+0418\U+0412-01)
 72
0
 11
0.0
 21
2421.5
 31
2880.0
  0
POINT
  8
\U+0410\U+041A\U+0421\U+041E_\U+0421\U+0412\U+0410\U+0420\U+041A\U+0410
 10
0.0
 20
2478.4999999999995
 30
2800.0
  0
TEXT
  8
\U+0410\U+041A\U+0421\U+041E_\U+0421\U+0412\U+0410\U+0420\U+041A\U+0410_\U+0422\U+0415\U+041A\U+0421\U+0422
 10
0.0
 20
2478.4999999999995
 30
2880.0
 40
50.0
  1
\U+21164 (\U+0418\U+0412-01)
 72
0
 11
0.0
 21
2478.4999999999995
 31
2880.0
  0
POINT
  8
\U+0410\U+041A\U+0421\U+041E_\U+0421\U+0412\U+0410\U+0420\U+041A\U+0410
 10
2000.0
 20
3500.0
 30
1750.0
  0
TEXT
  8
\U+0410\U+041A\U+0421\U+041E_\U+0421\U+0412\U+0410\U+0420\U+041A\U+0410_\U+0422\U+0415\U+041A\U+0421\U+0422
 10
2000.0
 20
3500.0
 30
1830.0
 40
50.0
  1
\U+21165 (\U+0418\U+0412-01)
 72
0
 11
2000.0
 21
3500.0
 31
1830.0
  0
POINT
  8
\U+0410\U+041A\U+0421\U+041E_\U+0421\U+0412\U+0410\U+0420\U+041A\U+0410
 10
2000.0
 20
3500.0
 30
1650.0
  0
TEXT
  8
\U+0410\U+041A\U+0421\U+041E_\U+0421\U+0412\U+0410\U+0420\U+041A\U+0410_\U+0422\U+0415\U+041A\U+0421\U+0422
 10
2000.0
 20
3500.0
 30
1730.0
 40
50.0
  1
\U+21166 (\U+0418\U+0412-01)
 72
0
 11
2000.0
 21
3500.0
 31
1730.0
  0
POINT
  8
\U+0410\U+041A\U+0421\U+041E_\U+0421\U+0412\U+0410\U+0420\U+041A\U+0410
 10
1000.0
 20
3500.0
 30
2800.0
  0
TEXT
  8
\U+0410\U+041A\U+0421\U+041E_\U+0421\U+0412\U+0410\U+0420\U+041A\U+0410_\U+0422\U+0415\U+041A\U+0421\U+0422
 10
1000.0
 20
3500.0
 30
2880.0
 40
50.0
  1
\U+21167 (\U+0418\U+0412-01)
 72
0
 11
1000.0
 21
3500.0
 31
2880.0
  0
POINT
  8
\U+0410\U+041A\U+0421\U+041E_\U+0421\U+0412\U+0410\U+0420\U+041A\U+0410
 10
1000.0
 20
3500.0
 30
2800.0
  0
TEXT
  8
\U+0410\U+041A\U+0421\U+041E_\U+0421\U+0412\U+0410\U+0420\U+041A\U+0410_\U+0422\U+0415\U+041A\U+0421\U+0422
 10
1000.0
 20
3500.0
 30
2880.0
 40
50.0
  1
\U+21168 (\U+0418\U+0412-01)
 72
0
 11
1000.0
 21
3500.0
 31
2880.0
  0
TEXT
  8
\U+0410\U+041A\U+0421\U+041E_\U+0410\U+0420\U+041C\U+0410\U+0422\U+0423\U+0420\U+0410
 10
0.0
 20
1050.0
 30
2900.0
 40
70.0
  1
\U+0417\U+0430\U+0434\U+0432\U+0438\U+0436\U+043A\U+0430 \U+043A\U+043B\U+0438\U+043D\U+043E\U+0432\U+0430\U+044F \U+0414\U+044380
 72
0
 11
0.0
 21
1050.0
 31
2900.0
  0
TEXT
  8
\U+0410\U+041A\U+0421\U+041E_\U+0410\U+0420\U+041C\U+0410\U+0422\U+0423\U+0420\U+0410
 10
0.0
 20
2450.0
 30
2900.0
 40
70.0
  1
\U+0417\U+0430\U+0442\U+0432\U+043E\U+0440 \U+0434\U+0438\U+0441\U+043A\U+043E\U+0432\U+044B\U+0439 \U+00AB\U+0431\U+0430\U+0442\U+0442\U+0435\U+0440\U+0444\U+043B\U+044F\U+0439\U+00BB \U+0414\U+044380
 72
0
 11
0.0
 21
2450.0
 31
2900.0
  0
TEXT
  8
\U+0410\U+041A\U+0421\U+041E_\U+0410\U+0420\U+041C\U+0410\U+0422\U+0423\U+0420\U+0410
 10
2000.0
 20
3500.0
 30
1800.0
 40
70.0
  1
\U+041A\U+0440\U+0430\U+043D \U+0448\U+0430\U+0440\U+043E\U+0432\U+043E\U+0439 \U+0414\U+044350
 72
0
 11
2000.0
 21
3500.0
 31
1800.0
  0
TEXT
  8
\U+0410\U+041A\U+0421\U+041E_\U+041E\U+0422\U+041C\U+0415\U+0422\U+041A\U+0418
 10
0.0
 20
0.0
 30
30.0
 40
50.0
  1
0.000
 72
0
 11
0.0
 21
0.0
 31
30.0
  0
TEXT
  8
\U+0410\U+041A\U+0421\U+041E_\U+041E\U+0422\U+041C\U+0415\U+0422\U+041A\U+0418
 10
0.0
 20
0.0
 30
2830.0
 40
50.0
  1
+2.800
 72
0
 11
0.0
 21
0.0
 31
2830.0
  0
TEXT
  8
\U+0410\U+041A\U+0421\U+041E_\U+041E\U+0422\U+041C\U+0415\U+0422\U+041A\U+0418
 10
0.0
 20
3500.0
 30
2830.0
 40
50.0
  1
+2.800
 72
0
 11
0.0
 21
3500.0
 31
2830.0
  0
TEXT
  8
\U+0410\U+041A\U+0421\U+041E_\U+041E\U+0422\U+041C\U+0415\U+0422\U+041A\U+0418
 10
2000.0
 20
3500.0
 30
2830.0
 40
50.0
  1
+2.800
 72
0
 11
2000.0
 21
3500.0
 31
2830.0
  0
TEXT
  8
\U+0410\U+041A\U+0421\U+041E_\U+041E\U+0422\U+041C\U+0415\U+0422\U+041A\U+0418
 10
2000.0
 20
3500.0
 30
630.0
 40
50.0
  1
+0.600
 72
0
 11
2000.0
 21
3500.0
 31
630.0
  0
TEXT
  8
\U+0410\U+041A\U+0421\U+041E_\U+041E\U+0422\U+041C\U+0415\U+0422\U+041A\U+0418
 10
1000.0
 20
3500.0
 30
2830.0
 40
50.0
  1
+2.800
 72
0
 11
1000.0
 21
3500.0
 31
2830.0
  0
POINT
  8
\U+0410\U+041A\U+0421\U+041E_\U+041F\U+0415\U+0420\U+0415\U+0425\U+041E\U+0414\U+042B
 10
1000.0
 20
3500.0
 30
2800.0
  0
TEXT
  8
\U+0410\U+041A\U+0421\U+041E_\U+041F\U+0415\U+0420\U+0415\U+0425\U+041E\U+0414\U+042B_\U+0422\U+0415\U+041A\U+0421\U+0422
 10
1000.0
 20
3500.0
 30
2880.0
 40
50.0
  1
\U+041F\U+0435\U+0440\U+0435\U+0445\U+043E\U+0434 \U+043A\U+043E\U+043D\U+0446. \U+0414\U+044350x\U+0414\U+044332
 72
0
 11
1000.0
 21
3500.0
 31
2880.0
  0
INSERT
  8
\U+0410\U+041A\U+0421\U+041E_\U+0412\U+042B\U+041D\U+041E\U+0421\U+041A\U+0418
  2
CALLOUT_SHELF_1
 10
0.000
 20
1400.000
 30
0.000
210
0.707107
220
-0.707107
230
0.000000
  0
INSERT
  8
\U+0410\U+041A\U+0421\U+041E_\U+0412\U+042B\U+041D\U+041E\U+0421\U+041A\U+0418
  2
CALLOUT_SHELF_2
 10
1237.437
 20
2800.000
 30
-1237.437
210
0.707107
220
-0.707107
230
0.000000
  0
INSERT
  8
\U+0410\U+041A\U+0421\U+041E_\U+0412\U+042B\U+041D\U+041E\U+0421\U+041A\U+0418
  2
CALLOUT_SHELF_3
 10
3889.087
 20
1700.000
 30
-1060.660
210
0.707107
220
-0.707107
230
0.000000
  0
INSERT
  8
\U+0410\U+041A\U+0421\U+041E_\U+0412\U+042B\U+041D\U+041E\U+0421\U+041A\U+0418
  2
CALLOUT_SHELF_4
 10
2828.427
 20
2800.000
 30
-2121.320
210
0.707107
220
-0.707107
230
0.000000
  0
INSERT
  8
\U+0410\U+041A\U+0421\U+041E_\U+0412\U+042B\U+041D\U+041E\U+0421\U+041A\U+0418
  2
CALLOUT_SHELF_5
 10
3535.534
 20
2800.000
 30
-1414.214
210
0.707107
220
-0.707107
230
0.000000
  0
ENDSEC
  0
EOF
