  0
SECTION
  2
HEADER
  9
$ACADVER
  1
AC1015
  9
$INSUNITS
 70
4
  0
ENDSEC
  0
SECTION
  2
TABLES
  0
TABLE
  2
LTYPE
 70
2
  0
LTYPE
  2
CONTINUOUS
 70
0
  3
Solid line
 72
65
 73
0
 40
0.0
  0
LTYPE
  2
DASHDOT
 70
0
  3
Dash dot
 72
65
 73
4
 40
19.05
 49
12.7
 49
-3.175
 49
0.0
 49
-3.175
  0
ENDTAB
  0
TABLE
  2
LAYER
 70
26
  0
LAYER
  2
0
 70
0
 62
7
  6
CONTINUOUS
  0
LAYER
  2
АКСО_ОТМЕТКИ
 70
0
 62
2
  6
CONTINUOUS
  0
LAYER
  2
АКСО_ОТМЕТКИ_ТЕКСТ
 70
0
 62
7
  6
CONTINUOUS
  0
LAYER
  2
АКСО_СВАРКА
 70
0
 62
1
  6
CONTINUOUS
  0
LAYER
  2
АКСО_СВАРКА_ВЫНОСКИ
 70
0
 62
1
  6
CONTINUOUS
  0
LAYER
  2
АКСО_СВАРКА_ТЕКСТ
 70
0
 62
7
  6
CONTINUOUS
  0
LAYER
  2
АКСО_АРМАТУРА
 70
0
 62
3
  6
CONTINUOUS
  0
LAYER
  2
АКСО_ДИАМЕТРЫ
 70
0
 62
4
  6
CONTINUOUS
  0
LAYER
  2
АКСО_УКЛОНЫ
 70
0
 62
30
  6
CONTINUOUS
  0
LAYER
  2
АКСО_ПЕРЕХОДЫ
 70
0
 62
5
  6
CONTINUOUS
  0
LAYER
  2
АКСО_ПЕРЕХОДЫ_ТЕКСТ
 70
0
 62
7
  6
CONTINUOUS
  0
LAYER
  2
АКСО_ФЛАНЦЫ
 70
0
 62
6
  6
CONTINUOUS
  0
LAYER
  2
АКСО_ФЛАНЦЫ_ТЕКСТ
 70
0
 62
7
  6
CONTINUOUS
  0
LAYER
  2
АКСО_ВРЕЗКИ
 70
0
 62
1
  6
CONTINUOUS
  0
LAYER
  2
АКСО_ОСИ
 70
0
 62
8
  6
DASHDOT
  0
LAYER
  2
АКСО_ОСИ_ТЕКСТ
 70
0
 62
7
  6
CONTINUOUS
  0
LAYER
  2
АКСО_ВЫНОСКИ
 70
0
 62
7
  6
CONTINUOUS
  0
LAYER
  2
АКСО_ВЫНОСКИ_ТЕКСТ
 70
0
 62
4
  6
CONTINUOUS
  0
LAYER
  2
АКСО_В1
 70
0
 62
5
  6
CONTINUOUS
  0
LAYER
  2
АКСО_Т3
 70
0
 62
1
  6
CONTINUOUS
  0
LAYER
  2
АКСО_Т4
 70
0
 62
30
  6
CONTINUOUS
  0
LAYER
  2
АКСО_К1
 70
0
 62
130
  6
CONTINUOUS
  0
LAYER
  2
АКСО_О1
 70
0
 62
6
  6
CONTINUOUS
  0
LAYER
  2
АКСО_О2
 70
0
 62
4
  6
CONTINUOUS
  0
LAYER
  2
АКСО_ТХ
 70
0
 62
3
  6
CONTINUOUS
  0
LAYER
  2
АКСО_ТС
 70
0
 62
1
  6
CONTINUOUS
  0
ENDTAB
  0
ENDSEC
  0
SECTION
  2
BLOCKS
  0
ENDSEC
  0
SECTION
  2
ENTITIES
  0
LINE
  8
АКСО_В1
 10
0.0
 20
0.0
 30
0.0
 11
0.0
 21
2800.0
 31
0.0
  0
TEXT
  8
АКСО_ДИАМЕТРЫ
 10
-30.0
 20
1430.0
 30
0.0
 40
50.0
  1
⌀89×3.5
 50
0.0
  0
LINE
  8
АКСО_В1
 10
0.0
 20
2800.0
 30
0.0
 11
3500.0
 21
2800.0
 31
0.0
  0
TEXT
  8
АКСО_ДИАМЕТРЫ
 10
1720.0
 20
2830.0
 30
0.0
 40
50.0
  1
⌀89×3.5
 50
0.0
  0
LINE
  8
АКСО_В1
 10
2792.89321882
 20
2092.89321882
 30
0.0
 11
2792.89321882
 21
-107.10678117999998
 31
0.0
  0
TEXT
  8
АКСО_ДИАМЕТРЫ
 10
2762.89321882
 20
1022.8932188200001
 30
0.0
 40
50.0
  1
⌀57×3.5
 50
0.0
  0
LINE
  8
АКСО_В1
 10
3500.0
 20
2800.0
 30
0.0
 11
3146.44660941
 21
2446.44660941
 31
0.0
  0
TEXT
  8
АКСО_ДИАМЕТРЫ
 10
3293.223304705
 20
2653.223304705
 30
0.0
 40
50.0
  1
⌀57×3.5
 50
0.0
  0
LINE
  8
АКСО_В1
 10
3146.44660941
 20
2446.44660941
 30
0.0
 11
2792.89321882
 21
2092.89321882
 31
0.0
  0
TEXT
  8
АКСО_ДИАМЕТРЫ
 10
2939.669914115
 20
2299.669914115
 30
0.0
 40
50.0
  1
⌀38×3.5
 50
0.0
  0
LINE
  8
АКСО_АРМАТУРА
 10
996.0
 20
2773.0
 30
0.0
 11
1050.0
 21
2800.0
 31
0.0
  0
LINE
  8
АКСО_АРМАТУРА
 10
1050.0
 20
2800.0
 30
0.0
 11
996.0
 21
2827.0
 31
0.0
  0
LINE
  8
АКСО_АРМАТУРА
 10
996.0
 20
2827.0
 30
0.0
 11
996.0
 21
2773.0
 31
0.0
  0
LINE
  8
АКСО_АРМАТУРА
 10
1050.0
 20
2800.0
 30
0.0
 11
1104.0
 21
2773.0
 31
0.0
  0
LINE
  8
АКСО_АРМАТУРА
 10
1104.0
 20
2773.0
 30
0.0
 11
1104.0
 21
2827.0
 31
0.0
  0
LINE
  8
АКСО_АРМАТУРА
 10
1104.0
 20
2827.0
 30
0.0
 11
1050.0
 21
2800.0
 31
0.0
  0
LINE
  8
АКСО_АРМАТУРА
 10
1050.0
 20
2800.0
 30
0.0
 11
1050.0
 21
2756.8
 31
0.0
  0
CIRCLE
  8
АКСО_АРМАТУРА
 10
1050.0
 20
2756.8
 30
0.0
 40
18.9
  0
LINE
  8
АКСО_АРМАТУРА
 10
2396.0
 20
2773.0
 30
0.0
 11
2450.0
 21
2800.0
 31
0.0
  0
LINE
  8
АКСО_АРМАТУРА
 10
2450.0
 20
2800.0
 30
0.0
 11
2396.0
 21
2827.0
 31
0.0
  0
LINE
  8
АКСО_АРМАТУРА
 10
2396.0
 20
2827.0
 30
0.0
 11
2396.0
 21
2773.0
 31
0.0
  0
LINE
  8
АКСО_АРМАТУРА
 10
2450.0
 20
2800.0
 30
0.0
 11
2504.0
 21
2773.0
 31
0.0
  0
LINE
  8
АКСО_АРМАТУРА
 10
2504.0
 20
2773.0
 30
0.0
 11
2504.0
 21
2827.0
 31
0.0
  0
LINE
  8
АКСО_АРМАТУРА
 10
2504.0
 20
2827.0
 30
0.0
 11
2450.0
 21
2800.0
 31
0.0
  0
LINE
  8
АКСО_АРМАТУРА
 10
2450.0
 20
2767.6
 30
0.0
 11
2450.0
 21
2832.4
 31
0.0
  0
LINE
  8
АКСО_АРМАТУРА
 10
2765.89321882
 20
1046.8932188200001
 30
0.0
 11
2792.89321882
 21
992.8932188200001
 31
0.0
  0
LINE
  8
АКСО_АРМАТУРА
 10
2792.89321882
 20
992.8932188200001
 30
0.0
 11
2819.89321882
 21
1046.8932188200001
 31
0.0
  0
LINE
  8
АКСО_АРМАТУРА
 10
2819.89321882
 20
1046.8932188200001
 30
0.0
 11
2765.89321882
 21
1046.8932188200001
 31
0.0
  0
LINE
  8
АКСО_АРМАТУРА
 10
2792.89321882
 20
992.8932188200001
 30
0.0
 11
2765.89321882
 21
938.8932188200001
 31
0.0
  0
LINE
  8
АКСО_АРМАТУРА
 10
2765.89321882
 20
938.8932188200001
 30
0.0
 11
2819.89321882
 21
938.8932188200001
 31
0.0
  0
LINE
  8
АКСО_АРМАТУРА
 10
2819.89321882
 20
938.8932188200001
 30
0.0
 11
2792.89321882
 21
992.8932188200001
 31
0.0
  0
CIRCLE
  8
АКСО_СВАРКА
 10
964.9999999999999
 20
2800.0
 30
0.0
 40
10.0
  0
LINE
  8
АКСО_СВАРКА_ВЫНОСКИ
 10
964.9999999999999
 20
2800.0
 30
0.0
 11
1085.0
 21
2920.0
 31
0.0
  0
LINE
  8
АКСО_СВАРКА_ВЫНОСКИ
 10
1085.0
 20
2920.0
 30
0.0
 11
1265.0
 21
2920.0
 31
0.0
  0
TEXT
  8
АКСО_СВАРКА_ТЕКСТ
 10
1095.0
 20
2935.0
 30
0.0
 40
40.0
  1
№1 С17
 50
0.0
  0
TEXT
  8
АКСО_СВАРКА_ТЕКСТ
 10
1095.0
 20
2875.0
 30
0.0
 40
35.0
  1
Кл. ИВ-01
 50
0.0
  0
CIRCLE
  8
АКСО_СВАРКА
 10
1135.0
 20
2800.0
 30
0.0
 40
10.0
  0
LINE
  8
АКСО_СВАРКА_ВЫНОСКИ
 10
1135.0
 20
2800.0
 30
0.0
 11
1255.0
 21
2920.0
 31
0.0
  0
LINE
  8
АКСО_СВАРКА_ВЫНОСКИ
 10
1255.0
 20
2920.0
 30
0.0
 11
1435.0
 21
2920.0
 31
0.0
  0
TEXT
  8
АКСО_СВАРКА_ТЕКСТ
 10
1265.0
 20
2935.0
 30
0.0
 40
40.0
  1
№2 С17
 50
0.0
  0
TEXT
  8
АКСО_СВАРКА_ТЕКСТ
 10
1265.0
 20
2875.0
 30
0.0
 40
35.0
  1
Кл. ИВ-01
 50
0.0
  0
CIRCLE
  8
АКСО_СВАРКА
 10
2421.5
 20
2800.0
 30
0.0
 40
10.0
  0
LINE
  8
АКСО_СВАРКА_ВЫНОСКИ
 10
2421.5
 20
2800.0
 30
0.0
 11
2541.5
 21
2920.0
 31
0.0
  0
LINE
  8
АКСО_СВАРКА_ВЫНОСКИ
 10
2541.5
 20
2920.0
 30
0.0
 11
2721.5
 21
2920.0
 31
0.0
  0
TEXT
  8
АКСО_СВАРКА_ТЕКСТ
 10
2551.5
 20
2935.0
 30
0.0
 40
40.0
  1
№3 С17
 50
0.0
  0
TEXT
  8
АКСО_СВАРКА_ТЕКСТ
 10
2551.5
 20
2875.0
 30
0.0
 40
35.0
  1
Кл. ИВ-01
 50
0.0
  0
CIRCLE
  8
АКСО_СВАРКА
 10
2478.4999999999995
 20
2800.0
 30
0.0
 40
10.0
  0
LINE
  8
АКСО_СВАРКА_ВЫНОСКИ
 10
2478.4999999999995
 20
2800.0
 30
0.0
 11
2598.4999999999995
 21
2920.0
 31
0.0
  0
LINE
  8
АКСО_СВАРКА_ВЫНОСКИ
 10
2598.4999999999995
 20
2920.0
 30
0.0
 11
2778.4999999999995
 21
2920.0
 31
0.0
  0
TEXT
  8
АКСО_СВАРКА_ТЕКСТ
 10
2608.4999999999995
 20
2935.0
 30
0.0
 40
40.0
  1
№4 С17
 50
0.0
  0
TEXT
  8
АКСО_СВАРКА_ТЕКСТ
 10
2608.4999999999995
 20
2875.0
 30
0.0
 40
35.0
  1
Кл. ИВ-01
 50
0.0
  0
CIRCLE
  8
АКСО_СВАРКА
 10
2792.89321882
 20
1042.8932188200001
 30
0.0
 40
10.0
  0
LINE
  8
АКСО_СВАРКА_ВЫНОСКИ
 10
2792.89321882
 20
1042.8932188200001
 30
0.0
 11
2912.89321882
 21
1162.8932188200001
 31
0.0
  0
LINE
  8
АКСО_СВАРКА_ВЫНОСКИ
 10
2912.89321882
 20
1162.8932188200001
 30
0.0
 11
3092.89321882
 21
1162.8932188200001
 31
0.0
  0
TEXT
  8
АКСО_СВАРКА_ТЕКСТ
 10
2922.89321882
 20
1177.8932188200001
 30
0.0
 40
40.0
  1
№5 С17
 50
0.0
  0
TEXT
  8
АКСО_СВАРКА_ТЕКСТ
 10
2922.89321882
 20
1117.8932188200001
 30
0.0
 40
35.0
  1
Кл. ИВ-01
 50
0.0
  0
CIRCLE
  8
АКСО_СВАРКА
 10
2792.89321882
 20
942.8932188200001
 30
0.0
 40
10.0
  0
LINE
  8
АКСО_СВАРКА_ВЫНОСКИ
 10
2792.89321882
 20
942.8932188200001
 30
0.0
 11
2912.89321882
 21
1062.8932188200001
 31
0.0
  0
LINE
  8
АКСО_СВАРКА_ВЫНОСКИ
 10
2912.89321882
 20
1062.8932188200001
 30
0.0
 11
3092.89321882
 21
1062.8932188200001
 31
0.0
  0
TEXT
  8
АКСО_СВАРКА_ТЕКСТ
 10
2922.89321882
 20
1077.8932188200001
 30
0.0
 40
40.0
  1
№6 С17
 50
0.0
  0
TEXT
  8
АКСО_СВАРКА_ТЕКСТ
 10
2922.89321882
 20
1017.8932188200001
 30
0.0
 40
35.0
  1
Кл. ИВ-01
 50
0.0
  0
CIRCLE
  8
АКСО_СВАРКА
 10
3146.44660941
 20
2446.44660941
 30
0.0
 40
10.0
  0
LINE
  8
АКСО_СВАРКА_ВЫНОСКИ
 10
3146.44660941
 20
2446.44660941
 30
0.0
 11
3266.44660941
 21
2566.44660941
 31
0.0
  0
LINE
  8
АКСО_СВАРКА_ВЫНОСКИ
 10
3266.44660941
 20
2566.44660941
 30
0.0
 11
3446.44660941
 21
2566.44660941
 31
0.0
  0
TEXT
  8
АКСО_СВАРКА_ТЕКСТ
 10
3276.44660941
 20
2581.44660941
 30
0.0
 40
40.0
  1
№7 С17
 50
0.0
  0
TEXT
  8
АКСО_СВАРКА_ТЕКСТ
 10
3276.44660941
 20
2521.44660941
 30
0.0
 40
35.0
  1
Кл. ИВ-01
 50
0.0
  0
CIRCLE
  8
АКСО_СВАРКА
 10
3146.44660941
 20
2446.44660941
 30
0.0
 40
10.0
  0
LINE
  8
АКСО_СВАРКА_ВЫНОСКИ
 10
3146.44660941
 20
2446.44660941
 30
0.0
 11
3266.44660941
 21
2566.44660941
 31
0.0
  0
LINE
  8
АКСО_СВАРКА_ВЫНОСКИ
 10
3266.44660941
 20
2566.44660941
 30
0.0
 11
3446.44660941
 21
2566.44660941
 31
0.0
  0
TEXT
  8
АКСО_СВАРКА_ТЕКСТ
 10
3276.44660941
 20
2581.44660941
 30
0.0
 40
40.0
  1
№8 С17
 50
0.0
  0
TEXT
  8
АКСО_СВАРКА_ТЕКСТ
 10
3276.44660941
 20
2521.44660941
 30
0.0
 40
35.0
  1
Кл. ИВ-01
 50
0.0
  0
LINE
  8
АКСО_ОТМЕТКИ
 10
0.0
 20
0.0
 30
0.0
 11
-24.5
 21
35.0
 31
0.0
  0
LINE
  8
АКСО_ОТМЕТКИ
 10
-24.5
 20
35.0
 30
0.0
 11
24.5
 21
35.0
 31
0.0
  0
LINE
  8
АКСО_ОТМЕТКИ
 10
24.5
 20
35.0
 30
0.0
 11
0.0
 21
0.0
 31
0.0
  0
LINE
  8
АКСО_ОТМЕТКИ
 10
0.0
 20
35.0
 30
0.0
 11
0.0
 21
50.0
 31
0.0
  0
LINE
  8
АКСО_ОТМЕТКИ
 10
0.0
 20
50.0
 30
0.0
 11
160.0
 21
50.0
 31
0.0
  0
TEXT
  8
АКСО_ОТМЕТКИ_ТЕКСТ
 10
15.0
 20
60.0
 30
0.0
 40
45.0
  1
0.000
 50
0.0
  0
LINE
  8
АКСО_ОТМЕТКИ
 10
0.0
 20
2800.0
 30
0.0
 11
-24.5
 21
2835.0
 31
0.0
  0
LINE
  8
АКСО_ОТМЕТКИ
 10
-24.5
 20
2835.0
 30
0.0
 11
24.5
 21
2835.0
 31
0.0
  0
LINE
  8
АКСО_ОТМЕТКИ
 10
24.5
 20
2835.0
 30
0.0
 11
0.0
 21
2800.0
 31
0.0
  0
LINE
  8
АКСО_ОТМЕТКИ
 10
0.0
 20
2835.0
 30
0.0
 11
0.0
 21
2850.0
 31
0.0
  0
LINE
  8
АКСО_ОТМЕТКИ
 10
0.0
 20
2850.0
 30
0.0
 11
160.0
 21
2850.0
 31
0.0
  0
TEXT
  8
АКСО_ОТМЕТКИ_ТЕКСТ
 10
15.0
 20
2860.0
 30
0.0
 40
45.0
  1
+2.800
 50
0.0
  0
LINE
  8
АКСО_ОТМЕТКИ
 10
3500.0
 20
2800.0
 30
0.0
 11
3475.5
 21
2835.0
 31
0.0
  0
LINE
  8
АКСО_ОТМЕТКИ
 10
3475.5
 20
2835.0
 30
0.0
 11
3524.5
 21
2835.0
 31
0.0
  0
LINE
  8
АКСО_ОТМЕТКИ
 10
3524.5
 20
2835.0
 30
0.0
 11
3500.0
 21
2800.0
 31
0.0
  0
LINE
  8
АКСО_ОТМЕТКИ
 10
3500.0
 20
2835.0
 30
0.0
 11
3500.0
 21
2850.0
 31
0.0
  0
LINE
  8
АКСО_ОТМЕТКИ
 10
3500.0
 20
2850.0
 30
0.0
 11
3660.0
 21
2850.0
 31
0.0
  0
TEXT
  8
АКСО_ОТМЕТКИ_ТЕКСТ
 10
3515.0
 20
2860.0
 30
0.0
 40
45.0
  1
+2.800
 50
0.0
  0
LINE
  8
АКСО_ОТМЕТКИ
 10
2792.89321882
 20
2092.89321882
 30
0.0
 11
2768.39321882
 21
2127.89321882
 31
0.0
  0
LINE
  8
АКСО_ОТМЕТКИ
 10
2768.39321882
 20
2127.89321882
 30
0.0
 11
2817.39321882
 21
2127.89321882
 31
0.0
  0
LINE
  8
АКСО_ОТМЕТКИ
 10
2817.39321882
 20
2127.89321882
 30
0.0
 11
2792.89321882
 21
2092.89321882
 31
0.0
  0
LINE
  8
АКСО_ОТМЕТКИ
 10
2792.89321882
 20
2127.89321882
 30
0.0
 11
2792.89321882
 21
2142.89321882
 31
0.0
  0
LINE
  8
АКСО_ОТМЕТКИ
 10
2792.89321882
 20
2142.89321882
 30
0.0
 11
2952.89321882
 21
2142.89321882
 31
0.0
  0
TEXT
  8
АКСО_ОТМЕТКИ_ТЕКСТ
 10
2807.89321882
 20
2152.89321882
 30
0.0
 40
45.0
  1
+2.800
 50
0.0
  0
LINE
  8
АКСО_ОТМЕТКИ
 10
2792.89321882
 20
-107.10678117999998
 30
0.0
 11
2768.39321882
 21
-72.10678117999998
 31
0.0
  0
LINE
  8
АКСО_ОТМЕТКИ
 10
2768.39321882
 20
-72.10678117999998
 30
0.0
 11
2817.39321882
 21
-72.10678117999998
 31
0.0
  0
LINE
  8
АКСО_ОТМЕТКИ
 10
2817.39321882
 20
-72.10678117999998
 30
0.0
 11
2792.89321882
 21
-107.10678117999998
 31
0.0
  0
LINE
  8
АКСО_ОТМЕТКИ
 10
2792.89321882
 20
-72.10678117999998
 30
0.0
 11
2792.89321882
 21
-57.106781179999984
 31
0.0
  0
LINE
  8
АКСО_ОТМЕТКИ
 10
2792.89321882
 20
-57.106781179999984
 30
0.0
 11
2952.89321882
 21
-57.106781179999984
 31
0.0
  0
TEXT
  8
АКСО_ОТМЕТКИ_ТЕКСТ
 10
2807.89321882
 20
-47.106781179999984
 30
0.0
 40
45.0
  1
+0.600
 50
0.0
  0
LINE
  8
АКСО_ОТМЕТКИ
 10
3146.44660941
 20
2446.44660941
 30
0.0
 11
3121.94660941
 21
2481.44660941
 31
0.0
  0
LINE
  8
АКСО_ОТМЕТКИ
 10
3121.94660941
 20
2481.44660941
 30
0.0
 11
3170.94660941
 21
2481.44660941
 31
0.0
  0
LINE
  8
АКСО_ОТМЕТКИ
 10
3170.94660941
 20
2481.44660941
 30
0.0
 11
3146.44660941
 21
2446.44660941
 31
0.0
  0
LINE
  8
АКСО_ОТМЕТКИ
 10
3146.44660941
 20
2481.44660941
 30
0.0
 11
3146.44660941
 21
2496.44660941
 31
0.0
  0
LINE
  8
АКСО_ОТМЕТКИ
 10
3146.44660941
 20
2496.44660941
 30
0.0
 11
3306.44660941
 21
2496.44660941
 31
0.0
  0
TEXT
  8
АКСО_ОТМЕТКИ_ТЕКСТ
 10
3161.44660941
 20
2506.44660941
 30
0.0
 40
45.0
  1
+2.800
 50
0.0
  0
LINE
  8
АКСО_ПЕРЕХОДЫ
 10
3155.285444174832
 20
2480.034181516361
 30
0.0
 11
3114.6268042566053
 21
2435.8400076922017
 31
0.0
  0
LINE
  8
АКСО_ПЕРЕХОДЫ
 10
3114.6268042566053
 20
2435.8400076922017
 30
0.0
 11
3135.8400076922017
 21
2414.6268042566053
 31
0.0
  0
LINE
  8
АКСО_ПЕРЕХОДЫ
 10
3135.8400076922017
 20
2414.6268042566053
 30
0.0
 11
3180.034181516361
 21
2455.285444174832
 31
0.0
  0
LINE
  8
АКСО_ПЕРЕХОДЫ
 10
3180.034181516361
 20
2455.285444174832
 30
0.0
 11
3155.285444174832
 21
2480.034181516361
 31
0.0
  0
TEXT
  8
АКСО_ПЕРЕХОДЫ_ТЕКСТ
 10
3121.44660941
 20
2483.94660941
 30
0.0
 40
40.0
  1
50×32
 50
0.0
  0
ENDSEC
  0
EOF
